<?xml version="1.0" encoding="UTF-8" standalone="no"?>
<svg
   xmlns:dc="http://purl.org/dc/elements/1.1/"
   xmlns:cc="http://creativecommons.org/ns#"
   xmlns:rdf="http://www.w3.org/1999/02/22-rdf-syntax-ns#"
   xmlns:svg="http://www.w3.org/2000/svg"
   xmlns="http://www.w3.org/2000/svg"
   xmlns:sodipodi="http://sodipodi.sourceforge.net/DTD/sodipodi-0.dtd"
   xmlns:inkscape="http://www.inkscape.org/namespaces/inkscape"
   height="64"
   viewBox="0 0 64 64"
   width="64"
   version="1.1"
   id="svg23"
   sodipodi:docname="android-package-archive.svg"
   inkscape:version="0.92.5 (2060ec1f9f, 2020-04-08)">
  <metadata
     id="metadata29">
    <rdf:RDF>
      <cc:Work
         rdf:about="">
        <dc:format>image/svg+xml</dc:format>
        <dc:type
           rdf:resource="http://purl.org/dc/dcmitype/StillImage" />
      </cc:Work>
    </rdf:RDF>
  </metadata>
  <defs
     id="defs27" />
  <sodipodi:namedview
     pagecolor="#ffffff"
     bordercolor="#666666"
     borderopacity="1"
     objecttolerance="10"
     gridtolerance="10"
     guidetolerance="10"
     inkscape:pageopacity="0"
     inkscape:pageshadow="2"
     inkscape:window-width="1920"
     inkscape:window-height="934"
     id="namedview25"
     showgrid="false"
     inkscape:zoom="3.6875"
     inkscape:cx="32"
     inkscape:cy="53.694915"
     inkscape:window-x="0"
     inkscape:window-y="35"
     inkscape:window-maximized="1"
     inkscape:current-layer="svg23" />
  <linearGradient
     id="a"
     gradientTransform="matrix(1.0749904,0,0,0.85722647,113.08072,8.616614)"
     gradientUnits="userSpaceOnUse"
     x1="-74.929466"
     x2="-75.259552"
     y1="52.199436"
     y2="2.356489">
    <stop
       offset="0"
       stop-color="#64c136"
       id="stop2" />
    <stop
       offset="1"
       stop-color="#80d057"
       id="stop4" />
  </linearGradient>
  <rect
     style="fill:url(#a);stroke-width:0.85258442"
     id="rect7"
     y="10"
     x="10"
     width="44"
     ry="2.082083"
     height="44" />
  <path
     style="fill-opacity:0.470588;stroke-width:0.09257578"
     inkscape:connector-curvature="0"
     id="path19"
     d="m 38.430172,28.804921 2.174697,-3.356798 c 0.13979,-0.211721 0.07786,-0.501206 -0.135808,-0.639051 -0.211628,-0.139789 -0.501206,-0.08184 -0.639051,0.135809 l -2.254498,3.472702 c -1.691359,-0.692929 -3.580461,-1.082303 -5.575469,-1.082303 -1.996952,0 -3.882073,0.389374 -5.577413,1.082303 l -2.250517,-3.472702 c -0.137753,-0.217646 -0.429366,-0.275598 -0.643031,-0.135809 -0.213665,0.137753 -0.275598,0.42733 -0.135809,0.639051 l 2.176642,3.356798 c -3.92401,1.923076 -6.569918,5.547511 -6.569918,9.705089 0,0.255602 0.01601,0.507223 0.03796,0.756807 h 25.926125 c 0.02194,-0.249584 0.03592,-0.501205 0.03592,-0.756807 9.3e-5,-4.157578 -2.647852,-7.782013 -6.569825,-9.705089 z m -12.440889,6.01076 c -0.688949,0 -1.248107,-0.555177 -1.248107,-1.24607 0,-0.690893 0.559158,-1.244126 1.248107,-1.244126 0.69293,0 1.248107,0.55314 1.248107,1.244126 0,0.690985 -0.559158,1.24607 -1.248107,1.24607 z m 12.019576,0 c -0.688949,0 -1.248106,-0.555177 -1.248106,-1.24607 0,-0.690893 0.559157,-1.244126 1.248106,-1.244126 0.690893,0 1.24607,0.55314 1.24607,1.244126 0,0.690893 -0.555177,1.24607 -1.24607,1.24607 z" />
</svg>
