<?xml version="1.0" encoding="UTF-8" standalone="no"?>
<svg
   xmlns:dc="http://purl.org/dc/elements/1.1/"
   xmlns:cc="http://creativecommons.org/ns#"
   xmlns:rdf="http://www.w3.org/1999/02/22-rdf-syntax-ns#"
   xmlns:svg="http://www.w3.org/2000/svg"
   xmlns="http://www.w3.org/2000/svg"
   xmlns:sodipodi="http://sodipodi.sourceforge.net/DTD/sodipodi-0.dtd"
   xmlns:inkscape="http://www.inkscape.org/namespaces/inkscape"
   height="64"
   viewBox="0 0 64 64"
   width="64"
   version="1.1"
   id="svg41"
   sodipodi:docname="application-javascript.svg"
   inkscape:version="0.92.5 (2060ec1f9f, 2020-04-08)">
  <metadata
     id="metadata47">
    <rdf:RDF>
      <cc:Work
         rdf:about="">
        <dc:format>image/svg+xml</dc:format>
        <dc:type
           rdf:resource="http://purl.org/dc/dcmitype/StillImage" />
      </cc:Work>
    </rdf:RDF>
  </metadata>
  <defs
     id="defs45" />
  <sodipodi:namedview
     pagecolor="#ffffff"
     bordercolor="#666666"
     borderopacity="1"
     objecttolerance="10"
     gridtolerance="10"
     guidetolerance="10"
     inkscape:pageopacity="0"
     inkscape:pageshadow="2"
     inkscape:window-width="1920"
     inkscape:window-height="934"
     id="namedview43"
     showgrid="false"
     inkscape:zoom="3.6875"
     inkscape:cx="3.9322034"
     inkscape:cy="32"
     inkscape:window-x="0"
     inkscape:window-y="35"
     inkscape:window-maximized="1"
     inkscape:current-layer="svg41" />
  <linearGradient
     id="a"
     gradientTransform="matrix(1.0749904,0,0,0.85722647,113.08072,8.616614)"
     gradientUnits="userSpaceOnUse"
     x1="-74.929466"
     x2="-75.259552"
     y1="52.199436"
     y2="2.356489">
    <stop
       offset="0"
       stop-color="#ffa400"
       id="stop2" />
    <stop
       offset="1"
       stop-color="#fd0"
       id="stop4" />
  </linearGradient>
  <rect
     style="fill:url(#a);stroke-width:0.85258442"
     id="rect7"
     y="10"
     x="10"
     width="44"
     ry="2.082083"
     height="44" />
  <g
     style="fill-opacity:0.58823494"
     id="g37"
     transform="translate(56.391765,2.8651645)">
    <path
       style="fill-opacity:0.58823494"
       inkscape:connector-curvature="0"
       id="path33"
       d="m -28.187435,21.910658 h 1.915201 v 10.230943 q 0,2.073974 -1.250339,3.244926 -1.240415,1.170952 -3.314389,1.170952 -2.15336,0 -3.354082,-1.101489 -1.200722,-1.101488 -1.200722,-3.086152 h 1.905278 q 0,1.240415 0.674786,1.935047 0.684709,0.694633 1.97474,0.694633 1.180875,0 1.905278,-0.744249 0.734325,-0.744249 0.744249,-2.083898 z" />
    <path
       style="fill-opacity:0.58823494"
       inkscape:connector-curvature="0"
       id="path35"
       d="m -18.750358,29.918778 q -2.45106,-0.704556 -3.572395,-1.726658 -1.111412,-1.032025 -1.111412,-2.54037 0,-1.706811 1.359495,-2.818223 1.369418,-1.121335 3.552548,-1.121335 1.488498,0 2.649527,0.575552 1.170952,0.575553 1.806044,1.587732 0.645016,1.012178 0.645016,2.2129 h -1.915201 q 0,-1.309878 -0.833559,-2.054127 -0.833559,-0.754173 -2.351827,-0.754173 -1.409111,0 -2.202977,0.62517 -0.783942,0.615246 -0.783942,1.716734 0,0.883176 0.744249,1.498421 0.754172,0.605323 2.550293,1.111412 1.806045,0.50609 2.818223,1.121335 1.022102,0.605323 1.508345,1.419035 0.496166,0.813713 0.496166,1.915201 0,1.756428 -1.369418,2.818223 -1.369418,1.051872 -3.661705,1.051872 -1.488499,0 -2.77853,-0.565629 -1.290032,-0.575553 -1.994588,-1.567885 -0.694632,-0.992332 -0.694632,-2.252594 h 1.915201 q 0,1.309879 0.962562,2.073974 0.972485,0.754173 2.589987,0.754173 1.508344,0 2.312133,-0.615246 0.803789,-0.615246 0.803789,-1.677041 0,-1.061796 -0.744249,-1.637348 -0.744249,-0.585476 -2.699143,-1.151105 z" />
  </g>
</svg>
