<?xml version="1.0" encoding="UTF-8" standalone="no"?>
<svg
   xmlns:dc="http://purl.org/dc/elements/1.1/"
   xmlns:cc="http://creativecommons.org/ns#"
   xmlns:rdf="http://www.w3.org/1999/02/22-rdf-syntax-ns#"
   xmlns:svg="http://www.w3.org/2000/svg"
   xmlns="http://www.w3.org/2000/svg"
   xmlns:sodipodi="http://sodipodi.sourceforge.net/DTD/sodipodi-0.dtd"
   xmlns:inkscape="http://www.inkscape.org/namespaces/inkscape"
   height="64"
   viewBox="0 0 64 64"
   width="64"
   version="1.1"
   id="svg25"
   sodipodi:docname="application-vnd.google-earth.kml.svg"
   inkscape:version="0.92.5 (2060ec1f9f, 2020-04-08)">
  <metadata
     id="metadata31">
    <rdf:RDF>
      <cc:Work
         rdf:about="">
        <dc:format>image/svg+xml</dc:format>
        <dc:type
           rdf:resource="http://purl.org/dc/dcmitype/StillImage" />
      </cc:Work>
    </rdf:RDF>
  </metadata>
  <defs
     id="defs29" />
  <sodipodi:namedview
     pagecolor="#ffffff"
     bordercolor="#666666"
     borderopacity="1"
     objecttolerance="10"
     gridtolerance="10"
     guidetolerance="10"
     inkscape:pageopacity="0"
     inkscape:pageshadow="2"
     inkscape:window-width="1920"
     inkscape:window-height="915"
     id="namedview27"
     showgrid="false"
     inkscape:zoom="5.8152019"
     inkscape:cx="-20.465154"
     inkscape:cy="28.743227"
     inkscape:window-x="0"
     inkscape:window-y="35"
     inkscape:window-maximized="1"
     inkscape:current-layer="svg25" />
  <linearGradient
     id="a"
     gradientTransform="matrix(1.0749904,0,0,1.0715331,113.08072,2.770768)"
     gradientUnits="userSpaceOnUse"
     x1="-74.929466"
     x2="-75.259552"
     y1="52.199436"
     y2="2.356489">
    <stop
       offset="0"
       stop-color="#259ee1"
       id="stop2" />
    <stop
       offset="1"
       stop-color="#19b4fd"
       id="stop4" />
  </linearGradient>
  <rect
     height="55"
     ry="2.6026037"
     width="44"
     x="10"
     y="4.5"
     id="rect7"
     style="fill:url(#a);stroke-width:0.9532184" />
  <path
     d="M 32.44,27.116001 C 29.36,24.201 26.83,25.015 25.741,25.51 c 0.825,-0.792 1.793,-1.43 2.871,-1.87 3.058,-0.11 6.501,0.484 8.404,3.201001 0,0 2.684,4.609 3.63,2.574 0.242,0.825 0.374,1.683 0.374,2.585 0,0.33 -0.022,0.649 -0.055,0.968 -2.233,-0.253 -5.302,-2.816 -8.525,-5.852 m 7.37,9.394 c -1.034,0.406999 -2.31,1.1 -4.356,1.1 -2.068,0 -3.883,-0.825 -6.138,-1.54 -2.046,-0.649 -2.816,-1.65 -4.224,-1.65 -0.726,0 -1.089,0.726 -1.287,1.331 -0.528,-1.144 -0.825,-2.409 -0.825,-3.751 0,-0.891 0.132,-1.738 0.374,-2.552 1.386,-1.738 3.509,-2.816 6.545,-0.462 0,0 6.853,5.126 10.769,5.467 -0.198,0.725999 -0.495,1.397 -0.858,2.057 m -7.81,4.51 c -1.232,0 -2.409,-0.253 -3.487,-0.704001 -0.682,-1.628 -0.671,-2.904 1.232,-2.265999 0,0 4.312,1.65 8.855,0.088 -1.65,1.771 -3.993,2.882 -6.6,2.882 M 32,21 A 11,11 0 0 0 21,32 11,11 0 0 0 32,43 11,11 0 0 0 43,32 C 43,25.916999 38.05,21 32,21 Z"
     id="path11"
     inkscape:connector-curvature="0"
     style="fill:#104563;stroke-width:1.10000002" />
  <g
     fill="#fff"
     transform="matrix(.74035987 0 0 .74035987 52.211822 27.83816)"
     id="g23" />
</svg>
