<?xml version="1.0" encoding="UTF-8" standalone="no"?>
<svg
   xmlns:dc="http://purl.org/dc/elements/1.1/"
   xmlns:cc="http://creativecommons.org/ns#"
   xmlns:rdf="http://www.w3.org/1999/02/22-rdf-syntax-ns#"
   xmlns:svg="http://www.w3.org/2000/svg"
   xmlns="http://www.w3.org/2000/svg"
   xmlns:sodipodi="http://sodipodi.sourceforge.net/DTD/sodipodi-0.dtd"
   xmlns:inkscape="http://www.inkscape.org/namespaces/inkscape"
   height="64"
   viewBox="0 0 64 64"
   width="64"
   version="1.1"
   id="svg17"
   sodipodi:docname="application-users.svg"
   inkscape:version="0.92.5 (2060ec1f9f, 2020-04-08)">
  <metadata
     id="metadata23">
    <rdf:RDF>
      <cc:Work
         rdf:about="">
        <dc:format>image/svg+xml</dc:format>
        <dc:type
           rdf:resource="http://purl.org/dc/dcmitype/StillImage" />
      </cc:Work>
    </rdf:RDF>
  </metadata>
  <defs
     id="defs21" />
  <sodipodi:namedview
     pagecolor="#ffffff"
     bordercolor="#666666"
     borderopacity="1"
     objecttolerance="10"
     gridtolerance="10"
     guidetolerance="10"
     inkscape:pageopacity="0"
     inkscape:pageshadow="2"
     inkscape:window-width="1920"
     inkscape:window-height="915"
     id="namedview19"
     showgrid="false"
     inkscape:zoom="3.6875"
     inkscape:cx="3.9322034"
     inkscape:cy="32"
     inkscape:window-x="0"
     inkscape:window-y="35"
     inkscape:window-maximized="1"
     inkscape:current-layer="g15" />
  <linearGradient
     id="a"
     gradientTransform="matrix(1.0749904,0,0,1.0292896,56.688954,4.0998616)"
     gradientUnits="userSpaceOnUse"
     x1="-74.929466"
     x2="-75.259552"
     y1="52.199436"
     y2="2.356489">
    <stop
       offset="0"
       stop-color="#197cf1"
       id="stop2" />
    <stop
       offset="1"
       stop-color="#20bcfa"
       id="stop4" />
  </linearGradient>
  <g
     transform="translate(56.391766 -.176777)"
     id="g15">
    <rect
       height="52.831711"
       ry="2.5"
       width="44"
       x="-46.391766"
       y="5.7609215"
       id="rect9"
       style="fill:url(#a)" />
    <path
       d="m -24.390842,30.526977 c 2.582333,0 4.675323,-2.093381 4.675323,-4.675298 0,-2.581918 -2.093401,-4.674902 -4.675323,-4.674902 -2.581901,0 -4.676063,2.093383 -4.676063,4.6753 0,2.581916 2.094162,4.6749 4.676063,4.6749 z m 1.983182,0.318662 h -3.967144 c -3.300788,0 -5.986147,2.68575 -5.986147,5.986545 v 4.851537 l 0.01233,0.07599 0.334175,0.10463 c 3.150039,0.984231 5.886717,1.312441 8.139211,1.312441 4.399598,0 6.949705,-1.254358 7.106845,-1.334322 l 0.312308,-0.157939 h 0.0335 v -4.852333 c 0.0012,-3.300795 -2.684147,-5.986545 -5.984955,-5.986545 z"
       id="path13"
       inkscape:connector-curvature="0"
       style="fill:#0c3e6a;stroke-width:2.05519533" />
  </g>
</svg>
