<?xml version="1.0" encoding="UTF-8" standalone="no"?>
<svg
   xmlns:dc="http://purl.org/dc/elements/1.1/"
   xmlns:cc="http://creativecommons.org/ns#"
   xmlns:rdf="http://www.w3.org/1999/02/22-rdf-syntax-ns#"
   xmlns:svg="http://www.w3.org/2000/svg"
   xmlns="http://www.w3.org/2000/svg"
   xmlns:sodipodi="http://sodipodi.sourceforge.net/DTD/sodipodi-0.dtd"
   xmlns:inkscape="http://www.inkscape.org/namespaces/inkscape"
   height="64"
   viewBox="0 0 64 64"
   width="64"
   version="1.1"
   id="svg35"
   sodipodi:docname="application-vnd.oasis.opendocument.formula.svg"
   inkscape:version="0.92.5 (2060ec1f9f, 2020-04-08)">
  <metadata
     id="metadata41">
    <rdf:RDF>
      <cc:Work
         rdf:about="">
        <dc:format>image/svg+xml</dc:format>
        <dc:type
           rdf:resource="http://purl.org/dc/dcmitype/StillImage" />
      </cc:Work>
    </rdf:RDF>
  </metadata>
  <defs
     id="defs39" />
  <sodipodi:namedview
     pagecolor="#ffffff"
     bordercolor="#666666"
     borderopacity="1"
     objecttolerance="10"
     gridtolerance="10"
     guidetolerance="10"
     inkscape:pageopacity="0"
     inkscape:pageshadow="2"
     inkscape:window-width="722"
     inkscape:window-height="480"
     id="namedview37"
     showgrid="false"
     inkscape:zoom="3.6875"
     inkscape:cx="3.9322034"
     inkscape:cy="32"
     inkscape:window-x="0"
     inkscape:window-y="35"
     inkscape:window-maximized="0"
     inkscape:current-layer="g33" />
  <linearGradient
     id="a"
     gradientTransform="matrix(1.0749904,0,0,1.0292896,56.688954,4.0998616)"
     gradientUnits="userSpaceOnUse"
     x1="-74.929466"
     x2="-75.259552"
     y1="52.199436"
     y2="2.356489">
    <stop
       offset="0"
       stop-color="#9154ae"
       id="stop2" />
    <stop
       offset="1"
       stop-color="#ba8bcf"
       id="stop4" />
  </linearGradient>
  <g
     transform="translate(56.391766 -.176777)"
     id="g33">
    <rect
       height="52.831711"
       ry="2.5"
       width="44"
       x="-46.391766"
       y="5.7609215"
       id="rect9"
       style="fill:url(#a)" />
    <g
       transform="matrix(0.86557709,0,0,0.86557709,-43.839835,-854.86755)"
       id="g29">
      <path
         d="m 11.447345,1036.9442 h 11.636697 l -3.21e-4,-24.4983 -11.533282,3e-4 c -1.268259,-0.094 -1.7825661,0.023 -1.7825661,1.1721 v 22.0916 c -0.07966,1.261 0.4462081,1.2343 1.6794721,1.2343 z"
         id="path23"
         inkscape:connector-curvature="0"
         style="fill:#41274d;fill-rule:evenodd" />
      <path
         d="m 33.843953,1036.9367 h -5.282394 l -2.708421,-2.2737 v -19.9506 l 1.855796,-2.2737 h 6.135019 c 0.848365,-0.094 0.916631,0.023 0.916631,1.1721 v 22.0916 c 0.05328,1.261 -0.09168,1.2343 -0.916631,1.2343 z"
         id="path25"
         inkscape:connector-curvature="0"
         style="fill:none;stroke:#41274d;stroke-width:0.81170797" />
      <path
         d="m 31.841628,1038.1035 -10.029586,-1.1715 -2e-5,-24.4861 9.945926,-0.9324 c 1.230149,-0.094 1.296492,0.2446 1.296492,1.3937 l -0.08368,23.3688 c 0.07726,1.261 0.06707,1.8275 -1.129132,1.8275 z"
         id="path27"
         inkscape:connector-curvature="0"
         style="fill:#41274d;fill-rule:evenodd" />
    </g>
    <path
       d="m -18.395854,26.522843 -6.961824,0.0037 -3.865043,6.693272 -1.352923,-2.34553 h -0.0037 -1.740453 v 0.870224 h 1.24245 l 1.856031,3.214066 0.501403,-0.86853 3.866737,-6.696672 h 5.586805 v 0.870223 h 0.870224 v -1.740453 z m -4.351142,2.614089 c -1.446318,0 -2.610682,1.164364 -2.610682,2.610682 0,1.446319 1.164364,2.610683 2.610682,2.610683 0.672952,0 1.278482,-0.259497 1.74046,-0.674774 v 0.674774 h 0.870229 v -2.610683 -2.610682 h -0.870229 v 0.674767 c -0.461978,-0.415276 -1.067508,-0.674767 -1.74046,-0.674767 z m 0,0.870229 c 0.964213,0 1.74046,0.776241 1.74046,1.740453 0,0.964213 -0.776247,1.74046 -1.74046,1.74046 -0.964212,0 -1.740453,-0.776247 -1.740453,-1.74046 0,-0.964212 0.776241,-1.740453 1.740453,-1.740453 z m -9.564008,5.212867 c -0.0055,0 -0.0087,0.194062 -0.0087,0.435112 0,0.241056 0.0037,0.435111 0.0087,0.435111 h 13.906658 c 0.0055,0 0.0087,-0.194055 0.0087,-0.435111 0,-0.24105 -0.0037,-0.435112 -0.0087,-0.435112 h -13.906646 z m 6.091601,1.740453 c -0.0055,0 -0.0087,0.194074 -0.0087,0.435118 0,0.241044 0.0037,0.435112 0.0087,0.435112 h 1.723462 c 0.0055,0 0.0087,-0.194068 0.0087,-0.435112 0,-0.241044 -0.0037,-0.435118 -0.0087,-0.435118 h -1.723456 z"
       id="path31"
       inkscape:connector-curvature="0"
       style="fill:#a670bf;stroke-width:0.61142975" />
  </g>
</svg>
