<?xml version="1.0" encoding="UTF-8" standalone="no"?>
<svg
   xmlns:dc="http://purl.org/dc/elements/1.1/"
   xmlns:cc="http://creativecommons.org/ns#"
   xmlns:rdf="http://www.w3.org/1999/02/22-rdf-syntax-ns#"
   xmlns:svg="http://www.w3.org/2000/svg"
   xmlns="http://www.w3.org/2000/svg"
   xmlns:sodipodi="http://sodipodi.sourceforge.net/DTD/sodipodi-0.dtd"
   xmlns:inkscape="http://www.inkscape.org/namespaces/inkscape"
   height="64"
   viewBox="0 0 64 64"
   width="64"
   version="1.1"
   id="svg27"
   sodipodi:docname="application-executable.svg"
   inkscape:version="0.92.5 (2060ec1f9f, 2020-04-08)">
  <metadata
     id="metadata33">
    <rdf:RDF>
      <cc:Work
         rdf:about="">
        <dc:format>image/svg+xml</dc:format>
        <dc:type
           rdf:resource="http://purl.org/dc/dcmitype/StillImage" />
      </cc:Work>
    </rdf:RDF>
  </metadata>
  <defs
     id="defs31" />
  <sodipodi:namedview
     pagecolor="#ffffff"
     bordercolor="#666666"
     borderopacity="1"
     objecttolerance="10"
     gridtolerance="10"
     guidetolerance="10"
     inkscape:pageopacity="0"
     inkscape:pageshadow="2"
     inkscape:window-width="1920"
     inkscape:window-height="934"
     id="namedview29"
     showgrid="false"
     inkscape:zoom="3.6875"
     inkscape:cx="32"
     inkscape:cy="32"
     inkscape:window-x="0"
     inkscape:window-y="35"
     inkscape:window-maximized="1"
     inkscape:current-layer="svg27" />
  <linearGradient
     id="a"
     gradientTransform="matrix(1.0749904,0,0,0.8572265,113.08072,8.6166142)"
     gradientUnits="userSpaceOnUse"
     x1="-74.929466"
     x2="-75.259552"
     y1="52.199436"
     y2="2.356489">
    <stop
       offset="0"
       stop-color="#8798a9"
       id="stop2" />
    <stop
       offset="1"
       stop-color="#aeb6be"
       id="stop4" />
  </linearGradient>
  <rect
     style="fill:url(#a);stroke-width:0.91259694"
     id="rect9"
     y="10"
     x="10"
     width="44"
     ry="2.082083"
     height="44" />
  <rect
     style="fill:#373e44"
     id="rect21"
     y="23.699665"
     x="21"
     width="22"
     ry="0.78120828"
     height="16.600672" />
  <path
     style="fill:#9ba8b4;stroke-width:0.0668181"
     inkscape:connector-curvature="0"
     id="path23"
     d="m 34.471502,31.510023 -3.549311,-3.543965 c -0.130696,-0.137913 -0.293933,-0.206869 -0.489977,-0.206869 -0.196044,0 -0.359281,0.06902 -0.489977,0.206869 l -0.413738,0.408325 c -0.134304,0.134305 -0.201456,0.297541 -0.201456,0.489911 0,0.188694 0.06715,0.353868 0.201456,0.495389 L 32.174229,32 29.528432,34.64573 c -0.134304,0.134304 -0.201456,0.297608 -0.201456,0.489977 0,0.188694 0.06715,0.353869 0.201456,0.495389 l 0.413738,0.408259 c 0.134305,0.134304 0.297675,0.201456 0.489977,0.201456 0.19237,0 0.35574,-0.06715 0.489977,-0.201456 L 34.471502,32.49539 C 34.605806,32.353869 34.673025,32.188695 34.673025,32 c 0,-0.192369 -0.06722,-0.355672 -0.201523,-0.489977 z" />
</svg>
