<?xml version="1.0" encoding="UTF-8" standalone="no"?>
<svg
   xmlns:dc="http://purl.org/dc/elements/1.1/"
   xmlns:cc="http://creativecommons.org/ns#"
   xmlns:rdf="http://www.w3.org/1999/02/22-rdf-syntax-ns#"
   xmlns:svg="http://www.w3.org/2000/svg"
   xmlns="http://www.w3.org/2000/svg"
   xmlns:sodipodi="http://sodipodi.sourceforge.net/DTD/sodipodi-0.dtd"
   xmlns:inkscape="http://www.inkscape.org/namespaces/inkscape"
   height="64"
   viewBox="0 0 64 64"
   width="64"
   version="1.1"
   id="svg17"
   sodipodi:docname="application-document-template.svg"
   inkscape:version="0.92.5 (2060ec1f9f, 2020-04-08)">
  <metadata
     id="metadata23">
    <rdf:RDF>
      <cc:Work
         rdf:about="">
        <dc:format>image/svg+xml</dc:format>
        <dc:type
           rdf:resource="http://purl.org/dc/dcmitype/StillImage" />
      </cc:Work>
    </rdf:RDF>
  </metadata>
  <defs
     id="defs21" />
  <sodipodi:namedview
     pagecolor="#ffffff"
     bordercolor="#666666"
     borderopacity="1"
     objecttolerance="10"
     gridtolerance="10"
     guidetolerance="10"
     inkscape:pageopacity="0"
     inkscape:pageshadow="2"
     inkscape:window-width="1920"
     inkscape:window-height="934"
     id="namedview19"
     showgrid="false"
     inkscape:zoom="3.6875"
     inkscape:cx="32"
     inkscape:cy="32"
     inkscape:window-x="0"
     inkscape:window-y="35"
     inkscape:window-maximized="1"
     inkscape:current-layer="svg17" />
  <linearGradient
     id="a"
     gradientTransform="matrix(1.0749904,0,0,0.8572265,113.08072,8.6166142)"
     gradientUnits="userSpaceOnUse"
     x1="-74.929466"
     x2="-75.259552"
     y1="52.199436"
     y2="2.356489">
    <stop
       offset="0"
       stop-color="#d1d7df"
       id="stop2" />
    <stop
       offset="1"
       stop-color="#e0e5e7"
       id="stop4" />
  </linearGradient>
  <rect
     style="fill:url(#a);stroke-width:0.91259694"
     id="rect9"
     y="10"
     x="10"
     width="44"
     ry="2.082083"
     height="44" />
  <path
     style="fill:#3d434a;stroke-width:1.56935012"
     inkscape:connector-curvature="0"
     id="path13"
     d="m 31.805409,22.96349 -8.242431,10.549824 c -1.545462,1.978092 -1.112816,5.501647 0.865262,7.04711 1.978109,1.545447 5.50165,1.112817 7.047113,-0.865275 l 8.242431,-10.54984 1.030282,-1.318728 c 1.030314,-1.318728 0.741893,-3.667759 -0.576826,-4.698062 -1.318734,-1.030303 -3.667766,-0.741894 -4.698064,0.576849 l -1.030314,1.318728 -6.181819,7.912369 -1.030298,1.318728 c -0.515165,0.659364 -0.370939,1.833887 0.28842,2.349047 0.65936,0.515128 1.833884,0.370939 2.349033,-0.288425 l 7.212117,-9.231112 1.318734,1.030303 -7.212117,9.231096 c -1.030314,1.318744 -3.379346,1.607169 -4.698065,0.57685 -1.318734,-1.030303 -1.60717,-3.379335 -0.576872,-4.698063 l 1.030314,-1.318728 7.212133,-9.231096 c 1.545447,-1.978108 5.068987,-2.410721 7.047096,-0.865274 1.978094,1.545447 2.410741,5.069002 0.865278,7.047094 l -1.030298,1.318743 -8.242431,10.549809 c -2.060628,2.637472 -6.758692,3.214321 -9.396145,1.153715 -2.637453,-2.060623 -3.21431,-6.758669 -1.153698,-9.396141 l 8.242431,-10.549825 z" />
</svg>
