<?xml version="1.0" encoding="UTF-8" standalone="no"?>
<svg
   xmlns:dc="http://purl.org/dc/elements/1.1/"
   xmlns:cc="http://creativecommons.org/ns#"
   xmlns:rdf="http://www.w3.org/1999/02/22-rdf-syntax-ns#"
   xmlns:svg="http://www.w3.org/2000/svg"
   xmlns="http://www.w3.org/2000/svg"
   xmlns:sodipodi="http://sodipodi.sourceforge.net/DTD/sodipodi-0.dtd"
   xmlns:inkscape="http://www.inkscape.org/namespaces/inkscape"
   height="64"
   viewBox="0 0 64 64"
   width="64"
   version="1.1"
   id="svg47"
   sodipodi:docname="application-vnd.oasis.opendocument.image.svg"
   inkscape:version="0.92.5 (2060ec1f9f, 2020-04-08)">
  <metadata
     id="metadata53">
    <rdf:RDF>
      <cc:Work
         rdf:about="">
        <dc:format>image/svg+xml</dc:format>
        <dc:type
           rdf:resource="http://purl.org/dc/dcmitype/StillImage" />
      </cc:Work>
    </rdf:RDF>
  </metadata>
  <defs
     id="defs51" />
  <sodipodi:namedview
     pagecolor="#ffffff"
     bordercolor="#666666"
     borderopacity="1"
     objecttolerance="10"
     gridtolerance="10"
     guidetolerance="10"
     inkscape:pageopacity="0"
     inkscape:pageshadow="2"
     inkscape:window-width="722"
     inkscape:window-height="480"
     id="namedview49"
     showgrid="false"
     inkscape:zoom="3.6875"
     inkscape:cx="3.9322034"
     inkscape:cy="32"
     inkscape:window-x="0"
     inkscape:window-y="35"
     inkscape:window-maximized="0"
     inkscape:current-layer="g45" />
  <linearGradient
     id="a"
     gradientTransform="matrix(1.0749904,0,0,1.0292896,56.688954,4.0998616)"
     gradientUnits="userSpaceOnUse"
     x1="-74.929466"
     x2="-75.259552"
     y1="52.199436"
     y2="2.356489">
    <stop
       offset="0"
       stop-color="#197cf1"
       id="stop2" />
    <stop
       offset="1"
       stop-color="#20bcfa"
       id="stop4" />
  </linearGradient>
  <g
     transform="translate(56.391766 -.176777)"
     id="g45">
    <rect
       height="52.831711"
       ry="2.5"
       width="44"
       x="-46.391766"
       y="5.7609215"
       id="rect9"
       style="fill:url(#a)" />
    <g
       transform="matrix(0.28177325,-0.04866765,0.04866765,0.28177325,-213.80129,-67.240424)"
       id="g43">
      <rect
         height="58.986568"
         ry="2.3"
         transform="matrix(0.89537973,0.14886638,-0.14886638,0.89537973,181.38928,-47.050156)"
         width="76.809471"
         x="504.25668"
         y="426.46411"
         id="rect25"
         style="fill:#0b3969" />
      <g
         transform="matrix(0.90765278,-0.0056985,0.0056985,0.90765278,95.981015,47.52327)"
         id="g33">
        <rect
           height="58.986568"
           ry="2.3"
           width="76.809471"
           x="504.25668"
           y="426.46411"
           id="rect27"
           style="fill:#1da1f6;stroke:#0b3969;stroke-width:1.90315104;stroke-linecap:round;stroke-linejoin:round" />
        <path
           d="m 504.2304,479.41184 14.55149,-4.65732 4.59402,3.09494 10.68866,-3.70865 10.51696,3.49583 7.58063,1.61197 5.83015,-2.02302 7.18039,-1.82153 11.56837,4.36341 -0.0451,5.71285 -69.41559,0.56851 c 0,0 -3.10616,0.57841 -3.08552,-2.07338 z"
           id="path29"
           inkscape:connector-curvature="0"
           style="fill:#0b3969;fill-rule:evenodd" />
        <circle
           cx="521.2431"
           cy="443.27579"
           r="7.5944862"
           id="circle31"
           style="fill:#0b3969" />
      </g>
      <circle
         cx="610.99548"
         cy="479.66388"
         r="19.134081"
         id="circle35"
         style="fill:#1da1f6;stroke:#0b3969;stroke-width:2;stroke-linecap:round;stroke-linejoin:round" />
      <path
         d="m 598.67943,493.65621 11.44601,-23.18859 c 5.60266,5.88152 18.98364,10.6085 18.98364,10.6085 l 1.39585,2.23337 c -7.31195,19.73788 -19.37,17.06139 -31.8255,10.34672 z"
         id="path37"
         inkscape:connector-curvature="0"
         style="fill:#0b3969;fill-rule:evenodd" />
      <path
         d="m 600.64547,495.6202 3.71848,-4.56822 3.76154,1.7885 3.2785,-4.84896 12.61021,4.76417 c -4.44546,7.04228 -11.85513,8.97599 -23.36873,2.86451 z"
         id="path39"
         inkscape:connector-curvature="0"
         style="fill:#1da1f6;fill-rule:evenodd" />
      <circle
         cx="610.91852"
         cy="479.44278"
         r="19.134081"
         id="circle41"
         style="fill:none;stroke:#0b3969;stroke-width:2;stroke-linecap:round;stroke-linejoin:round" />
    </g>
  </g>
</svg>
