<?xml version="1.0" encoding="UTF-8" standalone="no"?>
<svg
   xmlns:dc="http://purl.org/dc/elements/1.1/"
   xmlns:cc="http://creativecommons.org/ns#"
   xmlns:rdf="http://www.w3.org/1999/02/22-rdf-syntax-ns#"
   xmlns:svg="http://www.w3.org/2000/svg"
   xmlns="http://www.w3.org/2000/svg"
   xmlns:sodipodi="http://sodipodi.sourceforge.net/DTD/sodipodi-0.dtd"
   xmlns:inkscape="http://www.inkscape.org/namespaces/inkscape"
   height="64"
   viewBox="0 0 64 64"
   width="64"
   version="1.1"
   id="svg29"
   sodipodi:docname="application-video.svg"
   inkscape:version="0.92.5 (2060ec1f9f, 2020-04-08)">
  <metadata
     id="metadata35">
    <rdf:RDF>
      <cc:Work
         rdf:about="">
        <dc:format>image/svg+xml</dc:format>
        <dc:type
           rdf:resource="http://purl.org/dc/dcmitype/StillImage" />
      </cc:Work>
    </rdf:RDF>
  </metadata>
  <defs
     id="defs33" />
  <sodipodi:namedview
     pagecolor="#ffffff"
     bordercolor="#666666"
     borderopacity="1"
     objecttolerance="10"
     gridtolerance="10"
     guidetolerance="10"
     inkscape:pageopacity="0"
     inkscape:pageshadow="2"
     inkscape:window-width="1920"
     inkscape:window-height="915"
     id="namedview31"
     showgrid="false"
     inkscape:zoom="3.6875"
     inkscape:cx="3.9322034"
     inkscape:cy="32"
     inkscape:window-x="0"
     inkscape:window-y="35"
     inkscape:window-maximized="1"
     inkscape:current-layer="g27" />
  <linearGradient
     id="a"
     gradientTransform="matrix(1.0749904,0,0,1.0292896,56.688954,4.0998616)"
     gradientUnits="userSpaceOnUse"
     x1="-74.929466"
     x2="-75.259552"
     y1="52.199436"
     y2="2.356489">
    <stop
       offset="0"
       stop-color="#1b92f4"
       id="stop2" />
    <stop
       offset="1"
       stop-color="#20b9fa"
       id="stop4" />
  </linearGradient>
  <g
     transform="translate(56.391766 -.176777)"
     id="g27">
    <rect
       height="52.831711"
       ry="2.5"
       width="44"
       x="-46.391766"
       y="5.7609215"
       id="rect9"
       style="fill:url(#a)" />
    <path
       d="m -14.323287,21.176777 h -1.088619 c -0.258529,0 -0.468084,0.209575 -0.468084,0.468084 v 0.582544 c 0,0.258489 -0.209566,0.468074 -0.468094,0.468074 h -1.01504 c -0.258509,0 -0.468085,-0.209585 -0.468085,-0.468074 v -0.582544 c 0,-0.258509 -0.209525,-0.468084 -0.468084,-0.468084 H -30.52086 c -0.258528,0 -0.468084,0.209575 -0.468084,0.468084 v 0.582544 c 0,0.258489 -0.209565,0.468074 -0.468074,0.468074 h -1.01506 c -0.258509,0 -0.468084,-0.209585 -0.468084,-0.468074 v -0.582544 c 0,-0.258509 -0.209546,-0.468084 -0.468075,-0.468084 h -1.052017 c -0.258539,0 -0.468085,0.209575 -0.468085,0.468084 v 21.063832 c 0,0.258538 0.209546,0.468084 0.468085,0.468084 h 1.052017 c 0.258529,0 0.468075,-0.209546 0.468075,-0.468084 v -0.427949 c 0,-0.258509 0.209575,-0.468074 0.468084,-0.468074 h 1.01506 c 0.258509,0 0.468074,0.209565 0.468074,0.468074 v 0.427949 c 0,0.258538 0.209556,0.468084 0.468084,0.468084 h 12.221567 c 0.258559,0 0.468084,-0.209546 0.468084,-0.468084 v -0.427949 c 0,-0.258509 0.209576,-0.468074 0.468085,-0.468074 h 1.01504 c 0.258528,0 0.468094,0.209565 0.468094,0.468074 v 0.427949 c 0,0.258538 0.209555,0.468084 0.468084,0.468084 h 1.088619 c 0.258528,0 0.468094,-0.209546 0.468094,-0.468084 V 21.644861 c 0,-0.258489 -0.209566,-0.468084 -0.468094,-0.468084 z m -16.665657,17.912911 c 0,0.258509 -0.209565,0.468075 -0.468074,0.468075 h -1.01506 c -0.258509,0 -0.468084,-0.209566 -0.468084,-0.468075 v -1.015069 c 0,-0.258489 0.209575,-0.468074 0.468084,-0.468074 h 1.01506 c 0.258509,0 0.468074,0.209585 0.468074,0.468074 z m 0,-4.206125 c 0,0.258489 -0.209565,0.468074 -0.468074,0.468074 h -1.01506 c -0.258509,0 -0.468084,-0.209585 -0.468084,-0.468074 v -1.015079 c 0,-0.258489 0.209575,-0.468085 0.468084,-0.468085 h 1.01506 c 0.258509,0 0.468074,0.209596 0.468074,0.468085 z m 0,-4.206145 c 0,0.258529 -0.209565,0.468084 -0.468074,0.468084 h -1.01506 c -0.258509,0 -0.468084,-0.209555 -0.468084,-0.468084 v -1.01506 c 0,-0.258509 0.209575,-0.468074 0.468084,-0.468074 h 1.01506 c 0.258509,0 0.468074,0.209565 0.468074,0.468074 z m 0,-4.206116 c 0,0.258509 -0.209565,0.468075 -0.468074,0.468075 h -1.01506 c -0.258509,0 -0.468084,-0.209566 -0.468084,-0.468075 v -1.015039 c 0,-0.258519 0.209575,-0.468104 0.468084,-0.468104 h 1.01506 c 0.258509,0 0.468074,0.209585 0.468074,0.468104 z m 11.133753,14.230874 c 0,0.258549 -0.209546,0.468084 -0.468075,0.468084 h -8.13701 c -0.258529,0 -0.468084,-0.209535 -0.468084,-0.468084 v -3.761584 c 0,-0.258509 0.209555,-0.468074 0.468084,-0.468074 h 8.13701 c 0.258529,0 0.468075,0.209565 0.468075,0.468074 z m 0,-6.644592 c 0,0.258509 -0.209546,0.468074 -0.468075,0.468074 h -8.13701 c -0.258529,0 -0.468084,-0.209565 -0.468084,-0.468074 V 30.296 c 0,-0.258519 0.209555,-0.468085 0.468084,-0.468085 h 8.13701 c 0.258529,0 0.468075,0.209566 0.468075,0.468085 z m 0,-6.644642 c 0,0.258529 -0.209546,0.468075 -0.468075,0.468075 h -8.13701 c -0.258529,0 -0.468084,-0.209546 -0.468084,-0.468075 v -3.761584 c 0,-0.258489 0.209555,-0.468084 0.468084,-0.468084 h 8.13701 c 0.258529,0 0.468075,0.209595 0.468075,0.468084 z m 3.975221,11.676746 c 0,0.258509 -0.209566,0.468075 -0.468075,0.468075 h -1.015059 c -0.258509,0 -0.468085,-0.209566 -0.468085,-0.468075 v -1.015069 c 0,-0.258489 0.209576,-0.468074 0.468085,-0.468074 h 1.015059 c 0.258509,0 0.468075,0.209585 0.468075,0.468074 z m 0,-4.206125 c 0,0.258489 -0.209566,0.468074 -0.468075,0.468074 h -1.015059 c -0.258509,0 -0.468085,-0.209585 -0.468085,-0.468074 v -1.015079 c 0,-0.258489 0.209576,-0.468085 0.468085,-0.468085 h 1.015059 c 0.258509,0 0.468075,0.209596 0.468075,0.468085 z m 0,-4.206145 c 0,0.258529 -0.209566,0.468084 -0.468075,0.468084 h -1.015059 c -0.258509,0 -0.468085,-0.209555 -0.468085,-0.468084 v -1.01506 c 0,-0.258509 0.209576,-0.468074 0.468085,-0.468074 h 1.015059 c 0.258509,0 0.468075,0.209565 0.468075,0.468074 z m 0,-4.206116 c 0,0.258509 -0.209566,0.468075 -0.468075,0.468075 h -1.015059 c -0.258509,0 -0.468085,-0.209566 -0.468085,-0.468075 v -1.015039 c 0,-0.258519 0.209576,-0.468104 0.468085,-0.468104 h 1.015059 c 0.258509,0 0.468075,0.209585 0.468075,0.468104 z"
       id="path25"
       inkscape:connector-curvature="0"
       style="fill:#0c426b;stroke-width:0.99296618" />
  </g>
</svg>
