<?xml version="1.0" encoding="UTF-8" standalone="no"?>
<svg
   xmlns:dc="http://purl.org/dc/elements/1.1/"
   xmlns:cc="http://creativecommons.org/ns#"
   xmlns:rdf="http://www.w3.org/1999/02/22-rdf-syntax-ns#"
   xmlns:svg="http://www.w3.org/2000/svg"
   xmlns="http://www.w3.org/2000/svg"
   xmlns:sodipodi="http://sodipodi.sourceforge.net/DTD/sodipodi-0.dtd"
   xmlns:inkscape="http://www.inkscape.org/namespaces/inkscape"
   height="64"
   viewBox="0 0 64 64"
   width="64"
   version="1.1"
   id="svg43"
   sodipodi:docname="application-vnd.oasis.opendocument.presentation.svg"
   inkscape:version="0.92.5 (2060ec1f9f, 2020-04-08)">
  <metadata
     id="metadata49">
    <rdf:RDF>
      <cc:Work
         rdf:about="">
        <dc:format>image/svg+xml</dc:format>
        <dc:type
           rdf:resource="http://purl.org/dc/dcmitype/StillImage" />
      </cc:Work>
    </rdf:RDF>
  </metadata>
  <defs
     id="defs47" />
  <sodipodi:namedview
     pagecolor="#ffffff"
     bordercolor="#666666"
     borderopacity="1"
     objecttolerance="10"
     gridtolerance="10"
     guidetolerance="10"
     inkscape:pageopacity="0"
     inkscape:pageshadow="2"
     inkscape:window-width="1920"
     inkscape:window-height="915"
     id="namedview45"
     showgrid="false"
     inkscape:zoom="3.6875"
     inkscape:cx="3.9322034"
     inkscape:cy="32"
     inkscape:window-x="0"
     inkscape:window-y="35"
     inkscape:window-maximized="1"
     inkscape:current-layer="g41" />
  <linearGradient
     id="a"
     gradientTransform="matrix(1.0749904,0,0,1.0292896,56.688954,4.0998616)"
     gradientUnits="userSpaceOnUse"
     x1="-74.929466"
     x2="-75.259552"
     y1="52.199436"
     y2="2.356489">
    <stop
       offset="0"
       stop-color="#de4921"
       id="stop2" />
    <stop
       offset="1"
       stop-color="#fe6943"
       id="stop4" />
  </linearGradient>
  <g
     transform="translate(56.391766 -.176777)"
     id="g41">
    <rect
       height="52.831711"
       ry="2.5"
       width="44"
       x="-46.391766"
       y="5.7609215"
       id="rect9"
       style="fill:url(#a)" />
    <g
       transform="matrix(0.86557709,0,0,0.86557709,-43.839835,-854.86755)"
       id="g27">
      <path
         d="m 11.447345,1036.9442 h 11.636697 l -3.21e-4,-24.4983 -11.533282,3e-4 c -1.268259,-0.094 -1.7825661,0.023 -1.7825661,1.1721 v 22.0916 c -0.07966,1.261 0.4462081,1.2343 1.6794721,1.2343 z"
         id="path21"
         inkscape:connector-curvature="0"
         style="fill:#622110;fill-rule:evenodd" />
      <path
         d="m 33.843953,1036.9367 h -5.282394 l -2.708421,-2.2737 v -19.9506 l 1.855796,-2.2737 h 6.135019 c 0.848365,-0.094 0.916631,0.023 0.916631,1.1721 v 22.0916 c 0.05328,1.261 -0.09168,1.2343 -0.916631,1.2343 z"
         id="path23"
         inkscape:connector-curvature="0"
         style="fill:none;stroke:#622110;stroke-width:0.81170797" />
      <path
         d="m 31.841628,1038.1035 -10.029586,-1.1715 -2e-5,-24.4861 9.945926,-0.9324 c 1.230149,-0.094 1.296492,0.2446 1.296492,1.3937 l -0.08368,23.3688 c 0.07726,1.261 0.06707,1.8275 -1.129132,1.8275 z"
         id="path25"
         inkscape:connector-curvature="0"
         style="fill:#622110;fill-rule:evenodd" />
    </g>
    <g
       transform="matrix(0.91832035,0,0,0.91832035,-54.149688,-919.23645)"
       id="g39"
       style="fill:#ee5932">
      <path
         d="m 27.811111,1031.7185 c 2.099214,0 3.801279,1.6989 3.801279,3.798 h -3.801279 c 7.86e-4,0 7.86e-4,-3.798 0,-3.798 z m -1.068518,1.0329 v 3.8014 h 3.801279 c 0,2.1016 -1.701278,3.8013 -3.801279,3.8013 -2.100003,0 -3.799704,-1.6997 -3.799704,-3.8013 0,-2.1 1.700489,-3.8014 3.799704,-3.8014 z"
         id="path29"
         inkscape:connector-curvature="0"
         style="fill:#ee5932" />
      <g
         id="g37"
         style="fill:#ee5932">
        <rect
           height="1.2961065"
           rx="0"
           ry="0.18129866"
           width="6.9139199"
           x="32.934799"
           y="1033.7655"
           id="rect31" />
        <rect
           height="1.2961065"
           rx="0"
           ry="0.18129866"
           width="6.9139199"
           x="32.941868"
           y="1036.0153"
           id="rect33" />
        <rect
           height="1.2961065"
           rx="0"
           ry="0.18129866"
           width="6.9139199"
           x="32.952282"
           y="1038.1034"
           id="rect35" />
      </g>
    </g>
  </g>
</svg>
