<?xml version="1.0" encoding="UTF-8" standalone="no"?>
<svg
   xmlns:dc="http://purl.org/dc/elements/1.1/"
   xmlns:cc="http://creativecommons.org/ns#"
   xmlns:rdf="http://www.w3.org/1999/02/22-rdf-syntax-ns#"
   xmlns:svg="http://www.w3.org/2000/svg"
   xmlns="http://www.w3.org/2000/svg"
   xmlns:sodipodi="http://sodipodi.sourceforge.net/DTD/sodipodi-0.dtd"
   xmlns:inkscape="http://www.inkscape.org/namespaces/inkscape"
   height="64"
   viewBox="0 0 64 64"
   width="64"
   version="1.1"
   id="svg31"
   sodipodi:docname="application-table.svg"
   inkscape:version="0.92.5 (2060ec1f9f, 2020-04-08)">
  <metadata
     id="metadata37">
    <rdf:RDF>
      <cc:Work
         rdf:about="">
        <dc:format>image/svg+xml</dc:format>
        <dc:type
           rdf:resource="http://purl.org/dc/dcmitype/StillImage" />
      </cc:Work>
    </rdf:RDF>
  </metadata>
  <defs
     id="defs35" />
  <sodipodi:namedview
     pagecolor="#ffffff"
     bordercolor="#666666"
     borderopacity="1"
     objecttolerance="10"
     gridtolerance="10"
     guidetolerance="10"
     inkscape:pageopacity="0"
     inkscape:pageshadow="2"
     inkscape:window-width="1920"
     inkscape:window-height="934"
     id="namedview33"
     showgrid="false"
     inkscape:zoom="3.6875"
     inkscape:cx="3.9322034"
     inkscape:cy="32"
     inkscape:window-x="0"
     inkscape:window-y="35"
     inkscape:window-maximized="1"
     inkscape:current-layer="g29" />
  <linearGradient
     id="a"
     gradientTransform="matrix(1.0749904,0,0,0.8572265,56.688954,8.7933912)"
     gradientUnits="userSpaceOnUse"
     x1="-74.929466"
     x2="-75.259552"
     y1="52.199436"
     y2="2.356489">
    <stop
       offset="0"
       stop-color="#32d746"
       id="stop2" />
    <stop
       offset="1"
       stop-color="#4ee27d"
       id="stop4" />
  </linearGradient>
  <g
     transform="translate(56.391766 -.176777)"
     id="g29">
    <rect
       height="44"
       ry="2.082083"
       width="44"
       x="-46.391766"
       y="10.176777"
       id="rect9"
       style="fill:url(#a);stroke-width:0.91259694" />
    <g
       transform="matrix(0.86557709,0,0,0.86557709,-43.839835,-854.86755)"
       id="g19">
      <path
         d="m 11.447345,1036.9442 h 11.636697 l -3.21e-4,-24.4983 -11.533282,3e-4 c -1.268259,-0.094 -1.7825661,0.023 -1.7825661,1.1721 v 22.0916 c -0.07966,1.261 0.4462081,1.2343 1.6794721,1.2343 z"
         id="path13"
         inkscape:connector-curvature="0"
         style="fill:#175e21;fill-rule:evenodd" />
      <path
         d="m 33.843953,1036.9367 h -5.282394 l -2.708421,-2.2737 v -19.9506 l 1.855796,-2.2737 h 6.135019 c 0.848365,-0.094 0.916631,0.023 0.916631,1.1721 v 22.0916 c 0.05328,1.261 -0.09168,1.2343 -0.916631,1.2343 z"
         id="path15"
         inkscape:connector-curvature="0"
         style="fill:none;stroke:#175e21;stroke-width:0.81170797" />
      <path
         d="m 31.841628,1038.1035 -10.029586,-1.1715 -2e-5,-24.4861 9.945926,-0.9324 c 1.230149,-0.094 1.296492,0.2446 1.296492,1.3937 l -0.08368,23.3688 c 0.07726,1.261 0.06707,1.8275 -1.129132,1.8275 z"
         id="path17"
         inkscape:connector-curvature="0"
         style="fill:#175e21;fill-rule:evenodd" />
    </g>
    <g
       transform="matrix(-7.3528e-4,-0.8933959,1.2269177,-5.354e-4,-1283.5585,30.412562)"
       id="g27"
       style="fill:#40dc61">
      <rect
         height="2.2304921"
         rx="0"
         ry="0.31200001"
         transform="matrix(0.9999997,-7.6878e-4,-3.3677e-4,0.99999994,0,0)"
         width="5.212101"
         x="-7.6616559"
         y="1021.9603"
         id="rect21" />
      <rect
         height="2.2304921"
         rx="0"
         ry="0.31200001"
         transform="matrix(0.99999996,-2.8909e-4,-1.9502e-4,0.99999998,0,0)"
         width="8.0264168"
         x="-7.7880249"
         y="1025.1064"
         id="rect23" />
      <rect
         height="2.2304921"
         rx="0"
         ry="0.31200001"
         transform="matrix(1,-5.846e-5,-5.327e-5,1,0,0)"
         width="10.840734"
         x="-7.957212"
         y="1028.3694"
         id="rect25" />
    </g>
  </g>
</svg>
