<?xml version="1.0" encoding="UTF-8" standalone="no"?>
<svg
   xmlns:dc="http://purl.org/dc/elements/1.1/"
   xmlns:cc="http://creativecommons.org/ns#"
   xmlns:rdf="http://www.w3.org/1999/02/22-rdf-syntax-ns#"
   xmlns:svg="http://www.w3.org/2000/svg"
   xmlns="http://www.w3.org/2000/svg"
   xmlns:sodipodi="http://sodipodi.sourceforge.net/DTD/sodipodi-0.dtd"
   xmlns:inkscape="http://www.inkscape.org/namespaces/inkscape"
   height="64"
   viewBox="0 0 64 64"
   width="64"
   version="1.1"
   id="svg31"
   sodipodi:docname="application-postscript.svg"
   inkscape:version="0.92.5 (2060ec1f9f, 2020-04-08)">
  <metadata
     id="metadata37">
    <rdf:RDF>
      <cc:Work
         rdf:about="">
        <dc:format>image/svg+xml</dc:format>
        <dc:type
           rdf:resource="http://purl.org/dc/dcmitype/StillImage" />
      </cc:Work>
    </rdf:RDF>
  </metadata>
  <defs
     id="defs35" />
  <sodipodi:namedview
     pagecolor="#ffffff"
     bordercolor="#666666"
     borderopacity="1"
     objecttolerance="10"
     gridtolerance="10"
     guidetolerance="10"
     inkscape:pageopacity="0"
     inkscape:pageshadow="2"
     inkscape:window-width="1920"
     inkscape:window-height="934"
     id="namedview33"
     showgrid="false"
     inkscape:zoom="3.6875"
     inkscape:cx="3.9322034"
     inkscape:cy="32"
     inkscape:window-x="0"
     inkscape:window-y="35"
     inkscape:window-maximized="1"
     inkscape:current-layer="svg31" />
  <linearGradient
     id="a"
     gradientTransform="matrix(1.0749904,0,0,0.8572265,113.08072,8.6166142)"
     gradientUnits="userSpaceOnUse"
     x1="-74.929466"
     x2="-75.259552"
     y1="52.199436"
     y2="2.356489">
    <stop
       offset="0"
       stop-color="#ff4a61"
       id="stop2" />
    <stop
       offset="1"
       stop-color="#ff6b91"
       id="stop4" />
  </linearGradient>
  <rect
     height="44"
     ry="2.082083"
     width="44"
     x="10"
     y="10"
     id="rect7"
     style="fill:url(#a);stroke-width:0.91259694" />
  <g
     transform="matrix(0.0453411,0,0,0.0453411,20.999954,20.999977)"
     id="g23"
     style="fill:#6f222d;stroke-opacity:0.8">
    <path
       d="m 121.305,30.327 h 242.604 v 60.651 h 30.327 V 30.327 C 394.236,13.595 380.674,0 363.909,0 H 121.305 C 104.574,0 90.978,13.595 90.978,30.327 v 60.651 h 30.327 z"
       id="path13"
       inkscape:connector-curvature="0" />
    <path
       d="M 454.89,121.304 H 30.328 c -16.731,0 -30.327,13.591 -30.327,30.324 v 151.629 c 0,16.764 13.595,30.327 30.327,30.327 h 60.651 v 121.302 c 0,16.764 13.595,30.326 30.327,30.326 H 363.91 c 16.765,0 30.327,-13.562 30.327,-30.326 V 333.584 h 60.653 c 16.759,0 30.322,-13.563 30.322,-30.327 V 151.628 c 0,-16.733 -13.564,-30.324 -30.322,-30.324 z M 363.909,454.886 H 121.305 v -212.28 h 242.604 z m 60.653,-242.604 c -16.764,0 -30.326,-13.564 -30.326,-30.327 0,-16.731 13.562,-30.327 30.326,-30.327 16.765,0 30.327,13.595 30.327,30.327 10e-4,16.762 -13.562,30.327 -30.327,30.327 z"
       id="path15"
       inkscape:connector-curvature="0" />
    <path
       d="m 151.629,272.92999 h 121.304 v 30.327 H 151.629 Z"
       id="path17"
       inkscape:connector-curvature="0" />
    <path
       d="m 151.629,333.58401 h 181.95799 v 30.321 H 151.629 Z"
       id="path19"
       inkscape:connector-curvature="0" />
    <path
       d="m 151.629,394.237 h 181.95799 v 30.322 H 151.629 Z"
       id="path21"
       inkscape:connector-curvature="0" />
  </g>
</svg>
