<?xml version="1.0" encoding="UTF-8" standalone="no"?>
<svg
   xmlns:dc="http://purl.org/dc/elements/1.1/"
   xmlns:cc="http://creativecommons.org/ns#"
   xmlns:rdf="http://www.w3.org/1999/02/22-rdf-syntax-ns#"
   xmlns:svg="http://www.w3.org/2000/svg"
   xmlns="http://www.w3.org/2000/svg"
   xmlns:sodipodi="http://sodipodi.sourceforge.net/DTD/sodipodi-0.dtd"
   xmlns:inkscape="http://www.inkscape.org/namespaces/inkscape"
   height="64"
   viewBox="0 0 64 64"
   width="64"
   version="1.1"
   id="svg25"
   sodipodi:docname="application-sql.svg"
   inkscape:version="0.92.5 (2060ec1f9f, 2020-04-08)">
  <metadata
     id="metadata31">
    <rdf:RDF>
      <cc:Work
         rdf:about="">
        <dc:format>image/svg+xml</dc:format>
        <dc:type
           rdf:resource="http://purl.org/dc/dcmitype/StillImage" />
      </cc:Work>
    </rdf:RDF>
  </metadata>
  <defs
     id="defs29" />
  <sodipodi:namedview
     pagecolor="#ffffff"
     bordercolor="#666666"
     borderopacity="1"
     objecttolerance="10"
     gridtolerance="10"
     guidetolerance="10"
     inkscape:pageopacity="0"
     inkscape:pageshadow="2"
     inkscape:window-width="1920"
     inkscape:window-height="934"
     id="namedview27"
     showgrid="false"
     inkscape:zoom="3.6875"
     inkscape:cx="3.9322034"
     inkscape:cy="32"
     inkscape:window-x="0"
     inkscape:window-y="35"
     inkscape:window-maximized="1"
     inkscape:current-layer="svg25" />
  <linearGradient
     id="a"
     gradientTransform="matrix(1.0749904,0,0,0.8572265,113.08072,8.6166142)"
     gradientUnits="userSpaceOnUse"
     x1="-74.929466"
     x2="-75.259552"
     y1="52.199436"
     y2="2.356489">
    <stop
       offset="0"
       stop-color="#8cbdf8"
       id="stop2" />
    <stop
       offset="1"
       stop-color="#d5e8ff"
       id="stop4" />
  </linearGradient>
  <rect
     style="fill:url(#a);stroke-width:0.91259694"
     id="rect9"
     y="10"
     x="10"
     width="44"
     ry="2.082083"
     height="44" />
  <path
     style="fill:#3f546c;stroke-width:0.07846609"
     inkscape:connector-curvature="0"
     id="path21"
     d="m 21.253262,29.465235 c 0.30233,0.320534 0.747782,0.320534 0.8942,0.320534 0.271493,0 0.607171,-0.04496 1.088168,-0.145869 0.377814,-0.07925 0.703134,-0.158266 0.990006,-0.227865 0.564328,-0.13708 0.972195,-0.236183 1.35613,-0.236183 0.216409,0 0.611251,0.09377 1.029396,0.193105 0.651034,0.154657 1.461196,0.347056 2.244837,0.347056 0.791173,0 1.623934,-0.06152 2.148637,-0.10899 0.174273,0.653309 0.588888,1.730648 1.53001,2.501813 1.279546,1.048307 2.228202,1.515965 2.267984,1.535346 0.243009,0.118484 0.535217,0.05642 0.708862,-0.150812 0.173646,-0.207072 0.184003,-0.505714 0.02503,-0.724242 -0.0053,-0.0075 -0.644756,-0.911462 -0.620196,-1.927441 0.0097,-0.404179 0.0244,-0.720868 0.03939,-0.962073 0.79698,0.234928 2.153973,0.760101 2.853969,1.748696 1.060391,1.497368 1.495407,3.802702 1.378884,4.558958 -0.121308,0.787956 -0.135824,0.787956 -0.509715,0.787956 -0.814635,0 -1.499017,0.03335 -2.269867,0.452985 -0.681871,0.371066 -1.057409,0.77705 -1.097898,0.822168 -0.15293,0.169879 -0.193654,0.412967 -0.104438,0.623334 0.08922,0.210525 0.292207,0.350273 0.520622,0.358434 0.220333,0.0082 0.887059,0.06379 1.315563,0.219312 0.227551,0.08263 0.42356,0.179295 0.613134,0.272827 0.303271,0.149635 0.589751,0.290952 0.923938,0.330421 0.108675,0.01287 0.220254,0.01915 0.32587,0.01718 0.123191,0.286165 0.332853,0.627258 0.685479,0.897887 0.269924,0.207229 0.544555,0.33505 0.786858,0.447728 0.297544,0.138492 0.532628,0.247874 0.7131,0.471659 0.472994,0.586534 0.631731,1.222502 0.633221,1.228858 0.06183,0.253994 0.284205,0.438076 0.54534,0.449924 0.009,4.71e-4 0.01812,6.28e-4 0.02715,6.28e-4 0.250385,0 0.475034,-0.157874 0.556717,-0.396725 0.0368,-0.107263 0.346977,-1.090364 -0.06583,-2.529354 -0.147595,-0.514424 -0.376245,-0.959719 -0.597284,-1.390498 -0.359688,-0.700623 -0.670336,-1.305675 -0.540004,-2.047101 0.612664,-3.484758 0.57037,-6.318168 -0.125624,-8.421217 -1.082204,-3.27078 -3.70203,-5.093155 -4.216218,-5.425145 -0.255093,-0.164857 -0.484685,-0.309863 -0.678183,-0.430386 0.179452,-0.142966 0.407553,-0.29315 0.678732,-0.408416 0.617214,-0.262391 0.876623,-0.334109 0.948498,-0.351215 0.0046,1.57e-4 0.0091,1.57e-4 0.01357,1.57e-4 0.256192,7.9e-5 0.453141,-0.169094 0.528077,-0.41893 0.07784,-0.259409 -0.06677,-0.537885 -0.299898,-0.675593 -0.04433,-0.02629 -1.104645,-0.642716 -2.502048,-0.642716 -0.288363,0 -0.574843,0.02644 -0.851436,0.07862 -0.861793,0.162659 -1.470846,0.40567 -2.059813,0.640597 -0.575078,0.229434 -1.118299,0.446158 -1.929324,0.616979 -0.393978,0.08302 -0.756806,0.147044 -1.107627,0.209034 -1.207044,0.213114 -2.249466,0.397194 -3.808038,1.193076 -2.034155,1.038891 -3.177955,2.175551 -3.220798,3.200397 -0.009,0.216017 -0.0043,0.409044 0.0142,0.578686 -0.190359,0.09518 -0.421677,0.215469 -0.655349,0.34839 -0.951245,0.541024 -1.350166,0.946222 -1.376766,1.398423 -0.01844,0.314649 0.06591,0.573508 0.250777,0.769595 z" />
</svg>
