<?xml version="1.0" encoding="UTF-8" standalone="no"?>
<svg
   xmlns:dc="http://purl.org/dc/elements/1.1/"
   xmlns:cc="http://creativecommons.org/ns#"
   xmlns:rdf="http://www.w3.org/1999/02/22-rdf-syntax-ns#"
   xmlns:svg="http://www.w3.org/2000/svg"
   xmlns="http://www.w3.org/2000/svg"
   xmlns:sodipodi="http://sodipodi.sourceforge.net/DTD/sodipodi-0.dtd"
   xmlns:inkscape="http://www.inkscape.org/namespaces/inkscape"
   height="64"
   viewBox="0 0 64 64"
   width="64"
   version="1.1"
   id="svg33"
   sodipodi:docname="application-x-keepassx.svg"
   inkscape:version="0.92.5 (2060ec1f9f, 2020-04-08)">
  <metadata
     id="metadata39">
    <rdf:RDF>
      <cc:Work
         rdf:about="">
        <dc:format>image/svg+xml</dc:format>
        <dc:type
           rdf:resource="http://purl.org/dc/dcmitype/StillImage" />
      </cc:Work>
    </rdf:RDF>
  </metadata>
  <defs
     id="defs37" />
  <sodipodi:namedview
     pagecolor="#ffffff"
     bordercolor="#666666"
     borderopacity="1"
     objecttolerance="10"
     gridtolerance="10"
     guidetolerance="10"
     inkscape:pageopacity="0"
     inkscape:pageshadow="2"
     inkscape:window-width="1920"
     inkscape:window-height="915"
     id="namedview35"
     showgrid="false"
     inkscape:zoom="3.6875"
     inkscape:cx="32"
     inkscape:cy="32"
     inkscape:window-x="0"
     inkscape:window-y="35"
     inkscape:window-maximized="1"
     inkscape:current-layer="g31" />
  <linearGradient
     id="a"
     gradientTransform="matrix(1.0749904,0,0,1.0130858,56.688954,4.5418668)"
     gradientUnits="userSpaceOnUse"
     x1="-74.929466"
     x2="-75.259552"
     y1="52.199436"
     y2="2.356489">
    <stop
       offset="0"
       stop-color="#14a102"
       id="stop2" />
    <stop
       offset="1"
       stop-color="#80e950"
       id="stop4" />
  </linearGradient>
  <g
     transform="translate(56.391766 -.176777)"
     id="g31">
    <rect
       height="52"
       ry="2.4606433"
       width="44"
       x="-46.391766"
       y="6.1767769"
       id="rect7"
       style="fill:url(#a);stroke-width:0.92698461" />
    <path
       d="m -20.317684,21.176756 c -3.829615,0 -6.925918,3.096302 -6.925918,6.925918 0,0.814817 0.162963,1.629633 0.407387,2.444449 l -8.555551,8.555593 v 4.074082 h 4.074082 v -2.444449 h 2.444449 V 38.2879 h 2.44445 l 3.666652,-3.666653 c 0.733356,0.244424 1.548173,0.407387 2.444449,0.407387 3.829659,0 6.925919,-3.096302 6.925919,-6.925918 0,-3.829616 -3.09626,-6.925961 -6.925919,-6.92596 z m 2.037063,7.333348 c -1.385209,0 -2.444449,-1.05924 -2.444449,-2.444449 0,-1.38521 1.05924,-2.44445 2.444449,-2.44445 1.385209,0 2.444449,1.05924 2.444449,2.44445 0,1.385209 -1.05924,2.444449 -2.444449,2.444449 z"
       id="path29"
       inkscape:connector-curvature="0"
       style="fill:#005500" />
  </g>
</svg>
