<?xml version="1.0" encoding="UTF-8" standalone="no"?>
<svg
   xmlns:dc="http://purl.org/dc/elements/1.1/"
   xmlns:cc="http://creativecommons.org/ns#"
   xmlns:rdf="http://www.w3.org/1999/02/22-rdf-syntax-ns#"
   xmlns:svg="http://www.w3.org/2000/svg"
   xmlns="http://www.w3.org/2000/svg"
   xmlns:sodipodi="http://sodipodi.sourceforge.net/DTD/sodipodi-0.dtd"
   xmlns:inkscape="http://www.inkscape.org/namespaces/inkscape"
   height="64"
   viewBox="0 0 64 64"
   width="64"
   version="1.1"
   id="svg25"
   sodipodi:docname="application-pdf.svg"
   inkscape:version="0.92.5 (2060ec1f9f, 2020-04-08)">
  <metadata
     id="metadata31">
    <rdf:RDF>
      <cc:Work
         rdf:about="">
        <dc:format>image/svg+xml</dc:format>
        <dc:type
           rdf:resource="http://purl.org/dc/dcmitype/StillImage" />
      </cc:Work>
    </rdf:RDF>
  </metadata>
  <defs
     id="defs29" />
  <sodipodi:namedview
     pagecolor="#ffffff"
     bordercolor="#666666"
     borderopacity="1"
     objecttolerance="10"
     gridtolerance="10"
     guidetolerance="10"
     inkscape:pageopacity="0"
     inkscape:pageshadow="2"
     inkscape:window-width="1920"
     inkscape:window-height="934"
     id="namedview27"
     showgrid="false"
     inkscape:zoom="3.6875"
     inkscape:cx="3.9322034"
     inkscape:cy="32"
     inkscape:window-x="0"
     inkscape:window-y="35"
     inkscape:window-maximized="1"
     inkscape:current-layer="g23" />
  <linearGradient
     id="a"
     gradientTransform="matrix(1.0749904,0,0,0.8572265,56.688954,8.7933912)"
     gradientUnits="userSpaceOnUse"
     x1="-74.929466"
     x2="-75.259552"
     y1="52.199436"
     y2="2.356489">
    <stop
       offset="0"
       stop-color="#f10614"
       id="stop2" />
    <stop
       offset="1"
       stop-color="#ff433e"
       id="stop4" />
  </linearGradient>
  <g
     transform="translate(56.391766 -.176777)"
     id="g23">
    <rect
       height="44"
       ry="2.082083"
       width="44"
       x="-46.391766"
       y="10.176777"
       id="rect9"
       style="fill:url(#a);stroke-width:0.91259694" />
    <path
       d="m -13.747857,34.677573 c -0.439759,-0.433232 -1.415061,-0.662724 -2.899181,-0.682216 -1.004624,-0.01565 -2.213797,0.07683 -3.485638,0.255386 -0.569496,-0.328516 -1.156383,-0.686058 -1.617189,-1.116729 -1.239417,-1.157278 -2.273993,-2.763866 -2.918668,-4.530372 0.042,-0.165041 0.07775,-0.310021 0.111047,-0.457989 0,0 0.698129,-3.965534 0.513326,-5.306064 -0.02542,-0.183821 -0.04108,-0.237317 -0.09052,-0.380305 l -0.06064,-0.155082 c -0.189877,-0.437927 -0.562203,-0.901891 -1.145937,-0.876708 l -0.342321,-0.01565 -0.0094,-1.42e-4 c -0.650924,0 -1.181449,0.332927 -1.320717,0.830469 -0.423307,1.560632 0.01337,3.895391 0.80504,6.919481 l -0.202621,0.492561 c -0.566781,1.381649 -1.277038,2.773256 -1.903708,4.000677 l -0.08148,0.159919 c -0.659277,1.290306 -1.257486,2.385552 -1.799768,3.313338 l -0.559914,0.296077 c -0.04078,0.02134 -1.000361,0.528985 -1.22544,0.665144 -1.909399,1.140062 -3.17468,2.434353 -3.384603,3.461305 -0.06683,0.327663 -0.01707,0.747095 0.322647,0.941445 l 0.54154,0.272459 c 0.234915,0.11809 0.482638,0.177277 0.736424,0.177277 1.359943,0 2.938778,-1.694088 5.113719,-5.489743 2.511137,-0.817664 5.370159,-1.497035 7.875854,-1.871792 1.909527,1.075185 4.258069,1.821853 5.740386,1.821853 0.263193,0 0.490066,-0.02561 0.674437,-0.07398 0.284291,-0.07541 0.523904,-0.23746 0.669983,-0.457277 0.287563,-0.432948 0.345905,-1.028945 0.267825,-1.639454 -0.02326,-0.180976 -0.167976,-0.405061 -0.324501,-0.557867 z m -20.312508,7.236331 c 0.247971,-0.67809 1.229644,-2.01862 2.681091,-3.208053 0.09126,-0.07398 0.316027,-0.284553 0.521865,-0.480183 -1.51783,2.420836 -2.534276,3.385756 -3.202956,3.688236 z m 8.596816,-19.796938 c 0.437166,0 0.685819,1.102075 0.706482,2.135003 0.02062,1.033071 -0.220996,1.758112 -0.520689,2.294495 -0.248218,-0.794188 -0.368183,-2.045938 -0.368183,-2.86474 0,0 -0.01824,-1.564758 0.18239,-1.564758 z m -2.564468,14.107723 c 0.304519,-0.545062 0.621349,-1.119859 0.945111,-1.729657 0.789198,-1.492481 1.287616,-2.660146 1.65883,-3.620228 0.738282,1.343375 1.657718,2.485145 2.738573,3.400126 0.134807,0.113822 0.27766,0.228781 0.427691,0.343172 -2.197953,0.434797 -4.097639,0.963781 -5.770205,1.606587 z m 13.857844,-0.122358 c -0.133882,0.08252 -0.517346,0.132318 -0.764018,0.132318 -0.796065,0 -1.781026,-0.363944 -3.161819,-0.955957 0.530525,-0.03984 1.017007,-0.05976 1.453246,-0.05976 0.798475,0 1.035007,0 1.815787,0.19563 0.78079,0.199187 0.790627,0.60368 0.656804,0.687338 z"
       id="path21"
       inkscape:connector-curvature="0"
       style="fill:#ffffff;stroke-width:1.42276621" />
  </g>
</svg>
