<?xml version="1.0" encoding="UTF-8" standalone="no"?>
<svg
   xmlns:dc="http://purl.org/dc/elements/1.1/"
   xmlns:cc="http://creativecommons.org/ns#"
   xmlns:rdf="http://www.w3.org/1999/02/22-rdf-syntax-ns#"
   xmlns:svg="http://www.w3.org/2000/svg"
   xmlns="http://www.w3.org/2000/svg"
   xmlns:sodipodi="http://sodipodi.sourceforge.net/DTD/sodipodi-0.dtd"
   xmlns:inkscape="http://www.inkscape.org/namespaces/inkscape"
   height="64"
   viewBox="0 0 64 64"
   width="64"
   version="1.1"
   id="svg57"
   sodipodi:docname="application-image-psd.svg"
   inkscape:version="0.92.5 (2060ec1f9f, 2020-04-08)">
  <metadata
     id="metadata63">
    <rdf:RDF>
      <cc:Work
         rdf:about="">
        <dc:format>image/svg+xml</dc:format>
        <dc:type
           rdf:resource="http://purl.org/dc/dcmitype/StillImage" />
      </cc:Work>
    </rdf:RDF>
  </metadata>
  <defs
     id="defs61" />
  <sodipodi:namedview
     pagecolor="#ffffff"
     bordercolor="#666666"
     borderopacity="1"
     objecttolerance="10"
     gridtolerance="10"
     guidetolerance="10"
     inkscape:pageopacity="0"
     inkscape:pageshadow="2"
     inkscape:window-width="1920"
     inkscape:window-height="934"
     id="namedview59"
     showgrid="false"
     inkscape:zoom="3.6875"
     inkscape:cx="41.491525"
     inkscape:cy="32"
     inkscape:window-x="0"
     inkscape:window-y="35"
     inkscape:window-maximized="1"
     inkscape:current-layer="svg57" />
  <linearGradient
     id="a"
     gradientTransform="matrix(1.0749904,0,0,0.8572265,113.08072,8.616614)"
     gradientUnits="userSpaceOnUse"
     x1="-74.929466"
     x2="-75.259552"
     y1="52.199436"
     y2="2.356489">
    <stop
       offset="0"
       stop-color="#0074e3"
       id="stop2" />
    <stop
       offset="1"
       stop-color="#03b8ff"
       id="stop4" />
  </linearGradient>
  <rect
     style="fill:url(#a);stroke-width:0.91259694"
     id="rect9"
     y="10"
     x="10"
     width="44"
     ry="2.082083"
     height="44" />
  <g
     id="g911"
     transform="translate(0.045747,5.841166)">
    <g
       transform="matrix(0.28177325,-0.04866765,0.04866765,0.28177325,-157.85881,-71.655732)"
       id="g39">
      <rect
         height="58.986568"
         ry="2.3"
         transform="matrix(0.89537973,0.14886638,-0.14886638,0.89537973,181.38928,-47.050156)"
         width="76.809471"
         x="504.25668"
         y="426.46411"
         id="rect21"
         style="fill:#003564" />
      <g
         transform="matrix(0.90765278,-0.0056985,0.0056985,0.90765278,95.981015,47.52327)"
         id="g29">
        <rect
           height="58.986568"
           ry="2.3"
           width="76.809471"
           x="504.25668"
           y="426.46411"
           id="rect23"
           style="fill:#0194f0;stroke:#003564;stroke-width:1.90315104;stroke-linecap:round;stroke-linejoin:round" />
        <path
           d="m 504.2304,479.41184 14.55149,-4.65732 4.59402,3.09494 10.68866,-3.70865 10.51696,3.49583 7.58063,1.61197 5.83015,-2.02302 7.18039,-1.82153 11.56837,4.36341 -0.0451,5.71285 -69.41559,0.56851 c 0,0 -3.10616,0.57841 -3.08552,-2.07338 z"
           id="path25"
           inkscape:connector-curvature="0"
           style="fill:#003564;fill-rule:evenodd" />
        <circle
           cx="521.2431"
           cy="443.27579"
           r="7.5944862"
           id="circle27"
           style="fill:#003564" />
      </g>
      <circle
         cx="610.99548"
         cy="479.66388"
         r="19.134081"
         id="circle31"
         style="fill:#0194f0;stroke:#003564;stroke-width:2;stroke-linecap:round;stroke-linejoin:round" />
      <path
         d="m 598.67943,493.65621 11.44601,-23.18859 c 5.60266,5.88152 18.98364,10.6085 18.98364,10.6085 l 1.39585,2.23337 c -7.31195,19.73788 -19.37,17.06139 -31.8255,10.34672 z"
         id="path33"
         inkscape:connector-curvature="0"
         style="fill:#003564;fill-rule:evenodd" />
      <path
         d="m 600.64547,495.6202 3.71848,-4.56822 3.76154,1.7885 3.2785,-4.84896 12.61021,4.76417 c -4.44546,7.04228 -11.85513,8.97599 -23.36873,2.86451 z"
         id="path35"
         inkscape:connector-curvature="0"
         style="fill:#0194f0;fill-rule:evenodd" />
      <circle
         cx="610.91852"
         cy="479.44278"
         r="19.134081"
         id="circle37"
         style="fill:none;stroke:#003564;stroke-width:2;stroke-linecap:round;stroke-linejoin:round" />
    </g>
    <g
       transform="translate(123.86127,-14.740248)"
       id="g47"
       style="fill:#003564;fill-rule:evenodd">
      <path
         d="m -75.63401,32.053056 -1.411073,-0.316961 -1.061063,0.982719 -0.134598,-1.439956 -1.262508,-0.705454 1.327886,-0.572982 0.280791,-1.418713 0.955277,1.085834 1.436046,-0.171359 -0.737493,1.244064 z"
         id="path41"
         inkscape:connector-curvature="0" />
      <path
         d="m -75.20524,26.305491 -1.548323,-0.34779 -1.16427,1.078305 -0.14769,-1.580016 -1.385308,-0.774072 1.457046,-0.628713 0.308102,-1.556708 1.048194,1.19145 1.575725,-0.188027 -0.809226,1.365071 z"
         id="path43"
         inkscape:connector-curvature="0" />
      <path
         d="m -79.473329,29.220188 -1.690278,-0.379676 -1.271013,1.177166 -0.161231,-1.724876 -1.512317,-0.845041 1.590632,-0.686356 0.33635,-1.69943 1.144296,1.300685 1.720192,-0.205266 -0.883418,1.490224 z"
         id="path45"
         inkscape:connector-curvature="0" />
    </g>
    <g
       transform="translate(99.217168,11.842605)"
       id="g53">
      <path
         d="m -75.63401,32.053056 -1.411073,-0.316961 -1.061063,0.982719 -0.134598,-1.439956 -1.262508,-0.705454 1.327886,-0.572982 0.280791,-1.418713 0.955277,1.085834 1.436046,-0.171359 -0.737493,1.244064 z"
         id="path49"
         inkscape:connector-curvature="0"
         style="fill:#003564;fill-rule:evenodd" />
      <path
         d="m -79.473329,29.220188 -1.690278,-0.379676 -1.271013,1.177166 -0.161231,-1.724876 -1.512317,-0.845041 1.590632,-0.686356 0.33635,-1.69943 1.144296,1.300685 1.720192,-0.205266 -0.883418,1.490224 z"
         id="path51"
         inkscape:connector-curvature="0"
         style="fill:#003564;fill-rule:evenodd" />
    </g>
  </g>
</svg>
