<?xml version="1.0" encoding="UTF-8" standalone="no"?>
<svg
   xmlns:dc="http://purl.org/dc/elements/1.1/"
   xmlns:cc="http://creativecommons.org/ns#"
   xmlns:rdf="http://www.w3.org/1999/02/22-rdf-syntax-ns#"
   xmlns:svg="http://www.w3.org/2000/svg"
   xmlns="http://www.w3.org/2000/svg"
   xmlns:sodipodi="http://sodipodi.sourceforge.net/DTD/sodipodi-0.dtd"
   xmlns:inkscape="http://www.inkscape.org/namespaces/inkscape"
   height="64"
   viewBox="0 0 64 64"
   width="64"
   version="1.1"
   id="svg35"
   sodipodi:docname="application-mathematica.svg"
   inkscape:version="0.92.5 (2060ec1f9f, 2020-04-08)">
  <metadata
     id="metadata41">
    <rdf:RDF>
      <cc:Work
         rdf:about="">
        <dc:format>image/svg+xml</dc:format>
        <dc:type
           rdf:resource="http://purl.org/dc/dcmitype/StillImage" />
      </cc:Work>
    </rdf:RDF>
  </metadata>
  <defs
     id="defs39" />
  <sodipodi:namedview
     pagecolor="#ffffff"
     bordercolor="#666666"
     borderopacity="1"
     objecttolerance="10"
     gridtolerance="10"
     guidetolerance="10"
     inkscape:pageopacity="0"
     inkscape:pageshadow="2"
     inkscape:window-width="1920"
     inkscape:window-height="934"
     id="namedview37"
     showgrid="false"
     inkscape:zoom="3.6875"
     inkscape:cx="3.9322034"
     inkscape:cy="32"
     inkscape:window-x="0"
     inkscape:window-y="35"
     inkscape:window-maximized="1"
     inkscape:current-layer="svg35" />
  <linearGradient
     id="a"
     gradientTransform="matrix(1.0749904,0,0,0.8572265,113.08072,8.6166145)"
     gradientUnits="userSpaceOnUse"
     x1="-74.929466"
     x2="-75.259552"
     y1="52.199436"
     y2="2.356489">
    <stop
       offset="0"
       stop-color="#e51021"
       id="stop2" />
    <stop
       offset="1"
       stop-color="#ff1e1c"
       id="stop4" />
  </linearGradient>
  <rect
     style="fill:url(#a);stroke-width:0.91259694"
     id="rect9"
     y="10"
     x="10"
     width="44"
     ry="2.082083"
     height="44" />
  <g
     id="g866"
     transform="translate(-3.5554503e-7,4.5610982e-6)">
    <g
       transform="matrix(0.86557709,0,0,0.86557709,12.551931,-855.04433)"
       id="g29">
      <path
         d="m 11.447345,1036.9442 h 11.636697 l -3.21e-4,-24.4983 -11.533282,3e-4 c -1.268259,-0.094 -1.7825661,0.023 -1.7825661,1.1721 v 22.0916 c -0.07966,1.261 0.4462081,1.2343 1.6794721,1.2343 z"
         id="path23"
         inkscape:connector-curvature="0"
         style="fill:#65070e;fill-rule:evenodd" />
      <path
         d="m 33.843953,1036.9367 h -5.282394 l -2.708421,-2.2737 v -19.9506 l 1.855796,-2.2737 h 6.135019 c 0.848365,-0.094 0.916631,0.023 0.916631,1.1721 v 22.0916 c 0.05328,1.261 -0.09168,1.2343 -0.916631,1.2343 z"
         id="path25"
         inkscape:connector-curvature="0"
         style="fill:none;stroke:#65070e;stroke-width:0.81170797" />
      <path
         d="m 31.841628,1038.1035 -10.029586,-1.1715 -2e-5,-24.4861 9.945926,-0.9324 c 1.230149,-0.094 1.296492,0.2446 1.296492,1.3937 l -0.08368,23.3688 c 0.07726,1.261 0.06707,1.8275 -1.129132,1.8275 z"
         id="path27"
         inkscape:connector-curvature="0"
         style="fill:#65070e;fill-rule:evenodd" />
    </g>
    <path
       d="m 37.995914,26.346066 -6.961824,0.0037 -3.865044,6.693273 -1.352922,-2.34553 h -0.0037 -1.740453 v 0.870223 h 1.24245 l 1.856031,3.214066 0.501403,-0.86853 3.866737,-6.696672 h 5.586805 v 0.870224 h 0.870223 v -1.740453 z m -4.351142,2.614088 c -1.446318,0 -2.610682,1.164364 -2.610682,2.610683 0,1.446319 1.164364,2.610683 2.610682,2.610683 0.672952,0 1.278482,-0.259497 1.74046,-0.674774 v 0.674774 h 0.870229 v -2.610683 -2.610683 h -0.870229 v 0.674768 c -0.461978,-0.415277 -1.067508,-0.674768 -1.74046,-0.674768 z m 0,0.87023 c 0.964213,0 1.74046,0.77624 1.74046,1.740453 0,0.964212 -0.776247,1.740459 -1.74046,1.740459 -0.964212,0 -1.740453,-0.776247 -1.740453,-1.740459 0,-0.964213 0.776241,-1.740453 1.740453,-1.740453 z m -9.564008,5.212866 c -0.0055,0 -0.0087,0.194063 -0.0087,0.435113 0,0.241056 0.0037,0.435111 0.0087,0.435111 h 13.906657 c 0.0055,0 0.0087,-0.194055 0.0087,-0.435111 0,-0.24105 -0.0037,-0.435113 -0.0087,-0.435113 H 24.080776 Z m 6.091601,1.740454 c -0.0055,0 -0.0087,0.194074 -0.0087,0.435118 0,0.241044 0.0037,0.435111 0.0087,0.435111 h 1.723461 c 0.0055,0 0.0087,-0.194068 0.0087,-0.435111 0,-0.241044 -0.0037,-0.435118 -0.0087,-0.435118 h -1.723455 z"
       id="path31"
       inkscape:connector-curvature="0"
       style="fill:#f3171e;stroke-width:0.61142975" />
  </g>
</svg>
