<?xml version="1.0" encoding="UTF-8" standalone="no"?>
<svg
   xmlns:dc="http://purl.org/dc/elements/1.1/"
   xmlns:cc="http://creativecommons.org/ns#"
   xmlns:rdf="http://www.w3.org/1999/02/22-rdf-syntax-ns#"
   xmlns:svg="http://www.w3.org/2000/svg"
   xmlns="http://www.w3.org/2000/svg"
   xmlns:sodipodi="http://sodipodi.sourceforge.net/DTD/sodipodi-0.dtd"
   xmlns:inkscape="http://www.inkscape.org/namespaces/inkscape"
   height="64"
   viewBox="0 0 64 64"
   width="64"
   version="1.1"
   id="svg23"
   sodipodi:docname="application-x-deb-debian.svg"
   inkscape:version="0.92.5 (2060ec1f9f, 2020-04-08)">
  <metadata
     id="metadata29">
    <rdf:RDF>
      <cc:Work
         rdf:about="">
        <dc:format>image/svg+xml</dc:format>
        <dc:type
           rdf:resource="http://purl.org/dc/dcmitype/StillImage" />
      </cc:Work>
    </rdf:RDF>
  </metadata>
  <defs
     id="defs27" />
  <sodipodi:namedview
     pagecolor="#ffffff"
     bordercolor="#666666"
     borderopacity="1"
     objecttolerance="10"
     gridtolerance="10"
     guidetolerance="10"
     inkscape:pageopacity="0"
     inkscape:pageshadow="2"
     inkscape:window-width="1920"
     inkscape:window-height="934"
     id="namedview25"
     showgrid="false"
     inkscape:zoom="3.6875"
     inkscape:cx="3.9322034"
     inkscape:cy="32"
     inkscape:window-x="0"
     inkscape:window-y="35"
     inkscape:window-maximized="1"
     inkscape:current-layer="g21" />
  <linearGradient
     id="a"
     gradientTransform="matrix(1.0749904,0,0,0.85722647,56.688954,8.7933921)"
     gradientUnits="userSpaceOnUse"
     x1="-74.929466"
     x2="-75.259552"
     y1="52.199436"
     y2="2.356489">
    <stop
       offset="0"
       stop-color="#de2b5b"
       id="stop2" />
    <stop
       offset="1"
       stop-color="#f73667"
       id="stop4" />
  </linearGradient>
  <g
     transform="translate(56.391766 -.176777)"
     id="g21">
    <rect
       height="44"
       ry="2.082083"
       width="44"
       x="-46.391766"
       y="10.176777"
       id="rect7"
       style="fill:url(#a);stroke-width:0.85258442" />
    <path
       d="m -23.122967,43.176777 c -3.358525,-1.208263 -5.353398,-2.691188 -7.540619,-6.000577 -0.536725,-0.911762 -1.523663,-2.946533 -1.486285,-5.602443 -0.08735,-2.647931 1.25068,-5.699037 3.747841,-7.327273 2.411486,-1.71853 5.523488,-1.744149 7.37473,-1.065472 1.909618,0.708915 2.684049,1.889879 2.705887,1.833603 -0.05838,0.0147 1.023055,0.924361 1.505184,2.904535 0.537146,1.903318 -0.0084,5.058157 -2.633652,6.349995 -1.207423,0.647179 -2.775603,0.764351 -4.005284,0.301541 -1.229682,-0.495989 -2.122125,-1.584979 -2.419466,-2.722687 -0.648019,-2.51186 1.25782,-3.904071 2.098606,-4.046862 3.420682,-1.140647 5.153072,4.212332 1.152407,4.667583 1.823523,0.608961 3.703323,-1.26244 3.345926,-3.168698 -0.07223,-1.906679 -2.380408,-3.799078 -4.926286,-3.023387 -0.664817,0.183528 -1.671493,0.650118 -2.459363,1.699631 -0.808028,1.043214 -1.174665,2.678169 -0.754692,4.267348 0.409474,1.597998 1.654695,3.127541 3.389184,3.815037 1.752129,0.646339 3.702904,0.46155 5.313921,-0.376716 3.439161,-1.701312 4.127497,-5.846867 3.444201,-8.127742 -0.603082,-2.451384 -1.934817,-3.573972 -1.865941,-3.591191 -0.02478,0.06678 -0.982738,-1.389691 -3.350127,-2.273735 -2.314892,-0.844146 -5.924142,-0.78451 -8.813978,1.241861 -2.957451,1.896599 -4.559649,5.623441 -4.443316,8.62709 -0.0399,3.050265 1.09697,5.384896 1.71727,6.42265 2.500521,3.813357 5.365578,5.005241 8.903852,5.195909"
       id="path19"
       inkscape:connector-curvature="0"
       style="fill-opacity:0.470588;stroke-width:0.41997322" />
  </g>
</svg>
