<?xml version="1.0" encoding="UTF-8" standalone="no"?>
<svg
   xmlns:dc="http://purl.org/dc/elements/1.1/"
   xmlns:cc="http://creativecommons.org/ns#"
   xmlns:rdf="http://www.w3.org/1999/02/22-rdf-syntax-ns#"
   xmlns:svg="http://www.w3.org/2000/svg"
   xmlns="http://www.w3.org/2000/svg"
   xmlns:sodipodi="http://sodipodi.sourceforge.net/DTD/sodipodi-0.dtd"
   xmlns:inkscape="http://www.inkscape.org/namespaces/inkscape"
   height="64"
   viewBox="0 0 64 64"
   width="64"
   version="1.1"
   id="svg27"
   sodipodi:docname="application-vnd.oasis.opendocument.chart-template.svg"
   inkscape:version="0.92.5 (2060ec1f9f, 2020-04-08)">
  <metadata
     id="metadata33">
    <rdf:RDF>
      <cc:Work
         rdf:about="">
        <dc:format>image/svg+xml</dc:format>
        <dc:type
           rdf:resource="http://purl.org/dc/dcmitype/StillImage" />
      </cc:Work>
    </rdf:RDF>
  </metadata>
  <defs
     id="defs31" />
  <sodipodi:namedview
     pagecolor="#ffffff"
     bordercolor="#666666"
     borderopacity="1"
     objecttolerance="10"
     gridtolerance="10"
     guidetolerance="10"
     inkscape:pageopacity="0"
     inkscape:pageshadow="2"
     inkscape:window-width="1920"
     inkscape:window-height="915"
     id="namedview29"
     showgrid="false"
     inkscape:zoom="3.6875"
     inkscape:cx="3.9322034"
     inkscape:cy="32"
     inkscape:window-x="0"
     inkscape:window-y="35"
     inkscape:window-maximized="1"
     inkscape:current-layer="g25" />
  <linearGradient
     id="a"
     gradientTransform="matrix(1.0749904,0,0,1.0292896,56.688954,4.0998616)"
     gradientUnits="userSpaceOnUse"
     x1="-74.929466"
     x2="-75.259552"
     y1="52.199436"
     y2="2.356489">
    <stop
       offset="0"
       stop-color="#8798a9"
       id="stop2" />
    <stop
       offset="1"
       stop-color="#aeb6be"
       id="stop4" />
  </linearGradient>
  <g
     transform="translate(56.391766 -.176777)"
     id="g25">
    <rect
       height="52.831711"
       ry="2.5"
       width="44"
       x="-46.391766"
       y="5.7609215"
       id="rect9"
       style="fill:url(#a)" />
    <path
       d="m -13.506467,22.244236 c 0.210368,-0.316927 0.123058,-0.742475 -0.193869,-0.952843 -0.317614,-0.20968 -0.742474,-0.123058 -0.952842,0.194556 l -2.542976,3.849182 c -0.105872,-0.01719 -0.211056,-0.033 -0.321052,-0.033 -1.135711,0 -2.06243,0.926031 -2.06243,2.06243 0,0.218617 0.04331,0.425548 0.106559,0.623541 l -2.455666,3.131456 c -0.316927,-0.197993 -0.687477,-0.317614 -1.087588,-0.317614 -1.1089,0 -2.010182,0.882032 -2.054181,1.979932 l -3.88493,2.262486 c -0.378112,-0.485359 -0.96178,-0.805035 -1.62382,-0.805035 -1.137086,0 -2.06243,0.926031 -2.06243,2.06243 0,0.44686 0.14712,0.859345 0.389112,1.197584 l -3.026272,4.612281 c -0.208305,0.318301 -0.120308,0.743849 0.197306,0.952155 0.116184,0.07631 0.247492,0.112746 0.376737,0.112746 0.224118,0 0.44411,-0.108621 0.575418,-0.310052 l 3.00771,-4.582719 c 0.173932,0.04675 0.354738,0.08044 0.542419,0.08044 1.1089,0 2.010182,-0.880658 2.05418,-1.980621 l 3.884931,-2.26111 c 0.377425,0.486046 0.961092,0.804347 1.623132,0.804347 1.137086,0 2.06243,-0.925343 2.06243,-2.062429 0,-0.21793 -0.04262,-0.425548 -0.105184,-0.622854 l 2.454292,-3.130769 c 0.316926,0.197306 0.687476,0.316927 1.087588,0.316927 1.136398,0 2.06243,-0.925344 2.06243,-2.06243 0,-0.527294 -0.204869,-1.003028 -0.530045,-1.368078 z m -17.072795,14.744998 c -0.379487,0 -0.687476,-0.307302 -0.687476,-0.687476 0,-0.3788 0.307989,-0.687477 0.687476,-0.687477 0.379487,0 0.687477,0.308677 0.687477,0.687477 0,0.380174 -0.30799,0.687476 -0.687477,0.687476 z m 7.562243,-3.437383 c -0.379487,0 -0.687476,-0.307302 -0.687476,-0.687476 0,-0.3788 0.307989,-0.687477 0.687476,-0.687477 0.379487,0 0.687477,0.308677 0.687477,0.687477 0,0.380174 -0.30799,0.687476 -0.687477,0.687476 z m 5.499813,-5.499813 c -0.379487,0 -0.687476,-0.307989 -0.687476,-0.687476 0,-0.3788 0.307989,-0.687477 0.687476,-0.687477 0.379487,0 0.687477,0.308677 0.687477,0.687477 0,0.379487 -0.308677,0.687476 -0.687477,0.687476 z m -13.749532,13.749533 c -0.380175,0 -0.687477,0.308677 -0.687477,0.687476 0,0.380175 0.307302,0.687477 0.687477,0.687477 0.380174,0 0.687476,-0.307302 0.687476,-0.687477 0,-0.378799 -0.306614,-0.687476 -0.687476,-0.687476 z m 3.437383,0 c -0.380175,0 -0.687477,0.308677 -0.687477,0.687476 0,0.380175 0.307302,0.687477 0.687477,0.687477 0.380174,0 0.687476,-0.307302 0.687476,-0.687477 0,-0.378799 -0.306614,-0.687476 -0.687476,-0.687476 z m 3.437383,0 c -0.380175,0 -0.687477,0.308677 -0.687477,0.687476 0,0.380175 0.307302,0.687477 0.687477,0.687477 0.380174,0 0.687477,-0.307302 0.687477,-0.687477 0,-0.378799 -0.306615,-0.687476 -0.687477,-0.687476 z m 3.437383,0 c -0.380175,0 -0.687477,0.308677 -0.687477,0.687476 0,0.380175 0.307302,0.687477 0.687477,0.687477 0.380862,0 0.687477,-0.307302 0.687477,-0.687477 0,-0.378799 -0.306615,-0.687476 -0.687477,-0.687476 z m 3.437383,0 c -0.380174,0 -0.687476,0.308677 -0.687476,0.687476 0,0.380175 0.307302,0.687477 0.687476,0.687477 0.380862,0 0.687477,-0.307302 0.687477,-0.687477 0,-0.378799 -0.306615,-0.687476 -0.687477,-0.687476 z m 3.437383,0 c -0.380174,0 -0.687476,0.308677 -0.687476,0.687476 0,0.380175 0.307302,0.687477 0.687476,0.687477 0.380862,0 0.687477,-0.307302 0.687477,-0.687477 0,-0.378799 -0.306615,-0.687476 -0.687477,-0.687476 z m -20.624298,-2.06243 c 0.380174,0 0.687476,-0.307302 0.687476,-0.687477 0,-0.378799 -0.307302,-0.687476 -0.687476,-0.687476 -0.380175,0 -0.687477,0.308677 -0.687477,0.687476 0,0.380175 0.307302,0.687477 0.687477,0.687477 z m 0,-3.437383 c 0.380174,0 0.687476,-0.307302 0.687476,-0.687477 0,-0.3788 -0.307302,-0.687477 -0.687476,-0.687477 -0.380175,0 -0.687477,0.308677 -0.687477,0.687477 0,0.380175 0.307302,0.687477 0.687477,0.687477 z m 0,-3.437383 c 0.380174,0 0.687476,-0.307302 0.687476,-0.687477 0,-0.3788 -0.307302,-0.687477 -0.687476,-0.687477 -0.380175,0 -0.687477,0.30799 -0.687477,0.687477 0,0.380175 0.307302,0.687477 0.687477,0.687477 z m 0,-3.437383 c 0.380174,0 0.687476,-0.306615 0.687476,-0.687477 0,-0.379487 -0.307302,-0.687477 -0.687476,-0.687477 -0.380175,0 -0.687477,0.30799 -0.687477,0.687477 0,0.381549 0.307302,0.687477 0.687477,0.687477 z m 0,-3.437384 c 0.380174,0 0.687476,-0.306614 0.687476,-0.687476 0,-0.379487 -0.307302,-0.687477 -0.687476,-0.687477 -0.380175,0 -0.687477,0.30799 -0.687477,0.687477 0,0.381549 0.307302,0.687476 0.687477,0.687476 z m 0,-3.437383 c 0.380174,0 0.687476,-0.306614 0.687476,-0.687476 0,-0.379487 -0.307302,-0.687477 -0.687476,-0.687477 -0.380175,0 -0.687477,0.30799 -0.687477,0.687477 0,0.381549 0.307302,0.687476 0.687477,0.687476 z"
       id="path23"
       inkscape:connector-curvature="0"
       style="fill:#373e44;stroke-width:0.68747663" />
  </g>
</svg>
