<?xml version="1.0" encoding="UTF-8" standalone="no"?>
<svg
   xmlns:dc="http://purl.org/dc/elements/1.1/"
   xmlns:cc="http://creativecommons.org/ns#"
   xmlns:rdf="http://www.w3.org/1999/02/22-rdf-syntax-ns#"
   xmlns:svg="http://www.w3.org/2000/svg"
   xmlns="http://www.w3.org/2000/svg"
   xmlns:sodipodi="http://sodipodi.sourceforge.net/DTD/sodipodi-0.dtd"
   xmlns:inkscape="http://www.inkscape.org/namespaces/inkscape"
   height="64"
   viewBox="0 0 64 64"
   width="64"
   version="1.1"
   id="svg33"
   sodipodi:docname="application-x-desktop-kde.svg"
   inkscape:version="0.92.5 (2060ec1f9f, 2020-04-08)">
  <metadata
     id="metadata39">
    <rdf:RDF>
      <cc:Work
         rdf:about="">
        <dc:format>image/svg+xml</dc:format>
        <dc:type
           rdf:resource="http://purl.org/dc/dcmitype/StillImage" />
      </cc:Work>
    </rdf:RDF>
  </metadata>
  <defs
     id="defs37" />
  <sodipodi:namedview
     pagecolor="#ffffff"
     bordercolor="#666666"
     borderopacity="1"
     objecttolerance="10"
     gridtolerance="10"
     guidetolerance="10"
     inkscape:pageopacity="0"
     inkscape:pageshadow="2"
     inkscape:window-width="1920"
     inkscape:window-height="915"
     id="namedview35"
     showgrid="false"
     inkscape:zoom="3.6875"
     inkscape:cx="3.9322034"
     inkscape:cy="32"
     inkscape:window-x="0"
     inkscape:window-y="35"
     inkscape:window-maximized="1"
     inkscape:current-layer="g31" />
  <linearGradient
     id="a"
     gradientTransform="matrix(1.0749904,0,0,1.0292896,56.688954,4.0998616)"
     gradientUnits="userSpaceOnUse"
     x1="-74.929466"
     x2="-75.259552"
     y1="52.199436"
     y2="2.356489">
    <stop
       offset="0"
       stop-color="#8798a9"
       id="stop2" />
    <stop
       offset="1"
       stop-color="#aeb6be"
       id="stop4" />
  </linearGradient>
  <g
     transform="translate(56.391766 -.176777)"
     id="g31">
    <rect
       height="52.831711"
       ry="2.5"
       width="44"
       x="-46.391766"
       y="5.7609215"
       id="rect9"
       style="fill:url(#a)" />
    <path
       d="m -22.078842,17.436076 -4.899993,0.471156 v 20.186272 l 4.84762,-0.732911 v -8.606374 l 6.522825,9.548651 5.109392,-1.622833 -6.67987,-9.182239 6.732242,-8.658712 -5.214083,-1.193592 -6.470505,8.658694 0.05246,-8.868112 z M -33.187567,22.357 c -0.05554,0.0034 -0.115201,0.02109 -0.157201,0.06257 l -1.926468,1.926468 c -0.08074,0.08109 -0.09086,0.205492 -0.02949,0.303841 l 2.251019,3.716857 c -0.399653,0.671882 -0.724254,1.392656 -0.952751,2.156801 l -4.135675,0.85857 c -0.1152,0.0252 -0.198772,0.1332 -0.198772,0.251316 v 2.722208 c 0,0.1152 0.08743,0.213909 0.198772,0.240806 l 4.010018,0.973717 c 0.214337,0.88466 0.54571,1.731263 0.984191,2.502334 l -2.324355,3.538879 c -0.0648,0.09874 -0.05212,0.230726 0.02949,0.313938 l 1.926468,1.926503 c 0.08109,0.08074 0.205492,0.0912 0.303412,0.02949 l 3.643606,-2.209173 c 0.714636,0.412682 1.488312,0.743128 2.303389,0.963209 l 0.848077,4.083372 c 0.0252,0.115543 0.123086,0.198772 0.240789,0.198772 h 2.72226 c 0.114343,0 0.21348,-0.07697 0.240806,-0.188263 l 1.005106,-4.104253 c 0.840637,-0.226509 1.633171,-0.563093 2.366218,-0.994648 l 3.591251,2.355761 c 0.09909,0.06463 0.230298,0.05211 0.313921,-0.02949 l 1.916046,-1.926468 c 0.0816,-0.08109 0.101657,-0.20551 0.042,-0.30343 l -1.308741,-2.156852 -0.429293,0.136115 c -0.06171,0.02109 -0.130629,-0.0086 -0.167658,-0.06257 0,0 -0.826716,-1.216119 -1.905537,-2.795494 -1.290261,2.524688 -3.921526,4.250824 -6.952152,4.250824 -4.306435,0 -7.800177,-3.493742 -7.800177,-7.800177 0,-3.167718 1.894274,-5.888452 4.606814,-7.109148 v -2.01028 c -0.493665,0.172732 -0.970615,0.381173 -1.423925,0.628236 -8.4e-4,-5.48e-4 8.4e-4,-0.0086 0,-0.012 l -3.674959,-2.408083 c -0.04954,-0.0336 -0.101658,-0.03789 -0.157201,-0.02949 z"
       id="path29"
       inkscape:connector-curvature="0"
       style="fill:#3d434a;fill-opacity:0.85" />
  </g>
</svg>
