<?xml version="1.0" encoding="UTF-8" standalone="no"?>
<svg
   xmlns:dc="http://purl.org/dc/elements/1.1/"
   xmlns:cc="http://creativecommons.org/ns#"
   xmlns:rdf="http://www.w3.org/1999/02/22-rdf-syntax-ns#"
   xmlns:svg="http://www.w3.org/2000/svg"
   xmlns="http://www.w3.org/2000/svg"
   xmlns:sodipodi="http://sodipodi.sourceforge.net/DTD/sodipodi-0.dtd"
   xmlns:inkscape="http://www.inkscape.org/namespaces/inkscape"
   height="64"
   viewBox="0 0 64 64"
   width="64"
   version="1.1"
   id="svg29"
   sodipodi:docname="application-audio.svg"
   inkscape:version="0.92.5 (2060ec1f9f, 2020-04-08)">
  <metadata
     id="metadata35">
    <rdf:RDF>
      <cc:Work
         rdf:about="">
        <dc:format>image/svg+xml</dc:format>
        <dc:type
           rdf:resource="http://purl.org/dc/dcmitype/StillImage" />
      </cc:Work>
    </rdf:RDF>
  </metadata>
  <defs
     id="defs33" />
  <sodipodi:namedview
     pagecolor="#ffffff"
     bordercolor="#666666"
     borderopacity="1"
     objecttolerance="10"
     gridtolerance="10"
     guidetolerance="10"
     inkscape:pageopacity="0"
     inkscape:pageshadow="2"
     inkscape:window-width="1920"
     inkscape:window-height="934"
     id="namedview31"
     showgrid="false"
     inkscape:zoom="3.6875"
     inkscape:cx="32"
     inkscape:cy="32"
     inkscape:window-x="0"
     inkscape:window-y="35"
     inkscape:window-maximized="1"
     inkscape:current-layer="g27" />
  <linearGradient
     id="a"
     gradientTransform="matrix(1.0749904,0,0,0.8572265,56.688954,8.7933912)"
     gradientUnits="userSpaceOnUse"
     x1="-74.929466"
     x2="-75.259552"
     y1="52.199436"
     y2="2.356489">
    <stop
       offset="0"
       stop-color="#197df1"
       id="stop2" />
    <stop
       offset="1"
       stop-color="#20bcfa"
       id="stop4" />
  </linearGradient>
  <g
     transform="translate(56.391766 -.176777)"
     id="g27">
    <rect
       height="44"
       ry="2.082083"
       width="44"
       x="-46.391766"
       y="10.176777"
       id="rect9"
       style="fill:url(#a);stroke-width:0.91259694" />
    <path
       d="m -27.558391,23.332184 c -0.76741,0.21527 -1.38522,1.07176 -1.38522,1.90367 v 13.19006 c -0.77819,-0.42666 -1.77761,-0.59922 -2.81376,-0.31728 -1.86973,0.50868 -3.04139,2.15267 -2.64059,3.67146 0.40079,1.51871 2.24266,2.36706 4.11239,1.85838 1.49167,-0.40583 2.5199,-1.55412 2.68388,-2.76492 l 0.0433,-12.46485 9.69662,-2.71956 v 9.83584 c -0.77819,-0.42665 -1.77762,-0.59916 -2.81374,-0.31728 -1.86976,0.50868 -3.04141,2.15268 -2.6406,3.67145 0.40079,1.51878 2.24266,2.36712 4.1124,1.85838 1.49166,-0.40578 2.51989,-1.55407 2.68388,-2.76492 l 0.0433,-16.2269 c 0,-0.62395 -0.36827,-1.09074 -0.86578,-1.17852 z"
       id="path25"
       inkscape:connector-curvature="0"
       style="fill:#0b3969" />
  </g>
</svg>
