<?xml version="1.0" encoding="UTF-8" standalone="no"?>
<svg
   xmlns:dc="http://purl.org/dc/elements/1.1/"
   xmlns:cc="http://creativecommons.org/ns#"
   xmlns:rdf="http://www.w3.org/1999/02/22-rdf-syntax-ns#"
   xmlns:svg="http://www.w3.org/2000/svg"
   xmlns="http://www.w3.org/2000/svg"
   xmlns:sodipodi="http://sodipodi.sourceforge.net/DTD/sodipodi-0.dtd"
   xmlns:inkscape="http://www.inkscape.org/namespaces/inkscape"
   height="64"
   viewBox="0 0 64 64"
   width="64"
   version="1.1"
   id="svg27"
   sodipodi:docname="application-font.svg"
   inkscape:version="0.92.5 (2060ec1f9f, 2020-04-08)">
  <metadata
     id="metadata33">
    <rdf:RDF>
      <cc:Work
         rdf:about="">
        <dc:format>image/svg+xml</dc:format>
        <dc:type
           rdf:resource="http://purl.org/dc/dcmitype/StillImage" />
      </cc:Work>
    </rdf:RDF>
  </metadata>
  <defs
     id="defs31" />
  <sodipodi:namedview
     pagecolor="#ffffff"
     bordercolor="#666666"
     borderopacity="1"
     objecttolerance="10"
     gridtolerance="10"
     guidetolerance="10"
     inkscape:pageopacity="0"
     inkscape:pageshadow="2"
     inkscape:window-width="1920"
     inkscape:window-height="934"
     id="namedview29"
     showgrid="false"
     inkscape:zoom="3.6875"
     inkscape:cx="32"
     inkscape:cy="32"
     inkscape:window-x="0"
     inkscape:window-y="35"
     inkscape:window-maximized="1"
     inkscape:current-layer="svg27" />
  <linearGradient
     id="a"
     gradientTransform="matrix(1.0749904,0,0,0.8572265,113.08072,8.6166142)"
     gradientUnits="userSpaceOnUse"
     x1="-74.929466"
     x2="-75.259552"
     y1="52.199436"
     y2="2.356489">
    <stop
       offset="0"
       stop-color="#197cf1"
       id="stop2" />
    <stop
       offset="1"
       stop-color="#20bcfa"
       id="stop4" />
  </linearGradient>
  <rect
     style="fill:url(#a);stroke-width:0.91259694"
     id="rect9"
     y="10"
     x="10"
     width="44"
     ry="2.082083"
     height="44" />
  <path
     style="fill:#0b3969;stroke-width:0.87953949"
     inkscape:connector-curvature="0"
     id="path23"
     d="m 30.524907,43 q -3.287358,0 -5.521072,-1.896551 -2.191575,-1.896551 -2.191575,-5.015328 0,-3.371644 2.613033,-5.268195 2.613024,-1.938698 6.448273,-1.938698 3.413792,0 5.605367,1.264364 v -0.590039 q 0,-2.275861 -1.559389,-3.624521 -1.559388,-1.390807 -3.835249,-1.390807 -1.685822,0 -3.076629,0.800768 -1.34866,0.800768 -1.854404,2.191575 l -3.540234,-1.517241 q 0.716473,-1.854412 2.823753,-3.4138 Q 28.544061,21 32,21 q 3.961692,0 6.574716,2.318008 2.613024,2.318009 2.613024,6.532569 v 12.475097 h -3.708807 v -2.8659 H 37.310351 Q 34.992343,43 30.524907,43 Z m 0.632186,-3.540226 q 2.402295,0 4.340994,-1.770117 1.980846,-1.812265 1.980846,-4.256707 -1.643684,-1.34866 -4.931042,-1.34866 -2.823752,0 -4.256698,1.222226 -1.432954,1.222217 -1.432954,2.8659 0,1.517241 1.306511,2.402295 1.306521,0.885063 2.992343,0.885063 z" />
</svg>
