<?xml version="1.0" encoding="UTF-8" standalone="no"?>
<svg
   xmlns:dc="http://purl.org/dc/elements/1.1/"
   xmlns:cc="http://creativecommons.org/ns#"
   xmlns:rdf="http://www.w3.org/1999/02/22-rdf-syntax-ns#"
   xmlns:svg="http://www.w3.org/2000/svg"
   xmlns="http://www.w3.org/2000/svg"
   xmlns:sodipodi="http://sodipodi.sourceforge.net/DTD/sodipodi-0.dtd"
   xmlns:inkscape="http://www.inkscape.org/namespaces/inkscape"
   height="64"
   viewBox="0 0 64 64"
   width="64"
   version="1.1"
   id="svg35"
   sodipodi:docname="application-json.svg"
   inkscape:version="0.92.5 (2060ec1f9f, 2020-04-08)">
  <metadata
     id="metadata41">
    <rdf:RDF>
      <cc:Work
         rdf:about="">
        <dc:format>image/svg+xml</dc:format>
        <dc:type
           rdf:resource="http://purl.org/dc/dcmitype/StillImage" />
      </cc:Work>
    </rdf:RDF>
  </metadata>
  <defs
     id="defs39" />
  <sodipodi:namedview
     pagecolor="#ffffff"
     bordercolor="#666666"
     borderopacity="1"
     objecttolerance="10"
     gridtolerance="10"
     guidetolerance="10"
     inkscape:pageopacity="0"
     inkscape:pageshadow="2"
     inkscape:window-width="1920"
     inkscape:window-height="934"
     id="namedview37"
     showgrid="false"
     inkscape:zoom="3.6875"
     inkscape:cx="3.9322034"
     inkscape:cy="32"
     inkscape:window-x="0"
     inkscape:window-y="35"
     inkscape:window-maximized="1"
     inkscape:current-layer="svg35" />
  <linearGradient
     id="a"
     gradientTransform="matrix(1.0749904,0,0,0.85722647,113.08072,8.616614)"
     gradientUnits="userSpaceOnUse"
     x1="-74.929466"
     x2="-75.259552"
     y1="52.199436"
     y2="2.356489">
    <stop
       offset="0"
       stop-color="#37abc8"
       id="stop2" />
    <stop
       offset="1"
       stop-color="#2ad4ff"
       id="stop4" />
  </linearGradient>
  <rect
     style="fill:url(#a);stroke-width:0.85258442"
     id="rect7"
     y="10"
     x="10"
     width="44"
     ry="2.082083"
     height="44" />
  <g
     style="fill-opacity:0.78431396"
     id="g31"
     transform="translate(56.391771,4.9180805)">
    <path
       inkscape:connector-curvature="0"
       id="path21"
       d="m -31.765136,38.081909 q -1.84934,0 -2.93013,-1.08079 -1.05676,-1.08078 -1.05676,-2.88209 v -4.10698 q 0,-0.98472 -0.50437,-1.48909 -0.50437,-0.52838 -1.27293,-0.52838 v -1.82533 q 0.76856,0 1.27293,-0.50436 0.50437,-0.52839 0.50437,-1.5131 v -4.10698 q 0,-1.80131 1.05676,-2.8821 1.08079,-1.08078 2.93013,-1.08078 h 0.52838 v 1.82532 h -0.52838 q -0.84061,0 -1.41703,0.60044 -0.5524,0.60044 -0.5524,1.60917 v 4.10698 q 0,2.18559 -1.6572,2.81004 v 0.0961 q 1.6572,0.57642 1.6572,2.81004 v 4.10699 q 0,1.00873 0.5524,1.60916 0.57642,0.60044 1.41703,0.60044 h 0.52838 v 1.82533 h -0.52838 z" />
    <path
       inkscape:connector-curvature="0"
       id="path23"
       d="m -17.018406,38.08191 h -0.52838 v -1.82533 h 0.52838 q 0.84061,0 1.39301,-0.60044 0.57642,-0.60043 0.57642,-1.60916 v -4.10699 q 0,-2.23362 1.65721,-2.81004 v -0.0961 q -1.65721,-0.62445 -1.65721,-2.81004 v -4.10698 q 0,-1.00873 -0.57642,-1.60917 -0.5524,-0.60044 -1.39301,-0.60044 h -0.52838 V 16.0819 h 0.52838 q 1.84934,0 2.90611,1.08078 1.08079,1.08079 1.08079,2.8821 v 4.10698 q 0,0.98471 0.50436,1.5131 0.50437,0.50436 1.27293,0.50436 v 1.82533 q -0.76856,0 -1.27293,0.52838 -0.50436,0.50437 -0.50436,1.48909 V 34.119 q 0,1.80131 -1.08079,2.88209 -1.05677,1.08079 -2.90611,1.08079 z" />
    <circle
       id="circle25"
       r="1.25"
       cy="27.060911"
       cx="-24.41604" />
    <circle
       id="circle27"
       r="1.25"
       cy="27.060911"
       cx="-18.41604" />
    <circle
       id="circle29"
       r="1.25"
       cy="27.060911"
       cx="-30.41604" />
  </g>
</svg>
