<?xml version="1.0" encoding="UTF-8" standalone="no"?>
<svg
   xmlns:dc="http://purl.org/dc/elements/1.1/"
   xmlns:cc="http://creativecommons.org/ns#"
   xmlns:rdf="http://www.w3.org/1999/02/22-rdf-syntax-ns#"
   xmlns:svg="http://www.w3.org/2000/svg"
   xmlns="http://www.w3.org/2000/svg"
   xmlns:sodipodi="http://sodipodi.sourceforge.net/DTD/sodipodi-0.dtd"
   xmlns:inkscape="http://www.inkscape.org/namespaces/inkscape"
   height="64"
   viewBox="0 0 64 64"
   width="64"
   version="1.1"
   id="svg29"
   sodipodi:docname="application-script-blank.svg"
   inkscape:version="0.92.5 (2060ec1f9f, 2020-04-08)">
  <metadata
     id="metadata35">
    <rdf:RDF>
      <cc:Work
         rdf:about="">
        <dc:format>image/svg+xml</dc:format>
        <dc:type
           rdf:resource="http://purl.org/dc/dcmitype/StillImage" />
      </cc:Work>
    </rdf:RDF>
  </metadata>
  <defs
     id="defs33" />
  <sodipodi:namedview
     pagecolor="#ffffff"
     bordercolor="#666666"
     borderopacity="1"
     objecttolerance="10"
     gridtolerance="10"
     guidetolerance="10"
     inkscape:pageopacity="0"
     inkscape:pageshadow="2"
     inkscape:window-width="1920"
     inkscape:window-height="934"
     id="namedview31"
     showgrid="false"
     inkscape:zoom="3.6875"
     inkscape:cx="3.9322034"
     inkscape:cy="32"
     inkscape:window-x="0"
     inkscape:window-y="35"
     inkscape:window-maximized="1"
     inkscape:current-layer="g27" />
  <linearGradient
     id="a"
     gradientTransform="matrix(1.0749904,0,0,0.8572265,56.688954,8.7933912)"
     gradientUnits="userSpaceOnUse"
     x1="-74.929466"
     x2="-75.259552"
     y1="52.199436"
     y2="2.356489">
    <stop
       offset="0"
       stop-color="#25292d"
       id="stop2" />
    <stop
       offset="1"
       stop-color="#525962"
       id="stop4" />
  </linearGradient>
  <g
     transform="translate(56.391766 -.176777)"
     id="g27">
    <rect
       height="44"
       ry="2.082083"
       width="44"
       x="-46.391766"
       y="10.176777"
       id="rect9"
       style="fill:url(#a);stroke-width:0.91259694" />
    <g
       transform="matrix(0.16355661,0,0,0.15562033,-35.350059,25.32956)"
       id="g25"
       style="fill:#ffffff">
      <path
         d="m 133.523,78.097 c -0.488,-0.489 -1.113,-0.733 -1.873,-0.733 H 53.435 c -0.76,0 -1.385,0.244 -1.874,0.733 -0.488,0.489 -0.732,1.113 -0.732,1.874 v 5.215 c 0,0.76 0.244,1.385 0.732,1.873 0.489,0.488 1.114,0.733 1.874,0.733 h 78.215 c 0.76,0 1.385,-0.245 1.873,-0.733 0.488,-0.488 0.732,-1.113 0.732,-1.873 v -5.215 c 0.001,-0.761 -0.243,-1.385 -0.732,-1.874 z"
         id="path21"
         inkscape:connector-curvature="0"
         style="fill:#ffffff" />
      <path
         d="M 8.38,1.022 C 7.837,0.479 7.212,0.207 6.506,0.207 5.8,0.207 5.176,0.479 4.633,1.022 L 0.559,5.096 c -0.543,0.543 -0.814,1.167 -0.814,1.874 0,0.707 0.271,1.331 0.814,1.874 l 32.02,32.019 -32.02,32.02 c -0.543,0.543 -0.814,1.168 -0.814,1.873 0,0.707 0.271,1.331 0.814,1.874 l 4.074,4.073 c 0.543,0.544 1.167,0.814 1.873,0.814 0.706,0 1.331,-0.271 1.874,-0.814 L 46.347,42.737 c 0.543,-0.543 0.814,-1.169 0.814,-1.875 0,-0.706 -0.271,-1.331 -0.814,-1.874 z"
         id="path23"
         inkscape:connector-curvature="0"
         style="fill:#ffffff" />
    </g>
  </g>
</svg>
