<?xml version="1.0" encoding="UTF-8" standalone="no"?>
<svg
   xmlns:dc="http://purl.org/dc/elements/1.1/"
   xmlns:cc="http://creativecommons.org/ns#"
   xmlns:rdf="http://www.w3.org/1999/02/22-rdf-syntax-ns#"
   xmlns:svg="http://www.w3.org/2000/svg"
   xmlns="http://www.w3.org/2000/svg"
   xmlns:sodipodi="http://sodipodi.sourceforge.net/DTD/sodipodi-0.dtd"
   xmlns:inkscape="http://www.inkscape.org/namespaces/inkscape"
   height="64"
   viewBox="0 0 64 64"
   width="64"
   version="1.1"
   id="svg27"
   sodipodi:docname="application-java.svg"
   inkscape:version="0.92.5 (2060ec1f9f, 2020-04-08)">
  <metadata
     id="metadata33">
    <rdf:RDF>
      <cc:Work
         rdf:about="">
        <dc:format>image/svg+xml</dc:format>
        <dc:type
           rdf:resource="http://purl.org/dc/dcmitype/StillImage" />
      </cc:Work>
    </rdf:RDF>
  </metadata>
  <defs
     id="defs31" />
  <sodipodi:namedview
     pagecolor="#ffffff"
     bordercolor="#666666"
     borderopacity="1"
     objecttolerance="10"
     gridtolerance="10"
     guidetolerance="10"
     inkscape:pageopacity="0"
     inkscape:pageshadow="2"
     inkscape:window-width="1920"
     inkscape:window-height="934"
     id="namedview29"
     showgrid="false"
     inkscape:zoom="3.6875"
     inkscape:cx="3.9322034"
     inkscape:cy="32"
     inkscape:window-x="0"
     inkscape:window-y="35"
     inkscape:window-maximized="1"
     inkscape:current-layer="svg27" />
  <linearGradient
     id="a"
     gradientTransform="matrix(1.0749904,0,0,0.9687109,113.08072,8.436882)"
     gradientUnits="userSpaceOnUse"
     x1="-74.929466"
     x2="-75.259552"
     y1="46.82893"
     y2="2.356489">
    <stop
       offset="0"
       stop-color="#ff5722"
       id="stop2" />
    <stop
       offset="1"
       stop-color="#ff7b51"
       id="stop4" />
  </linearGradient>
  <path
     d="M 13.236328,10 C 11.443109,10 10,11.048992 10,12.352478 v 33.71554 6.114739 c 0,0.503376 0.278594,0.9578 0.730469,1.286267 C 11.182344,53.797491 11.8075,54 12.5,54 h 39 c 0.6925,0 1.317656,-0.202509 1.769531,-0.530976 C 53.721406,53.140557 54,52.686133 54,52.182757 V 46.068018 12.352478 C 54,11.048992 52.556891,10 50.763672,10 Z"
     id="path7"
     style="fill:url(#a);stroke-width:0.97012663"
     inkscape:connector-curvature="0" />
  <g
     id="g846"
     transform="translate(-1.0000468,5.4563642)">
    <path
       id="path21"
       d="m 31.140625,29.046874 c 0.752244,0 0.63969,0.02399 1.296875,0.05664 0.207023,-0.460553 0.313826,-1.018803 0.125,-1.628907 -0.990121,-0.05044 -1.010452,-0.0625 -1.421875,-0.0625 v 2e-6 c -0.176618,5e-6 -0.314053,0.01972 -0.620305,0.02539 0.367796,0.533065 0.718873,1.065807 0.959359,1.609501 m -2.62264,-1.589969 C 25.869334,27.563389 21.001265,28.036442 21,30.212891 c 0,3.111862 1.334381,5.903901 3.435547,7.820312 -1.949629,0.520494 -3.427735,1.353932 -3.427735,2.646485 0,2.686472 6.372494,3.402343 10.138672,3.402343 3.76597,0 10.140625,-0.715871 10.140625,-3.402343 0,-1.292553 -1.480167,-2.125991 -3.429687,-2.646485 0.409731,-0.373491 0.795687,-0.774369 1.142578,-1.210937 0.04637,7.97e-4 0.08985,0.002 0.15625,0.002 0.903273,0 3.140722,-0.160962 4.416016,-1.65625 1.633024,-1.915298 1.902637,-4.276432 0.615234,-5.375 C 43.772639,29.439169 43.235736,29.252 42.634766,29.252 c -0.486852,0 -1.006629,0.129509 -1.521485,0.359375 -0.693404,-1.233945 -3.030576,-1.769381 -5.541015,-2.007812 -0.240307,0.601871 -0.683133,1.113094 -1.144532,1.541015 2.972332,0.204439 4.375739,0.699504 5.033204,1.06836 -0.845751,0.474077 -3.692492,1.166015 -8.320313,1.166015 -4.628858,0 -7.476419,-0.691938 -8.322266,-1.166015 0.845891,-0.474513 3.084025,-1.122946 7.724602,-1.165938 -0.589002,-0.584989 -1.158048,-1.069528 -1.685922,-1.589969 z m 13.777727,3.429688 c 0.209793,0 0.375504,0.05108 0.492187,0.15039 0.498044,0.424047 0.260935,1.827309 -0.798828,3.070313 -0.553221,0.647596 -1.487723,0.906795 -2.226563,1.011719 0.585012,-1.129735 0.973341,-2.381631 1.121094,-3.708985 0.533772,-0.355887 1.044997,-0.523437 1.41211,-0.523437 z m -6.083985,8.513672 c 1.987058,0.41316 3.010954,0.979641 3.103516,1.261718 -0.156306,0.508789 -2.916731,1.78711 -8.507813,1.78711 -5.591334,0 -8.35023,-1.277876 -8.505859,-1.751953 0.09262,-0.302934 1.115148,-0.878271 3.101563,-1.294922 -0.03437,0.101782 -0.05859,0.208462 -0.05859,0.324218 0,1.492124 2.970404,1.804688 5.46289,1.804688 2.491364,0 5.462891,-0.312562 5.462891,-1.804688 0,-0.116388 -0.02434,-0.223429 -0.05859,-0.326171 z"
       inkscape:connector-curvature="0"
       style="fill-opacity:0.66666697;stroke-width:1.090909" />
    <path
       id="path23"
       d="m 32.786571,26.473094 c 1.762145,2.028791 -0.462988,3.854449 -0.462988,3.854449 0,0 4.474394,-2.309813 2.419505,-5.202248 -1.919197,-2.697376 -3.390969,-4.037597 4.576596,-8.658504 0,0 -12.506455,3.123538 -6.533113,10.006303"
       inkscape:connector-curvature="0"
       style="fill-opacity:0.470588;stroke-width:0.098466" />
    <path
       id="path25"
       d="m 34.743088,9.0052406 c 0,0 3.795859,3.7971424 -3.600212,9.6360704 -5.930899,4.68383 -1.352428,7.354419 -0.0028,10.405682 -3.461963,-3.123534 -6.002585,-5.873197 -4.298132,-8.432325 2.501723,-3.756572 9.432341,-5.577897 7.9008,-11.6094274"
       inkscape:connector-curvature="0"
       style="fill-opacity:0.470588;stroke-width:0.098466" />
  </g>
</svg>
