<?xml version="1.0" encoding="UTF-8" standalone="no"?>
<svg
   xmlns:dc="http://purl.org/dc/elements/1.1/"
   xmlns:cc="http://creativecommons.org/ns#"
   xmlns:rdf="http://www.w3.org/1999/02/22-rdf-syntax-ns#"
   xmlns:svg="http://www.w3.org/2000/svg"
   xmlns="http://www.w3.org/2000/svg"
   xmlns:sodipodi="http://sodipodi.sourceforge.net/DTD/sodipodi-0.dtd"
   xmlns:inkscape="http://www.inkscape.org/namespaces/inkscape"
   height="64"
   viewBox="0 0 64 64"
   width="64"
   version="1.1"
   id="svg55"
   sodipodi:docname="application-x-theme.svg"
   inkscape:version="0.92.5 (2060ec1f9f, 2020-04-08)">
  <metadata
     id="metadata61">
    <rdf:RDF>
      <cc:Work
         rdf:about="">
        <dc:format>image/svg+xml</dc:format>
        <dc:type
           rdf:resource="http://purl.org/dc/dcmitype/StillImage" />
      </cc:Work>
    </rdf:RDF>
  </metadata>
  <defs
     id="defs59" />
  <sodipodi:namedview
     pagecolor="#ffffff"
     bordercolor="#666666"
     borderopacity="1"
     objecttolerance="10"
     gridtolerance="10"
     guidetolerance="10"
     inkscape:pageopacity="0"
     inkscape:pageshadow="2"
     inkscape:window-width="1920"
     inkscape:window-height="915"
     id="namedview57"
     showgrid="false"
     inkscape:zoom="3.6875"
     inkscape:cx="32"
     inkscape:cy="32"
     inkscape:window-x="0"
     inkscape:window-y="35"
     inkscape:window-maximized="1"
     inkscape:current-layer="svg55" />
  <linearGradient
     id="a"
     gradientTransform="matrix(1.0749904,0,0,1.0130859,113.08072,7.7719612)"
     gradientUnits="userSpaceOnUse"
     x1="-74.929466"
     x2="-75.259552"
     y1="52.199436"
     y2="2.356489">
    <stop
       offset="0"
       stop-color="#269de0"
       id="stop2" />
    <stop
       offset="1"
       stop-color="#1ab4fd"
       id="stop4" />
  </linearGradient>
  <g
     id="g888"
     transform="translate(-1.6102068e-6,-3.2366436)">
    <rect
       style="fill:url(#a);stroke-width:0.99209774"
       id="rect7"
       y="9.4068718"
       x="10"
       width="44"
       ry="2.4606433"
       height="52" />
    <g
       style="opacity:0.8;fill:#ffffff"
       id="g19"
       transform="matrix(0.97803305,0,0,0.99320293,-438.38298,-501.17383)">
      <g
         style="fill:#ffffff"
         id="g15">
        <circle
           style="opacity:1"
           id="circle9"
           r="2.037385"
           cy="518.38727"
           cx="497.14267" />
        <circle
           style="opacity:1"
           id="circle11"
           r="2.037385"
           cy="518.43048"
           cx="492.13748" />
        <circle
           style="opacity:1"
           id="circle13"
           r="2.037385"
           cy="518.4787"
           cx="487.21747" />
      </g>
      <path
         style="fill:#ffffff;fill-rule:evenodd"
         inkscape:connector-curvature="0"
         id="path17"
         d="m 480.69335,513.40009 v 53.36271 h 22.74872 v -51.0834 c 0,0 -0.18548,-2.27931 -2.527,-2.27931 z" />
    </g>
    <g
       style="fill:#ffffff"
       transform="translate(0,8)"
       id="g27">
      <circle
         id="circle21"
         r="2.037385"
         cy="6.5476141"
         cx="26.00161" />
      <circle
         id="circle23"
         r="2.037385"
         cy="6.5908341"
         cx="20.996416" />
      <circle
         id="circle25"
         r="2.037385"
         cy="6.6390791"
         cx="16.076385" />
    </g>
    <path
       id="path29"
       d="m 48.140486,24.32205 c 2.06939,-1.43019 0.36874,-4.00838 -1.84712,-2.41393 -0.32462,0.0742 -2.18885,2.80973 -3.30547,4.03281 1.81581,-0.72538 4.91732,-1.37369 5.15259,-1.61888 z"
       inkscape:connector-curvature="0"
       style="fill:#ffd600" />
    <path
       id="path31"
       d="m 48.089846,29.20934 c 2.47343,0.45817 3.10149,-2.56589 0.40829,-3.01199 -0.28158,-0.17777 -3.53562,0.43021 -5.19022,0.50136 1.79498,0.77552 4.44217,2.5168 4.78193,2.51063 z"
       inkscape:connector-curvature="0"
       style="fill:#78be16" />
    <path
       id="path33"
       d="m 44.286846,32.60111 c 1.33469,2.13223 3.98747,0.55052 2.49536,-1.7355 -0.0594,-0.32766 -2.70734,-2.31429 -3.8784,-3.48534 0.6421,1.8469 1.14878,4.97467 1.38304,5.22084 z"
       inkscape:connector-curvature="0"
       style="fill:#19b271" />
    <path
       id="path35"
       d="m 44.671996,20.93183 c 0.44349,-2.4761 -2.58422,-3.08622 -3.01436,-0.39044 -0.17609,0.28264 0.45114,3.53302 0.5321,5.18716 0.76488,-1.79954 2.49045,-4.45699 2.48226,-4.79672 z"
       inkscape:connector-curvature="0"
       style="fill:#ffa31e" />
    <path
       id="path37"
       d="m 39.678776,20.83475 c -1.51395,-2.00891 -4.02013,-0.2038 -2.33602,1.94471 0.0875,0.32129 2.89726,2.07162 4.16515,3.13706 -0.79934,-1.78449 -1.57447,-4.85676 -1.82913,-5.08177 z"
       inkscape:connector-curvature="0"
       style="fill:#fb5336" />
    <path
       id="path39"
       d="m 36.295866,23.96889 c -2.46488,-0.50215 -3.14671,2.51023 -0.46189,3.00425 0.27836,0.18274 3.54272,-0.36716 5.19832,-0.40883 -1.78087,-0.80737 -4.39662,-2.59554 -4.73643,-2.59542 z"
       inkscape:connector-curvature="0"
       style="fill:#eb60a4" />
  </g>
</svg>
