<?xml version="1.0" encoding="UTF-8" standalone="no"?>
<svg
   xmlns:dc="http://purl.org/dc/elements/1.1/"
   xmlns:cc="http://creativecommons.org/ns#"
   xmlns:rdf="http://www.w3.org/1999/02/22-rdf-syntax-ns#"
   xmlns:svg="http://www.w3.org/2000/svg"
   xmlns="http://www.w3.org/2000/svg"
   xmlns:sodipodi="http://sodipodi.sourceforge.net/DTD/sodipodi-0.dtd"
   xmlns:inkscape="http://www.inkscape.org/namespaces/inkscape"
   height="64"
   viewBox="0 0 64 64"
   width="64"
   version="1.1"
   id="svg31"
   sodipodi:docname="application-rss.svg"
   inkscape:version="0.92.5 (2060ec1f9f, 2020-04-08)">
  <metadata
     id="metadata37">
    <rdf:RDF>
      <cc:Work
         rdf:about="">
        <dc:format>image/svg+xml</dc:format>
        <dc:type
           rdf:resource="http://purl.org/dc/dcmitype/StillImage" />
      </cc:Work>
    </rdf:RDF>
  </metadata>
  <defs
     id="defs35" />
  <sodipodi:namedview
     pagecolor="#ffffff"
     bordercolor="#666666"
     borderopacity="1"
     objecttolerance="10"
     gridtolerance="10"
     guidetolerance="10"
     inkscape:pageopacity="0"
     inkscape:pageshadow="2"
     inkscape:window-width="1920"
     inkscape:window-height="934"
     id="namedview33"
     showgrid="false"
     inkscape:zoom="3.6875"
     inkscape:cx="3.9322034"
     inkscape:cy="32"
     inkscape:window-x="0"
     inkscape:window-y="35"
     inkscape:window-maximized="1"
     inkscape:current-layer="g29" />
  <linearGradient
     id="a"
     gradientTransform="matrix(1.0749904,0,0,0.8572265,56.688954,8.7933912)"
     gradientUnits="userSpaceOnUse"
     x1="-74.929466"
     x2="-75.259552"
     y1="52.199436"
     y2="2.356489">
    <stop
       offset="0"
       stop-color="#ff721a"
       id="stop2" />
    <stop
       offset="1"
       stop-color="#fbb521"
       id="stop4" />
  </linearGradient>
  <linearGradient
     gradientUnits="userSpaceOnUse"
     x1="283.0882"
     x2="276.28381"
     y1="773.44452"
     y2="-9.985648"
     id="linearGradient11">
    <stop
       offset="0"
       stop-color="#d3d3d3"
       id="stop7" />
    <stop
       offset="1"
       stop-color="#fcf9f9"
       id="stop9" />
  </linearGradient>
  <g
     transform="translate(56.391766 -.176777)"
     id="g29">
    <rect
       height="44"
       ry="2.082083"
       width="44"
       x="-46.391766"
       y="10.176777"
       id="rect15"
       style="fill:url(#a);stroke-width:0.91259694" />
    <path
       d="m -33.297689,21.176856 c 1.829308,0 3.590419,0.236687 5.283331,0.71006 1.692913,0.473374 3.277512,1.143318 4.753756,2.009833 1.476324,0.866514 2.820224,1.905529 4.031858,3.117045 1.211476,1.211516 2.250491,2.555416 3.117045,4.0317 0.866397,1.476402 1.536341,3.060961 2.009833,4.753913 0.473413,1.692874 0.7101,3.453866 0.7101,5.283332 0,0.577677 -0.204555,1.070951 -0.613742,1.480257 -0.409188,0.409305 -0.90258,0.613702 -1.480257,0.613702 -0.577715,0 -1.071108,-0.204476 -1.480414,-0.613702 -0.409108,-0.409188 -0.613702,-0.90258 -0.613702,-1.480257 0,-1.444309 -0.188587,-2.83627 -0.565681,-4.176276 -0.377094,-1.339731 -0.906749,-2.591481 -1.588728,-3.754857 -0.681979,-1.163416 -1.500236,-2.222489 -2.455125,-3.17726 -0.95481,-0.95477 -2.013804,-1.773145 -3.17722,-2.455124 -1.163376,-0.681979 -2.415008,-1.211516 -3.754896,-1.58861 -1.339889,-0.377095 -2.731928,-0.565642 -4.176119,-0.565642 -0.577676,0 -1.071108,-0.204594 -1.480296,-0.613781 -0.409187,-0.409187 -0.613781,-0.902619 -0.613781,-1.480296 0,-0.577676 0.204594,-1.071108 0.613781,-1.480295 0.409149,-0.409148 0.90258,-0.613742 1.480257,-0.613742 z m 0,7.91898 c 1.652796,0 3.205301,0.31692 4.657515,0.950759 1.452215,0.63384 2.719893,1.492331 3.803037,2.575474 1.083182,1.083183 1.941674,2.350783 2.575474,3.802918 0.633878,1.452372 0.950759,3.00472 0.950759,4.657674 0,0.577676 -0.204555,1.070951 -0.613703,1.480256 -0.409187,0.409187 -0.90258,0.613703 -1.480414,0.613703 -0.577676,0 -1.071069,-0.204476 -1.480256,-0.613703 -0.409188,-0.409187 -0.613781,-0.90258 -0.613781,-1.480256 0,-1.075199 -0.204594,-2.086093 -0.613781,-3.032841 -0.409188,-0.946747 -0.966806,-1.773145 -1.672855,-2.479155 -0.706049,-0.706088 -1.532447,-1.263706 -2.479194,-1.672894 -0.946748,-0.409109 -1.957681,-0.613702 -3.032801,-0.613702 -0.577677,0 -1.071108,-0.204555 -1.480296,-0.613742 -0.409187,-0.409227 -0.613781,-0.902659 -0.613781,-1.480335 0,-0.577677 0.204594,-1.071109 0.613781,-1.480296 0.409188,-0.409266 0.902619,-0.61386 1.480296,-0.61386 z m 3.851175,10.999882 c 0,0.41725 -0.07622,0.802328 -0.228663,1.155392 -0.152443,0.353143 -0.361048,0.661921 -0.625816,0.926729 -0.264769,0.26465 -0.577677,0.473334 -0.938724,0.625816 -0.361048,0.152403 -0.742154,0.228545 -1.143318,0.228545 -0.417211,0 -0.802328,-0.07622 -1.155353,-0.228545 -0.353024,-0.152403 -0.66192,-0.361205 -0.926689,-0.625816 -0.264768,-0.264769 -0.473374,-0.573665 -0.625816,-0.926729 -0.152442,-0.353064 -0.228664,-0.738142 -0.228664,-1.155392 0,-0.401046 0.07622,-0.782231 0.228664,-1.14316 0.152442,-0.361206 0.361048,-0.674074 0.625816,-0.938764 0.264769,-0.264768 0.573665,-0.473334 0.926689,-0.625816 0.353025,-0.152403 0.738142,-0.228664 1.155353,-0.228664 0.401164,0 0.78227,0.07626 1.143318,0.228664 0.361047,0.152482 0.673955,0.361048 0.938724,0.625816 0.264768,0.26469 0.473373,0.577676 0.625816,0.938764 0.152442,0.360969 0.228663,0.742035 0.228663,1.14316 z"
       id="path27"
       inkscape:connector-curvature="0"
       style="fill:#692c0b;stroke-width:0.03932982" />
  </g>
</svg>
