<?xml version="1.0" encoding="UTF-8" standalone="no"?>
<svg
   xmlns:dc="http://purl.org/dc/elements/1.1/"
   xmlns:cc="http://creativecommons.org/ns#"
   xmlns:rdf="http://www.w3.org/1999/02/22-rdf-syntax-ns#"
   xmlns:svg="http://www.w3.org/2000/svg"
   xmlns="http://www.w3.org/2000/svg"
   xmlns:sodipodi="http://sodipodi.sourceforge.net/DTD/sodipodi-0.dtd"
   xmlns:inkscape="http://www.inkscape.org/namespaces/inkscape"
   height="64"
   viewBox="0 0 64 64"
   width="64"
   version="1.1"
   id="svg23"
   sodipodi:docname="application-vnd.comicbook+zip.svg"
   inkscape:version="0.92.5 (2060ec1f9f, 2020-04-08)">
  <metadata
     id="metadata29">
    <rdf:RDF>
      <cc:Work
         rdf:about="">
        <dc:format>image/svg+xml</dc:format>
        <dc:type
           rdf:resource="http://purl.org/dc/dcmitype/StillImage" />
      </cc:Work>
    </rdf:RDF>
  </metadata>
  <defs
     id="defs27" />
  <sodipodi:namedview
     pagecolor="#ffffff"
     bordercolor="#666666"
     borderopacity="1"
     objecttolerance="10"
     gridtolerance="10"
     guidetolerance="10"
     inkscape:pageopacity="0"
     inkscape:pageshadow="2"
     inkscape:window-width="1920"
     inkscape:window-height="915"
     id="namedview25"
     showgrid="false"
     inkscape:zoom="3.6875"
     inkscape:cx="-7.1864407"
     inkscape:cy="32"
     inkscape:window-x="0"
     inkscape:window-y="35"
     inkscape:window-maximized="1"
     inkscape:current-layer="svg23" />
  <linearGradient
     id="a"
     gradientTransform="matrix(1.0749904,0,0,1.0292896,113.08072,3.9230846)"
     gradientUnits="userSpaceOnUse"
     x1="-74.929466"
     x2="-75.259552"
     y1="52.199436"
     y2="2.356489">
    <stop
       offset="0"
       stop-color="#f9b527"
       id="stop2" />
    <stop
       offset="1"
       stop-color="#ffd93b"
       id="stop4" />
  </linearGradient>
  <rect
     height="52.831711"
     ry="2.5"
     width="44"
     x="10"
     y="5.5841446"
     id="rect9"
     style="fill:url(#a)" />
  <path
     d="M 40.801118,23.965324 C 38.447111,22.053066 35.321485,21 32.000073,21 c -3.321471,0 -6.447102,1.053139 -8.801046,2.965324 -2.37448,1.92886 -3.682166,4.499518 -3.682166,7.238523 0,2.614204 1.192001,5.074634 3.36497,6.970368 -0.03919,0.08796 -0.07028,0.180508 -0.09013,0.277811 l -0.714006,3.505673 c -0.08489,0.416633 0.02923,0.665068 0.139746,0.800203 C 22.345253,42.913984 22.5347,43 22.750935,43 c 0.163259,0 0.338724,-0.04808 0.521558,-0.142954 l 4.152938,-2.153547 c 1.437821,0.461952 2.983567,0.704181 4.57456,0.704181 3.321485,0 6.447033,-1.05312 8.801055,-2.965305 2.374407,-1.928801 3.682093,-4.499464 3.682093,-7.238464 0,-2.739069 -1.307623,-5.309727 -3.68203,-7.238587 z"
     id="path13"
     inkscape:connector-curvature="0"
     style="fill:#6d5112;stroke-width:0.487593" />
</svg>
