<?xml version="1.0" encoding="UTF-8" standalone="no"?>
<svg
   xmlns:dc="http://purl.org/dc/elements/1.1/"
   xmlns:cc="http://creativecommons.org/ns#"
   xmlns:rdf="http://www.w3.org/1999/02/22-rdf-syntax-ns#"
   xmlns:svg="http://www.w3.org/2000/svg"
   xmlns="http://www.w3.org/2000/svg"
   xmlns:sodipodi="http://sodipodi.sourceforge.net/DTD/sodipodi-0.dtd"
   xmlns:inkscape="http://www.inkscape.org/namespaces/inkscape"
   height="64"
   viewBox="0 0 64 64"
   width="64"
   version="1.1"
   id="svg29"
   sodipodi:docname="application-ascii.svg"
   inkscape:version="0.92.5 (2060ec1f9f, 2020-04-08)">
  <metadata
     id="metadata35">
    <rdf:RDF>
      <cc:Work
         rdf:about="">
        <dc:format>image/svg+xml</dc:format>
        <dc:type
           rdf:resource="http://purl.org/dc/dcmitype/StillImage" />
      </cc:Work>
    </rdf:RDF>
  </metadata>
  <defs
     id="defs33" />
  <sodipodi:namedview
     pagecolor="#ffffff"
     bordercolor="#666666"
     borderopacity="1"
     objecttolerance="10"
     gridtolerance="10"
     guidetolerance="10"
     inkscape:pageopacity="0"
     inkscape:pageshadow="2"
     inkscape:window-width="1920"
     inkscape:window-height="934"
     id="namedview31"
     showgrid="false"
     inkscape:zoom="3.6875"
     inkscape:cx="32"
     inkscape:cy="32"
     inkscape:window-x="0"
     inkscape:window-y="35"
     inkscape:window-maximized="1"
     inkscape:current-layer="svg29" />
  <linearGradient
     id="a"
     gradientTransform="matrix(1.0749904,0,0,0.8572265,113.08072,8.6166142)"
     gradientUnits="userSpaceOnUse"
     x1="-74.929466"
     x2="-75.259552"
     y1="52.199436"
     y2="2.356489">
    <stop
       offset="0"
       stop-color="#d1d7df"
       id="stop2" />
    <stop
       offset="1"
       stop-color="#e0e5e7"
       id="stop4" />
  </linearGradient>
  <rect
     style="fill:url(#a);stroke-width:0.91259694"
     id="rect9"
     y="10"
     x="10"
     width="44"
     ry="2.082083"
     height="44" />
  <path
     style="fill:#3d434a;stroke-width:0.27500001"
     inkscape:connector-curvature="0"
     id="path25"
     d="m 38.6,34.2 h -2.2 v -4.4 h 2.2 c 2.4299,0 4.4,-1.9701 4.4,-4.4 0,-2.4299 -1.9701,-4.4 -4.4,-4.4 -2.430175,0 -4.4,1.9701 -4.4,4.4 v 2.2 h -4.4 v -2.2 c 0,-2.4299 -1.9701,-4.4 -4.4,-4.4 -2.4299,0 -4.4,1.9701 -4.4,4.4 0,2.4299 1.9701,4.4 4.4,4.4 h 2.2 v 4.4 h -2.2 c -2.4299,0 -4.4,1.9701 -4.4,4.4 0,2.4299 1.9701,4.4 4.4,4.4 2.430175,0 4.4,-1.9701 4.4,-4.4 v -2.2 h 4.4 v 2.1945 c 0,0.0022 -2.75e-4,0.0039 -2.75e-4,0.0055 0,2.4299 1.9701,4.4 4.4,4.4 2.4299,0 4.4,-1.9701 4.4,-4.4 0,-2.4299 -1.969825,-4.39945 -4.399725,-4.4 z m 0,-11 c 1.21495,0 2.2,0.98505 2.2,2.2 0,1.21495 -0.98505,2.2 -2.2,2.2 h -2.2 v -2.2 c 0,-1.21495 0.98505,-2.2 2.2,-2.2 z m -15.4,2.2 c 0,-1.21495 0.98505,-2.2 2.2,-2.2 1.21495,0 2.2,0.98505 2.2,2.2 v 2.2 h -2.2 c -1.21495,0 -2.2,-0.985325 -2.2,-2.2 z m 2.2,15.4 c -1.21495,0 -2.2,-0.98505 -2.2,-2.2 0,-1.21495 0.98505,-2.2 2.2,-2.2 h 2.2 v 2.2 c 0,1.21495 -0.98505,2.2 -2.2,2.2 z m 4.4,-6.6 v -4.4 h 4.4 v 4.4 z m 8.8,6.6 c -1.21495,0 -2.2,-0.98505 -2.2,-2.2 v -2.2 h 2.199725 c 1.21495,0 2.2,0.98505 2.2,2.2 0,1.21495 -0.984775,2.2 -2.199725,2.2 z" />
</svg>
