<?xml version="1.0" encoding="UTF-8" standalone="no"?>
<svg
   xmlns:dc="http://purl.org/dc/elements/1.1/"
   xmlns:cc="http://creativecommons.org/ns#"
   xmlns:rdf="http://www.w3.org/1999/02/22-rdf-syntax-ns#"
   xmlns:svg="http://www.w3.org/2000/svg"
   xmlns="http://www.w3.org/2000/svg"
   xmlns:sodipodi="http://sodipodi.sourceforge.net/DTD/sodipodi-0.dtd"
   xmlns:inkscape="http://www.inkscape.org/namespaces/inkscape"
   height="64"
   viewBox="0 0 64 64"
   width="64"
   version="1.1"
   id="svg53"
   sodipodi:docname="application-vnd.ms-cab-compressed.svg"
   inkscape:version="0.92.5 (2060ec1f9f, 2020-04-08)">
  <metadata
     id="metadata59">
    <rdf:RDF>
      <cc:Work
         rdf:about="">
        <dc:format>image/svg+xml</dc:format>
        <dc:type
           rdf:resource="http://purl.org/dc/dcmitype/StillImage" />
      </cc:Work>
    </rdf:RDF>
  </metadata>
  <defs
     id="defs57" />
  <sodipodi:namedview
     pagecolor="#ffffff"
     bordercolor="#666666"
     borderopacity="1"
     objecttolerance="10"
     gridtolerance="10"
     guidetolerance="10"
     inkscape:pageopacity="0"
     inkscape:pageshadow="2"
     inkscape:window-width="1920"
     inkscape:window-height="915"
     id="namedview55"
     showgrid="false"
     inkscape:zoom="3.6875"
     inkscape:cx="-7.1864407"
     inkscape:cy="32"
     inkscape:window-x="0"
     inkscape:window-y="35"
     inkscape:window-maximized="1"
     inkscape:current-layer="g51" />
  <linearGradient
     id="a"
     gradientTransform="matrix(1.0749904,0,0,1.0292896,56.688954,4.0998616)"
     gradientUnits="userSpaceOnUse"
     x1="-74.929466"
     x2="-75.259552"
     y1="52.199436"
     y2="2.356489">
    <stop
       offset="0"
       stop-color="#d1d7df"
       id="stop2" />
    <stop
       offset="1"
       stop-color="#e0e5e7"
       id="stop4" />
  </linearGradient>
  <g
     transform="translate(56.391766 -.176777)"
     id="g51">
    <rect
       height="52.831711"
       ry="2.5"
       width="44"
       x="-46.391766"
       y="5.7609215"
       id="rect9"
       style="fill:url(#a)" />
    <g
       transform="matrix(0.55000042,0,0,0.55000042,-249.10623,-255.91234)"
       id="g49">
      <rect
         height="39.999969"
         ry="1.9999959"
         width="36"
         x="390.57144"
         y="503.798"
         id="rect29"
         style="fill:#3d434a" />
      <g
         id="g47"
         style="fill:#ffffff">
        <g
           id="g41">
          <rect
             height="2"
             ry="0.88864797"
             width="4"
             x="406.64319"
             y="504.90936"
             id="rect31"
             style="opacity:0.92900002" />
          <rect
             height="2"
             ry="0.88864797"
             width="4"
             x="406.63483"
             y="507.802"
             id="rect33"
             style="opacity:0.92900002" />
          <rect
             height="2"
             ry="0.88864797"
             width="4"
             x="406.60974"
             y="510.65979"
             id="rect35"
             style="opacity:0.92900002" />
          <rect
             height="2"
             ry="0.88864797"
             width="4"
             x="406.65356"
             y="513.6347"
             id="rect37"
             style="opacity:0.92900002" />
          <rect
             height="2"
             ry="0.88864797"
             width="4"
             x="406.65356"
             y="516.55743"
             id="rect39"
             style="opacity:0.92900002" />
        </g>
        <rect
           height="2"
           ry="0.88864797"
           width="4"
           x="406.6535"
           y="519.54907"
           id="rect43"
           style="opacity:0.92900002" />
        <path
           d="m 410.11783,524.47214 v -1.26212 c 0,-0.35164 -0.28416,-0.63683 -0.63453,-0.63683 h -1.76295 c -0.35037,0 -0.6346,0.28526 -0.6346,0.63683 v 1.2615 l -0.98056,2.89118 c -0.27435,0.80579 -0.14271,1.70105 0.35164,2.39489 0.49436,0.69257 1.29597,1.10622 2.14496,1.10622 0.84916,0 1.65084,-0.41365 2.14519,-1.10622 0.49435,-0.69384 0.62583,-1.5891 0.35156,-2.39426 z m -0.40955,4.53977 c -0.50867,0.71448 -1.70431,0.71448 -2.21306,0 -0.25497,-0.35792 -0.32285,-0.8196 -0.18195,-1.23564 l 0.32909,-0.96974 h 1.91878 l 0.32918,0.97037 c 0.14096,0.41541 0.0729,0.87709 -0.18204,1.23501 z"
           id="path45"
           inkscape:connector-curvature="0" />
      </g>
    </g>
  </g>
</svg>
