<?xml version="1.0" encoding="UTF-8" standalone="no"?>
<svg
   xmlns:dc="http://purl.org/dc/elements/1.1/"
   xmlns:cc="http://creativecommons.org/ns#"
   xmlns:rdf="http://www.w3.org/1999/02/22-rdf-syntax-ns#"
   xmlns:svg="http://www.w3.org/2000/svg"
   xmlns="http://www.w3.org/2000/svg"
   xmlns:sodipodi="http://sodipodi.sourceforge.net/DTD/sodipodi-0.dtd"
   xmlns:inkscape="http://www.inkscape.org/namespaces/inkscape"
   height="64"
   viewBox="0 0 64 64"
   width="64"
   version="1.1"
   id="svg41"
   sodipodi:docname="application-vnd.appimage.svg"
   inkscape:version="0.92.5 (2060ec1f9f, 2020-04-08)">
  <metadata
     id="metadata47">
    <rdf:RDF>
      <cc:Work
         rdf:about="">
        <dc:format>image/svg+xml</dc:format>
        <dc:type
           rdf:resource="http://purl.org/dc/dcmitype/StillImage" />
      </cc:Work>
    </rdf:RDF>
  </metadata>
  <defs
     id="defs45" />
  <sodipodi:namedview
     pagecolor="#ffffff"
     bordercolor="#666666"
     borderopacity="1"
     objecttolerance="10"
     gridtolerance="10"
     guidetolerance="10"
     inkscape:pageopacity="0"
     inkscape:pageshadow="2"
     inkscape:window-width="1920"
     inkscape:window-height="934"
     id="namedview43"
     showgrid="false"
     inkscape:zoom="3.6875"
     inkscape:cx="3.9322034"
     inkscape:cy="32"
     inkscape:window-x="0"
     inkscape:window-y="35"
     inkscape:window-maximized="1"
     inkscape:current-layer="g21" />
  <linearGradient
     id="a"
     gradientTransform="matrix(1.0749904,0,0,0.8572265,52.621156,8.2510186)"
     gradientUnits="userSpaceOnUse"
     x1="-74.929466"
     x2="-75.259552"
     y1="52.199436"
     y2="2.356489">
    <stop
       offset="0"
       stop-color="#8cbdf8"
       id="stop2" />
    <stop
       offset="1"
       stop-color="#d5e8ff"
       id="stop4" />
  </linearGradient>
  <g
     transform="translate(60.459563,0.36559588)"
     id="g21">
    <rect
       height="44"
       ry="2.082083"
       width="44"
       x="-50.459564"
       y="9.6344042"
       id="rect9"
       style="fill:url(#a);stroke-width:0.91259694" />
    <g
       id="g19"
       style="fill:#3f546c"
       transform="translate(-4.0678014,4.2891962)">
      <g
         transform="matrix(3.124986,0,0,3.124986,155.64526,-77.867766)"
         id="g17">
        <path
           d="m -58.512127,28.868281 v 1.800007 h -0.956246 l 1.856242,2.100009 1.856243,-2.100009 h -0.956246 v -1.800007 z"
           id="path13"
           inkscape:connector-curvature="0" />
        <path
           d="m -57.940229,33.068299 c -0.05187,0 -0.08437,0.08847 -0.08437,0.196875 v 0.68438 c -0.208817,0.04755 -0.405463,0.13271 -0.581249,0.243749 l -0.487497,-0.4875 c -0.07666,-0.07666 -0.1602,-0.111678 -0.196875,-0.07501 l -0.459373,0.459377 c -0.03668,0.03667 -0.0017,0.120227 0.075,0.196876 l 0.487498,0.487502 c -0.111038,0.175789 -0.196199,0.372439 -0.243748,0.581253 h -0.684372 c -0.108397,0 -0.196874,0.03252 -0.196874,0.08438 v 0.656253 c 0,0.05187 0.08848,0.08438 0.196874,0.08438 h 0.684373 c 0.04755,0.208816 0.13271,0.405466 0.243748,0.581254 l -0.487498,0.487501 c -0.07664,0.07666 -0.111676,0.160201 -0.075,0.196876 l 0.459373,0.459378 c 0.03667,0.03668 0.120224,0.0017 0.196875,-0.075 l 0.487498,-0.487504 c 0.175785,0.111041 0.372433,0.196202 0.581248,0.243751 v 0.684378 c 0,0.108398 0.03252,0.196876 0.08438,0.196876 h 0.656247 c 0.05186,0 0.08438,-0.08847 0.08438,-0.196876 V 37.58707 c 0.208815,-0.04755 0.405464,-0.132711 0.581248,-0.243751 l 0.487498,0.487503 c 0.07665,0.07666 0.160199,0.111676 0.196874,0.075 l 0.459374,-0.459375 c 0.03667,-0.03667 0.0017,-0.120226 -0.075,-0.196877 l -0.487517,-0.487502 c 0.111038,-0.175788 0.1962,-0.372438 0.243748,-0.581254 h 0.684373 c 0.108397,0 0.196872,-0.03252 0.196872,-0.08438 v -0.656253 c 0,-0.05186 -0.08847,-0.08438 -0.196872,-0.08438 h -0.684375 c -0.04755,-0.208814 -0.132709,-0.405464 -0.243748,-0.581251 l 0.487498,-0.487503 c 0.07665,-0.07666 0.111677,-0.160198 0.07501,-0.196876 l -0.459372,-0.459377 c -0.03667,-0.03667 -0.120224,-0.0017 -0.196873,0.07501 l -0.487499,0.4875 c -0.175793,-0.111042 -0.372441,-0.196205 -0.581258,-0.243752 v -0.68438 c 0,-0.108399 -0.03252,-0.196875 -0.08438,-0.196875 z m 0.328124,1.865633 c 0.45858,0 0.834368,0.375792 0.834368,0.834377 0,0.458588 -0.375789,0.834379 -0.834368,0.834379 -0.458583,0 -0.834373,-0.375791 -0.834373,-0.834379 0,-0.458585 0.37579,-0.834377 0.834373,-0.834377 z"
           id="path15"
           inkscape:connector-curvature="0" />
      </g>
    </g>
  </g>
</svg>
