<?xml version="1.0" encoding="UTF-8" standalone="no"?>
<svg
   xmlns:dc="http://purl.org/dc/elements/1.1/"
   xmlns:cc="http://creativecommons.org/ns#"
   xmlns:rdf="http://www.w3.org/1999/02/22-rdf-syntax-ns#"
   xmlns:svg="http://www.w3.org/2000/svg"
   xmlns="http://www.w3.org/2000/svg"
   xmlns:sodipodi="http://sodipodi.sourceforge.net/DTD/sodipodi-0.dtd"
   xmlns:inkscape="http://www.inkscape.org/namespaces/inkscape"
   height="64"
   viewBox="0 0 64 64"
   width="64"
   version="1.1"
   id="svg25"
   sodipodi:docname="application-illustrator.svg"
   inkscape:version="0.92.5 (2060ec1f9f, 2020-04-08)">
  <metadata
     id="metadata31">
    <rdf:RDF>
      <cc:Work
         rdf:about="">
        <dc:format>image/svg+xml</dc:format>
        <dc:type
           rdf:resource="http://purl.org/dc/dcmitype/StillImage" />
      </cc:Work>
    </rdf:RDF>
  </metadata>
  <defs
     id="defs29" />
  <sodipodi:namedview
     pagecolor="#ffffff"
     bordercolor="#666666"
     borderopacity="1"
     objecttolerance="10"
     gridtolerance="10"
     guidetolerance="10"
     inkscape:pageopacity="0"
     inkscape:pageshadow="2"
     inkscape:window-width="1920"
     inkscape:window-height="934"
     id="namedview27"
     showgrid="false"
     inkscape:zoom="3.6875"
     inkscape:cx="32"
     inkscape:cy="32"
     inkscape:window-x="0"
     inkscape:window-y="35"
     inkscape:window-maximized="1"
     inkscape:current-layer="g21" />
  <linearGradient
     id="a"
     gradientTransform="matrix(1.0749904,0,0,0.8572265,113.08073,8.616614)"
     gradientUnits="userSpaceOnUse"
     x1="-74.929466"
     x2="-75.259552"
     y1="52.199436"
     y2="2.356489">
    <stop
       offset="0"
       stop-color="#ffa400"
       id="stop2" />
    <stop
       offset="1"
       stop-color="#fd0"
       id="stop4" />
  </linearGradient>
  <rect
     style="fill:url(#a);stroke-width:0.91259694"
     id="rect9"
     y="10"
     x="10"
     width="44"
     ry="2.082083"
     height="44" />
  <g
     style="fill:#ffffff"
     id="g21"
     transform="matrix(0.81954967,0,0,0.81954967,33.105592,-1.3870386)">
    <path
       style="fill:#6f4a00;stroke-width:0.07225513"
       inkscape:connector-curvature="0"
       id="path19"
       d="m -11.617309,52.941768 h 8.672711 v 1.126385 H 0.20912167 V 52.941768 H 8.9192608 v 1.27328 H 12.072909 V 51.0614 h -1.163597 v -8.81975 h 1.126313 v -3.15372 h -1.126313 v -8.187879 h 1.163669 v -3.15372 H 8.9193331 v 0.641481 H 0.20919393 V 27.261499 H -2.9445257 v 1.126313 h -8.6727833 v -0.788448 h -3.153719 v 3.15372 h 1.126313 v 8.334846 h -1.126313 v 3.15372 h 1.126313 v 8.672711 h -1.126313 v 3.153792 h 3.153719 z m -0.901021,0 v 0.225291 h -1.351605 v -1.351604 h 0.225292 0.901094 0.225291 v 0.225291 0.901022 z M -2.0435043,28.387812 v -0.225291 h 1.3516045 v 0.225291 0.471176 0.429846 0.225219 h -1.3516045 v -0.225219 -0.429846 z m 1.3516045,24.553956 v 0.225291 h -1.3516045 v -0.225291 -0.471176 -0.429774 -0.225291 h 1.3516045 v 0.225291 0.429774 z m 0.15007391,-11.770072 c 0.0875732,0.08801 0.0875732,0.230494 0,0.318501 -0.0444369,0.04393 -0.10159072,0.06597 -0.15968384,0.06597 -0.0572261,0 -0.11510242,-0.02204 -0.15932256,-0.06597 l -0.50679751,-0.50687 -0.5068697,0.50687 c -0.04422,0.04393 -0.1018075,0.06597 -0.1594671,0.06597 -0.05766,0 -0.1152469,-0.02204 -0.1595393,-0.06597 -0.087718,-0.08801 -0.087718,-0.230494 0,-0.318501 l 0.5068697,-0.50687 -0.5068697,-0.506869 c -0.087718,-0.08772 -0.087718,-0.230783 0,-0.318573 0.08779,-0.08779 0.2307829,-0.08779 0.3185728,0 l 0.5073033,0.506869 0.50679751,-0.506869 c 0.0880068,-0.08779 0.23056612,-0.08779 0.31857287,0 0.0880067,0.08779 0.0880067,0.230783 0,0.318573 L -1.0491292,40.664826 Z M 11.171959,53.313954 H 9.8204268 v -0.372186 -0.901022 -0.07832 h 0.1878632 0.901094 0.262648 v 1.351532 z M 8.9193331,51.0614 v 0.979418 H 1.8634751 C 5.7959606,50.92585 8.8933935,47.828489 10.00829,43.89557 V 51.0614 Z M 11.134531,41.340629 H 10.909312 10.438136 10.00829 9.7830709 v -1.351605 h 0.2252191 0.429846 0.471176 0.225219 z M 9.8204268,28.647425 h 1.0888852 0.262647 v 1.351604 H 10.909312 10.008218 9.8203545 v -0.710123 -0.641481 z m -0.9010937,0.641481 v 1.611145 h 1.0888849 v 6.534032 C 8.8933212,33.500947 5.7958883,30.403947 1.8634029,29.288834 h 7.0559302 z m -22.7892681,-0.78852 h 0.225292 1.126313 v 0.788448 0.563156 h -0.225292 -0.901093 -0.225292 v -1.351604 z m 2.252626,2.252698 v -1.464178 h 7.0184298 c -3.9327022,1.115041 -7.0296288,4.212041 -8.1447428,8.144743 v -6.680565 z m -2.252626,9.235868 h 0.225292 0.471176 0.429845 0.225292 v 1.351604 h -0.225292 -0.429845 -0.471176 -0.225292 z m 1.126313,3.906618 c 1.115114,3.932919 4.2120406,7.03028 8.1448151,8.145248 h -7.0185021 v -1.126385 h -1.126313 z" />
  </g>
</svg>
