<?xml version="1.0" encoding="UTF-8" standalone="no"?>
<svg
   xmlns:dc="http://purl.org/dc/elements/1.1/"
   xmlns:cc="http://creativecommons.org/ns#"
   xmlns:rdf="http://www.w3.org/1999/02/22-rdf-syntax-ns#"
   xmlns:svg="http://www.w3.org/2000/svg"
   xmlns="http://www.w3.org/2000/svg"
   xmlns:sodipodi="http://sodipodi.sourceforge.net/DTD/sodipodi-0.dtd"
   xmlns:inkscape="http://www.inkscape.org/namespaces/inkscape"
   height="64"
   viewBox="0 0 64 64"
   width="64"
   version="1.1"
   id="svg27"
   sodipodi:docname="application-text-template.svg"
   inkscape:version="0.92.5 (2060ec1f9f, 2020-04-08)">
  <metadata
     id="metadata33">
    <rdf:RDF>
      <cc:Work
         rdf:about="">
        <dc:format>image/svg+xml</dc:format>
        <dc:type
           rdf:resource="http://purl.org/dc/dcmitype/StillImage" />
      </cc:Work>
    </rdf:RDF>
  </metadata>
  <defs
     id="defs31" />
  <sodipodi:namedview
     pagecolor="#ffffff"
     bordercolor="#666666"
     borderopacity="1"
     objecttolerance="10"
     gridtolerance="10"
     guidetolerance="10"
     inkscape:pageopacity="0"
     inkscape:pageshadow="2"
     inkscape:window-width="640"
     inkscape:window-height="480"
     id="namedview29"
     showgrid="false"
     inkscape:zoom="3.6875"
     inkscape:cx="-7.1864407"
     inkscape:cy="32"
     inkscape:window-x="1078"
     inkscape:window-y="402"
     inkscape:window-maximized="0"
     inkscape:current-layer="g25" />
  <linearGradient
     id="a"
     gradientTransform="matrix(1.0749904,0,0,1.0292896,56.688954,4.0998616)"
     gradientUnits="userSpaceOnUse"
     x1="-74.929466"
     x2="-75.259552"
     y1="52.199436"
     y2="2.356489">
    <stop
       offset="0"
       stop-color="#8798a9"
       id="stop2" />
    <stop
       offset="1"
       stop-color="#aeb6be"
       id="stop4" />
  </linearGradient>
  <g
     transform="translate(56.391766 -.176777)"
     id="g25">
    <rect
       height="52.831711"
       ry="2.5"
       width="44"
       x="-46.391766"
       y="5.7609215"
       id="rect9"
       style="fill:url(#a)" />
    <path
       d="m -24.586357,23.140267 -8.242431,10.549824 c -1.545463,1.978092 -1.112816,5.501646 0.865261,7.047109 1.97811,1.545447 5.50165,1.112818 7.047113,-0.865274 l 8.242431,-10.54984 1.030283,-1.318728 c 1.030313,-1.318728 0.741893,-3.667759 -0.576826,-4.698062 -1.318734,-1.030304 -3.667766,-0.741895 -4.698064,0.576849 l -1.030314,1.318728 -6.18182,7.912368 -1.030298,1.318728 c -0.515164,0.659364 -0.370938,1.833888 0.288421,2.349047 0.659359,0.515128 1.833883,0.370939 2.349032,-0.288425 l 7.212118,-9.231111 1.318734,1.030303 -7.212117,9.231096 c -1.030314,1.318744 -3.379347,1.607168 -4.698065,0.576849 -1.318734,-1.030303 -1.607171,-3.379334 -0.576873,-4.698062 l 1.030314,-1.318728 7.212133,-9.231096 c 1.545447,-1.978108 5.068988,-2.410721 7.047097,-0.865274 1.978094,1.545447 2.41074,5.069001 0.865278,7.047093 l -1.030298,1.318744 -8.242432,10.549809 c -2.060627,2.637471 -6.758692,3.214321 -9.396145,1.153714 -2.637452,-2.060622 -3.214309,-6.758669 -1.153698,-9.396141 l 8.242432,-10.549824 z"
       id="path23"
       inkscape:connector-curvature="0"
       style="fill:#3d434a;stroke-width:1.56935012" />
  </g>
</svg>
