<?xml version="1.0" encoding="UTF-8" standalone="no"?>
<svg
   xmlns:dc="http://purl.org/dc/elements/1.1/"
   xmlns:cc="http://creativecommons.org/ns#"
   xmlns:rdf="http://www.w3.org/1999/02/22-rdf-syntax-ns#"
   xmlns:svg="http://www.w3.org/2000/svg"
   xmlns="http://www.w3.org/2000/svg"
   xmlns:sodipodi="http://sodipodi.sourceforge.net/DTD/sodipodi-0.dtd"
   xmlns:inkscape="http://www.inkscape.org/namespaces/inkscape"
   height="64"
   viewBox="0 0 64 64"
   width="64"
   version="1.1"
   id="svg33"
   sodipodi:docname="application-vnd.oasis.opendocument.draw.template.svg"
   inkscape:version="0.92.5 (2060ec1f9f, 2020-04-08)">
  <metadata
     id="metadata39">
    <rdf:RDF>
      <cc:Work
         rdf:about="">
        <dc:format>image/svg+xml</dc:format>
        <dc:type
           rdf:resource="http://purl.org/dc/dcmitype/StillImage" />
      </cc:Work>
    </rdf:RDF>
  </metadata>
  <defs
     id="defs37" />
  <sodipodi:namedview
     pagecolor="#ffffff"
     bordercolor="#666666"
     borderopacity="1"
     objecttolerance="10"
     gridtolerance="10"
     guidetolerance="10"
     inkscape:pageopacity="0"
     inkscape:pageshadow="2"
     inkscape:window-width="1920"
     inkscape:window-height="915"
     id="namedview35"
     showgrid="false"
     inkscape:zoom="3.6875"
     inkscape:cx="-7.1864407"
     inkscape:cy="32"
     inkscape:window-x="0"
     inkscape:window-y="35"
     inkscape:window-maximized="1"
     inkscape:current-layer="g31" />
  <linearGradient
     id="a"
     gradientTransform="matrix(1.0749904,0,0,1.0292896,56.688954,4.0998616)"
     gradientUnits="userSpaceOnUse"
     x1="-74.929466"
     x2="-75.259552"
     y1="52.199436"
     y2="2.356489">
    <stop
       offset="0"
       stop-color="#8798a9"
       id="stop2" />
    <stop
       offset="1"
       stop-color="#aeb6be"
       id="stop4" />
  </linearGradient>
  <g
     transform="translate(56.391766 -.176777)"
     id="g31">
    <rect
       height="52.831711"
       ry="2.5"
       width="44"
       x="-46.391766"
       y="5.7609215"
       id="rect9"
       style="fill:url(#a)" />
    <g
       transform="matrix(0.81954967,0,0,0.81954967,-4.3342835,15.676887)"
       id="g29"
       style="fill:#ffffff">
      <path
         d="M 44.405,355.411 H 164.434 V 371 h 43.647 v -15.589 h 120.547 v 17.622 h 43.646 V 329.387 H 356.17 V 207.323 h 15.588 V 163.676 H 356.17 V 50.357 h 16.105 V 6.71 h -43.646 v 8.878 H 208.082 V 0 H 164.435 V 15.588 H 44.405 V 4.676 H 0.758 V 48.323 H 16.346 V 163.676 H 0.758 v 43.647 H 16.346 V 327.352 H 0.758 V 371 h 43.647 z m -12.47,0 v 3.118 H 13.229 v -18.706 h 3.118 12.471 3.118 v 3.118 12.47 z M 176.905,15.588 V 12.47 h 18.706 v 3.118 6.521 5.949 3.117 h -18.706 v -3.117 -5.949 z m 18.706,339.823 v 3.118 h -18.706 v -3.118 -6.521 -5.948 -3.118 h 18.706 v 3.118 5.948 z m 2.077,-162.896 c 1.212,1.218 1.212,3.19 0,4.408 -0.615,0.608 -1.406,0.913 -2.21,0.913 -0.792,0 -1.593,-0.305 -2.205,-0.913 l -7.014,-7.015 -7.015,7.015 c -0.612,0.608 -1.409,0.913 -2.207,0.913 -0.798,0 -1.595,-0.305 -2.208,-0.913 -1.214,-1.218 -1.214,-3.19 0,-4.408 l 7.015,-7.015 -7.015,-7.015 c -1.214,-1.214 -1.214,-3.194 0,-4.409 1.215,-1.215 3.194,-1.215 4.409,0 l 7.021,7.015 7.014,-7.015 c 1.218,-1.215 3.191,-1.215 4.409,0 1.218,1.215 1.218,3.194 0,4.409 l -7.015,7.015 z M 359.805,360.562 H 341.1 v -5.151 -12.47 -1.084 h 2.6 12.471 3.635 v 18.705 z m -31.176,-31.175 v 13.555 H 230.977 C 285.402,327.511 328.27,284.644 343.7,230.213 v 99.174 z m 30.658,-134.534 h -3.117 -6.521 -5.949 -3.117 v -18.706 h 3.117 5.949 6.521 3.117 z M 341.1,19.181 h 15.07 3.635 v 18.706 h -3.635 -12.471 -2.6 v -9.828 -8.878 z m -12.471,8.878 v 22.298 h 15.07 v 90.43 C 328.269,86.353 285.401,43.491 230.976,28.058 h 97.653 z M 13.229,17.146 h 3.118 15.588 v 10.912 7.794 H 28.817 16.346 13.228 V 17.146 Z M 44.405,48.323 V 28.059 h 97.134 C 87.111,43.491 44.25,86.353 28.817,140.781 V 48.323 Z M 13.229,176.146 h 3.118 6.521 5.949 3.118 v 18.706 h -3.118 -5.949 -6.521 -3.118 z m 15.588,54.067 C 44.25,284.644 87.111,327.511 141.54,342.942 H 44.405 V 327.353 H 28.817 Z"
         transform="matrix(0.07225513,0,0,0.07225513,-37.950559,6.6560997)"
         id="path27"
         inkscape:connector-curvature="0"
         style="fill:#373e44" />
    </g>
  </g>
</svg>
