<?xml version="1.0" encoding="UTF-8" standalone="no"?>
<svg
   xmlns:dc="http://purl.org/dc/elements/1.1/"
   xmlns:cc="http://creativecommons.org/ns#"
   xmlns:rdf="http://www.w3.org/1999/02/22-rdf-syntax-ns#"
   xmlns:svg="http://www.w3.org/2000/svg"
   xmlns="http://www.w3.org/2000/svg"
   xmlns:xlink="http://www.w3.org/1999/xlink"
   xmlns:sodipodi="http://sodipodi.sourceforge.net/DTD/sodipodi-0.dtd"
   xmlns:inkscape="http://www.inkscape.org/namespaces/inkscape"
   height="64"
   viewBox="0 0 64 64"
   width="64"
   version="1.1"
   id="svg48"
   sodipodi:docname="application-software.svg"
   inkscape:version="0.92.5 (2060ec1f9f, 2020-04-08)">
  <metadata
     id="metadata54">
    <rdf:RDF>
      <cc:Work
         rdf:about="">
        <dc:format>image/svg+xml</dc:format>
        <dc:type
           rdf:resource="http://purl.org/dc/dcmitype/StillImage" />
      </cc:Work>
    </rdf:RDF>
  </metadata>
  <defs
     id="defs52">
    <linearGradient
       inkscape:collect="always"
       xlink:href="#a"
       id="linearGradient880"
       gradientUnits="userSpaceOnUse"
       gradientTransform="matrix(1.0749904,0,0,1.2428384,56.688954,-0.359908)"
       x1="-74.929466"
       y1="52.199436"
       x2="-75.259552"
       y2="2.356489" />
    <linearGradient
       inkscape:collect="always"
       xlink:href="#a"
       id="linearGradient882"
       gradientUnits="userSpaceOnUse"
       gradientTransform="matrix(1.0749904,0,0,1.0019024,56.688954,9.6480056)"
       x1="-74.929466"
       y1="52.199436"
       x2="-75.259552"
       y2="2.356489" />
    <linearGradient
       inkscape:collect="always"
       xlink:href="#a"
       id="linearGradient907"
       gradientUnits="userSpaceOnUse"
       gradientTransform="matrix(1.0749904,0,0,1.0019024,56.688954,9.6480056)"
       x1="-74.929466"
       y1="52.199436"
       x2="-75.259552"
       y2="2.356489" />
  </defs>
  <sodipodi:namedview
     pagecolor="#ffffff"
     bordercolor="#666666"
     borderopacity="1"
     objecttolerance="10"
     gridtolerance="10"
     guidetolerance="10"
     inkscape:pageopacity="0"
     inkscape:pageshadow="2"
     inkscape:window-width="1920"
     inkscape:window-height="934"
     id="namedview50"
     showgrid="false"
     inkscape:zoom="3.6875"
     inkscape:cx="3.9322034"
     inkscape:cy="32"
     inkscape:window-x="0"
     inkscape:window-y="35"
     inkscape:window-maximized="1"
     inkscape:current-layer="g46" />
  <linearGradient
     id="a"
     gradientTransform="matrix(1.0749904 0 0 1.2428384 113.08072 -.536685)"
     gradientUnits="userSpaceOnUse"
     x1="-74.929466"
     x2="-75.259552"
     y1="52.199436"
     y2="2.356489">
    <stop
       offset="0"
       stop-color="#197df1"
       id="stop2" />
    <stop
       offset="1"
       stop-color="#20bcfa"
       id="stop4" />
  </linearGradient>
  <linearGradient
     id="b">
    <stop
       offset="0"
       stop-color="#3889e9"
       id="stop7" />
    <stop
       offset="1"
       stop-color="#5ea5fb"
       id="stop9" />
  </linearGradient>
  <linearGradient
     id="c"
     gradientUnits="userSpaceOnUse"
     x1="399.57144"
     x2="399.57144"
     xlink:href="#b"
     y1="545.79797"
     y2="517.79797" />
  <linearGradient
     id="d"
     gradientUnits="userSpaceOnUse"
     x1="-165.13341264324"
     x2="-165.13341264324"
     xlink:href="#b"
     y1="33.171751643005"
     y2="-12.677310356995" />
  <g
     transform="translate(56.391766 -.176777)"
     id="g46">
    <g
       id="g905"
       transform="translate(0,-4.5439455)">
      <path
         id="path18"
         d="m -43.372235,11.264668 c -1.672348,0 -3.019531,1.086018 -3.019531,2.434166 v 37.565834 h 44 V 13.698834 c 0,-1.348148 -1.347183,-2.434166 -3.019531,-2.434166 z"
         style="fill:url(#linearGradient907);stroke-width:0.89785326"
         inkscape:connector-curvature="0" />
      <g
         id="g899">
        <path
           inkscape:connector-curvature="0"
           style="fill:url(#linearGradient880)"
           d="m -2.391766,51.264668 h -44 v 8.412109 c 0,0.6925 0.278594,1.317656 0.730469,1.769531 0.451875,0.451875 1.077031,0.730469 1.769531,0.730469 h 39 c 0.6925,0 1.317656,-0.278594 1.769531,-0.730469 0.451875,-0.451875 0.730469,-1.077031 0.730469,-1.769531 z"
           id="path16" />
        <path
           style="fill:#0b3969"
           inkscape:connector-curvature="0"
           d="m -46.391766,51.264668 v 5.71289 2.199219 0.5 c 0,1.385 1.115,2.5 2.5,2.5 h 39 c 1.385,0 2.5,-1.115 2.5,-2.5 v -0.5 -2.199219 -5.71289 z"
           id="path20" />
      </g>
    </g>
    <circle
       cx="400.57138"
       cy="531.79791"
       fill="url(#c)"
       r="0"
       transform="matrix(1.637466544097 0 0 1.637466544097 -693.298687175317 -838.967244054169)"
       id="circle38" />
    <circle
       cx="400.57138"
       cy="531.79791"
       fill="url(#c)"
       r="0"
       transform="matrix(1.5558699465 0 0 1.5558699465 -774.28922590333 -815.263608554056)"
       id="circle40" />
    <circle
       cx="-163.49606"
       cy="10.247132"
       fill="url(#d)"
       r="0"
       id="circle42" />
    <path
       d="m -31.201353,32.175129 c -0.40185,1.125891 -0.79885,2.253723 -1.18755,3.384229 h 3.69675 c 0.332,-1.124792 0.74358,-2.22373 1.12504,-3.332141 -1.21116,-0.0272 -2.42564,0.06027 -3.63424,-0.05207 z m 13.609844,-0.0013 c -1.24375,0.117118 -2.49325,0.02913 -3.73971,0.05467 0.36347,1.100477 0.76583,2.186835 1.11592,3.291779 1.27157,0.08979 2.54607,0.0172 3.81914,0.0404 -0.39425,-1.130165 -0.77594,-2.26563 -1.19535,-3.386835 z m -13.130444,-3.944271 c -0.923,0 -1.66672,0.742417 -1.66672,1.665422 0,0.923005 0.74372,1.666724 1.66672,1.666724 h 12.661904 c 0.923,0 1.66542,-0.743719 1.66542,-1.666724 0,-0.923005 -0.74242,-1.665422 -1.66542,-1.665422 z m -0.0221,0.713567 h 7.99637 c 0.5538,0 1.000044,0.444926 1.000044,0.998732 0,0.553799 -0.446244,1.000034 -1.000044,1.000034 h -7.99637 c -0.5538,0 -1.00003,-0.446235 -1.00003,-1.000034 0,-0.553806 0.44623,-0.998732 1.00003,-0.998732 z m 4.65489,-9.376535 c -0.53237,1.107838 -1.04888,2.244777 -1.55083,3.414184 -0.48677,1.153953 -0.99333,2.373054 -1.51048,3.665485 -0.11431,0.294337 -0.22788,0.613568 -0.34375,0.916698 h 3.38423 c 0.0364,-0.10095 0.0786,-0.213087 0.11458,-0.31251 0.24337,-0.630869 0.45851,-1.204835 0.65627,-1.72792 0.19776,-0.523171 0.36874,-0.985447 0.52086,-1.385467 0.15209,-0.400034 0.26771,-0.717085 0.34375,-0.947946 0.0913,0.230861 0.21248,0.547819 0.3646,0.947946 0.15212,0.40002 0.33354,0.862323 0.53127,1.385467 0.21295,0.523085 0.42678,1.097051 0.65497,1.72792 0.036,0.09942 0.0782,0.21156 0.11459,0.31251 h 3.509234 c -0.1186,-0.303217 -0.23637,-0.622274 -0.35418,-0.916698 -0.50315,-1.292537 -1.00864,-2.511566 -1.51046,-3.665485 -0.50215,-1.169247 -1.014164,-2.306253 -1.531314,-3.414184 z"
       id="path44"
       inkscape:connector-curvature="0"
       style="fill:#ffffff;stroke-width:0.66668999" />
  </g>
</svg>
