<?xml version="1.0" encoding="UTF-8" standalone="no"?>
<svg
   xmlns:dc="http://purl.org/dc/elements/1.1/"
   xmlns:cc="http://creativecommons.org/ns#"
   xmlns:rdf="http://www.w3.org/1999/02/22-rdf-syntax-ns#"
   xmlns:svg="http://www.w3.org/2000/svg"
   xmlns="http://www.w3.org/2000/svg"
   xmlns:sodipodi="http://sodipodi.sourceforge.net/DTD/sodipodi-0.dtd"
   xmlns:inkscape="http://www.inkscape.org/namespaces/inkscape"
   height="64"
   viewBox="0 0 64 64"
   width="64"
   version="1.1"
   id="svg41"
   sodipodi:docname="application-msword-template.svg"
   inkscape:version="0.92.5 (2060ec1f9f, 2020-04-08)">
  <metadata
     id="metadata47">
    <rdf:RDF>
      <cc:Work
         rdf:about="">
        <dc:format>image/svg+xml</dc:format>
        <dc:type
           rdf:resource="http://purl.org/dc/dcmitype/StillImage" />
      </cc:Work>
    </rdf:RDF>
  </metadata>
  <defs
     id="defs45" />
  <sodipodi:namedview
     pagecolor="#ffffff"
     bordercolor="#666666"
     borderopacity="1"
     objecttolerance="10"
     gridtolerance="10"
     guidetolerance="10"
     inkscape:pageopacity="0"
     inkscape:pageshadow="2"
     inkscape:window-width="1920"
     inkscape:window-height="934"
     id="namedview43"
     showgrid="false"
     inkscape:zoom="3.6875"
     inkscape:cx="3.9322034"
     inkscape:cy="32"
     inkscape:window-x="0"
     inkscape:window-y="35"
     inkscape:window-maximized="1"
     inkscape:current-layer="svg41" />
  <linearGradient
     id="a"
     gradientTransform="matrix(1.0749904,0,0,0.8572265,113.08072,8.6166142)"
     gradientUnits="userSpaceOnUse"
     x1="-74.929466"
     x2="-75.259552"
     y1="52.199436"
     y2="2.356489">
    <stop
       offset="0"
       stop-color="#8798a9"
       id="stop2" />
    <stop
       offset="1"
       stop-color="#aeb6be"
       id="stop4" />
  </linearGradient>
  <rect
     style="fill:url(#a);stroke-width:0.91259694"
     id="rect9"
     y="10"
     x="10"
     width="44"
     ry="2.082083"
     height="44" />
  <g
     id="g37"
     transform="matrix(0.86557709,0,0,0.86557709,12.551931,-855.04433)">
    <path
       style="fill:#3d434a;fill-rule:evenodd"
       inkscape:connector-curvature="0"
       id="path21"
       d="m 11.447345,1036.9442 h 11.636697 l -3.21e-4,-24.4983 -11.533282,3e-4 c -1.268259,-0.094 -1.7825661,0.023 -1.7825661,1.1721 v 22.0916 c -0.07966,1.261 0.4462081,1.2343 1.6794721,1.2343 z" />
    <path
       style="fill:none;stroke:#3d434a;stroke-width:0.81170797"
       inkscape:connector-curvature="0"
       id="path23"
       d="m 33.843953,1036.9367 h -5.282394 l -2.708421,-2.2737 v -19.9506 l 1.855796,-2.2737 h 6.135019 c 0.848365,-0.094 0.916631,0.023 0.916631,1.1721 v 22.0916 c 0.05328,1.261 -0.09168,1.2343 -0.916631,1.2343 z" />
    <path
       style="fill:#3d434a;fill-rule:evenodd"
       inkscape:connector-curvature="0"
       id="path25"
       d="m 31.841628,1038.1035 -10.029586,-1.1715 -2e-5,-24.4861 9.945926,-0.9324 c 1.230149,-0.094 1.296492,0.2446 1.296492,1.3937 l -0.08368,23.3688 c 0.07726,1.261 0.06707,1.8275 -1.129132,1.8275 z" />
    <g
       style="fill:#9aa6b3"
       id="g35">
      <rect
         id="rect27"
         y="1018.7945"
         x="15.751422"
         width="11.898284"
         ry="0.31200001"
         rx="0"
         height="2.2304921" />
      <rect
         id="rect29"
         y="1022.1025"
         x="15.763586"
         width="11.898284"
         ry="0.31200001"
         rx="0"
         height="2.2304921" />
      <rect
         id="rect31"
         y="1025.2452"
         x="15.78151"
         width="11.898284"
         ry="0.31200001"
         rx="0"
         height="2.2304921" />
      <rect
         id="rect33"
         y="1028.5063"
         x="15.757503"
         width="11.898284"
         ry="0.31200001"
         rx="0"
         height="2.2304921" />
    </g>
  </g>
</svg>
