<?xml version="1.0" encoding="UTF-8" standalone="no"?>
<svg
   xmlns:dc="http://purl.org/dc/elements/1.1/"
   xmlns:cc="http://creativecommons.org/ns#"
   xmlns:rdf="http://www.w3.org/1999/02/22-rdf-syntax-ns#"
   xmlns:svg="http://www.w3.org/2000/svg"
   xmlns="http://www.w3.org/2000/svg"
   xmlns:sodipodi="http://sodipodi.sourceforge.net/DTD/sodipodi-0.dtd"
   xmlns:inkscape="http://www.inkscape.org/namespaces/inkscape"
   height="64"
   viewBox="0 0 64 64"
   width="64"
   version="1.1"
   id="svg25"
   sodipodi:docname="text-markdown.svg"
   inkscape:version="0.92.5 (2060ec1f9f, 2020-04-08)">
  <metadata
     id="metadata31">
    <rdf:RDF>
      <cc:Work
         rdf:about="">
        <dc:format>image/svg+xml</dc:format>
        <dc:type
           rdf:resource="http://purl.org/dc/dcmitype/StillImage" />
      </cc:Work>
    </rdf:RDF>
  </metadata>
  <defs
     id="defs29" />
  <sodipodi:namedview
     pagecolor="#ffffff"
     bordercolor="#666666"
     borderopacity="1"
     objecttolerance="10"
     gridtolerance="10"
     guidetolerance="10"
     inkscape:pageopacity="0"
     inkscape:pageshadow="2"
     inkscape:window-width="1920"
     inkscape:window-height="915"
     id="namedview27"
     showgrid="false"
     inkscape:zoom="3.6875"
     inkscape:cx="32"
     inkscape:cy="32"
     inkscape:window-x="0"
     inkscape:window-y="35"
     inkscape:window-maximized="1"
     inkscape:current-layer="g23" />
  <linearGradient
     id="a"
     gradientTransform="matrix(1.0749904,0,0,1.0130858,56.688954,4.5418668)"
     gradientUnits="userSpaceOnUse"
     x1="-74.929466"
     x2="-74.906631"
     y1="52.199436"
     y2="2.064065">
    <stop
       offset="0"
       stop-color="#d1d7df"
       id="stop2" />
    <stop
       offset="1"
       stop-color="#e0e5e7"
       id="stop4" />
  </linearGradient>
  <g
     transform="translate(56.391766 -.176777)"
     id="g23">
    <rect
       height="52"
       ry="2.4606435"
       width="44"
       x="-46.391766"
       y="6.1767769"
       id="rect7"
       style="fill:url(#a);stroke-width:0.92685699" />
    <g
       transform="matrix(0.72727273,0,0,0.72727273,-6.785232,12.411152)"
       id="g17"
       style="fill:#3d434a">
      <path
         d="m -39.505859,16.177734 c -1.413417,0 -2.578125,1.164709 -2.578125,2.578125 v 16.84375 c 0,1.413417 1.164708,2.578125 2.578125,2.578125 h 30.5937496 c 1.4134165,0 2.578125,-1.164708 2.578125,-2.578125 v -16.84375 c 0,-1.413416 -1.1647085,-2.578125 -2.578125,-2.578125 z m 0,1.71875 h 30.5937496 c 0.4909586,0 0.859375,0.368417 0.859375,0.859375 v 16.84375 c 0,0.490959 -0.3684164,0.859375 -0.859375,0.859375 H -39.505859 c -0.490959,0 -0.859375,-0.368416 -0.859375,-0.859375 v -16.84375 c 0,-0.490958 0.368416,-0.859375 0.859375,-0.859375 z"
         id="path11"
         inkscape:connector-curvature="0" />
      <path
         d="m -36.927386,33.020527 v -11.6875 h 3.4375 l 3.4375,4.296875 3.4375,-4.296875 h 3.4375 v 11.6875 h -3.4375 v -6.703125 l -3.4375,4.296875 -3.4375,-4.296875 v 6.703125 z"
         id="path13"
         inkscape:connector-curvature="0" />
      <path
         d="m -15.443011,33.020527 -5.15625,-5.671875 h 3.4375 v -6.015625 h 3.4375 v 6.015625 h 3.4375 z"
         id="path15"
         inkscape:connector-curvature="0" />
    </g>
  </g>
</svg>
