<?xml version="1.0" encoding="UTF-8" standalone="no"?>
<svg
   xmlns:dc="http://purl.org/dc/elements/1.1/"
   xmlns:cc="http://creativecommons.org/ns#"
   xmlns:rdf="http://www.w3.org/1999/02/22-rdf-syntax-ns#"
   xmlns:svg="http://www.w3.org/2000/svg"
   xmlns="http://www.w3.org/2000/svg"
   xmlns:sodipodi="http://sodipodi.sourceforge.net/DTD/sodipodi-0.dtd"
   xmlns:inkscape="http://www.inkscape.org/namespaces/inkscape"
   inkscape:version="1.0 (4035a4fb49, 2020-05-01)"
   sodipodi:docname="screen-recorder.svg"
   id="svg23"
   version="1.1"
   width="48"
   height="48">
  <metadata
     id="metadata29">
    <rdf:RDF>
      <cc:Work
         rdf:about="">
        <dc:format>image/svg+xml</dc:format>
        <dc:type
           rdf:resource="http://purl.org/dc/dcmitype/StillImage" />
      </cc:Work>
    </rdf:RDF>
  </metadata>
  <defs
     id="defs27" />
  <sodipodi:namedview
     inkscape:current-layer="svg23"
     inkscape:window-maximized="1"
     inkscape:window-y="32"
     inkscape:window-x="0"
     inkscape:cy="24.820317"
     inkscape:cx="22.011775"
     inkscape:zoom="10.532945"
     showgrid="false"
     id="namedview25"
     inkscape:window-height="938"
     inkscape:window-width="1920"
     inkscape:pageshadow="2"
     inkscape:pageopacity="0"
     guidetolerance="10"
     gridtolerance="10"
     objecttolerance="10"
     borderopacity="1"
     bordercolor="#666666"
     pagecolor="#ffffff" />
  <linearGradient
     y2="517.39703"
     y1="545.75293"
     x2="368.96432"
     x1="368.96432"
     gradientUnits="userSpaceOnUse"
     gradientTransform="matrix(1.0638147,0,0,1,9.758108,-0.061865)"
     id="a">
    <stop
       id="stop2"
       stop-color="#c61423"
       offset="0" />
    <stop
       id="stop4"
       stop-color="#ff4c63"
       offset="1" />
  </linearGradient>
  <g
     id="g21"
     transform="matrix(0.94568745,0,0,0.88999414,-362.44092,-442.2664)">
    <rect
       style="fill:url(#a)"
       id="rect7"
       y="517.73608"
       x="384.6958"
       width="33.975594"
       transform="matrix(1.3694242,0,0,1.3694242,-141.44031,-204.31678)"
       ry="2"
       opacity="0.988"
       height="28.0625"
       fill="url(#a)" />
    <g
       id="g19"
       fill="#ffffff">
      <path
         id="path9"
         transform="matrix(0.97078178,0,0,0.97078178,102.18123,16.595155)"
         opacity="0.75"
         d="m 294.90044,506.26511 v 1 4 h 1 v -4 h 4 v -1 z" />
      <path
         id="path11"
         transform="matrix(0.97078178,0,0,0.97078178,102.18123,16.595155)"
         opacity="0.75"
         d="m 294.90044,538.56511 h 1 4 v -1 h -4 v -4 h -1 z" />
      <path
         id="path13"
         transform="matrix(0.97078178,0,0,0.97078178,102.18123,16.595155)"
         opacity="0.75"
         d="m 336.2007,538.06511 v -1 -4 h -1 v 4 h -4 v 1 z" />
      <path
         id="path15"
         transform="matrix(0.97078178,0,0,0.97078178,102.18123,16.595155)"
         opacity="0.75"
         d="m 336.3007,506.56472 h -1 -4 v 1 h 4 v 4 h 1 z" />
      <circle
         id="circle17"
         r="5.400003"
         opacity="0.77"
         cy="524.28314"
         cx="408.27432" />
    </g>
  </g>
</svg>
