<?xml version="1.0" encoding="UTF-8" standalone="no"?>
<svg
   xmlns:dc="http://purl.org/dc/elements/1.1/"
   xmlns:cc="http://creativecommons.org/ns#"
   xmlns:rdf="http://www.w3.org/1999/02/22-rdf-syntax-ns#"
   xmlns:svg="http://www.w3.org/2000/svg"
   xmlns="http://www.w3.org/2000/svg"
   xmlns:sodipodi="http://sodipodi.sourceforge.net/DTD/sodipodi-0.dtd"
   xmlns:inkscape="http://www.inkscape.org/namespaces/inkscape"
   height="48"
   width="48"
   version="1.1"
   id="svg19"
   sodipodi:docname="terminal.svg"
   inkscape:version="0.92.4 (5da689c313, 2019-01-14)">
  <metadata
     id="metadata25">
    <rdf:RDF>
      <cc:Work
         rdf:about="">
        <dc:format>image/svg+xml</dc:format>
        <dc:type
           rdf:resource="http://purl.org/dc/dcmitype/StillImage" />
      </cc:Work>
    </rdf:RDF>
  </metadata>
  <defs
     id="defs23" />
  <sodipodi:namedview
     pagecolor="#ffffff"
     bordercolor="#666666"
     borderopacity="1"
     objecttolerance="10"
     gridtolerance="10"
     guidetolerance="10"
     inkscape:pageopacity="0"
     inkscape:pageshadow="2"
     inkscape:window-width="1920"
     inkscape:window-height="867"
     id="namedview21"
     showgrid="false"
     inkscape:zoom="19.666667"
     inkscape:cx="21.375046"
     inkscape:cy="28.626047"
     inkscape:window-x="0"
     inkscape:window-y="35"
     inkscape:window-maximized="1"
     inkscape:current-layer="svg19" />
  <linearGradient
     id="a"
     gradientTransform="matrix(1 0 0 .97651015 -.000026 11.327455)"
     gradientUnits="userSpaceOnUse"
     x1="409.57144"
     x2="409.57144"
     y1="542.79797"
     y2="507.798">
    <stop
       offset="0"
       stop-color="#2a2c2f"
       id="stop2" />
    <stop
       offset="1"
       stop-color="#424649"
       id="stop4" />
  </linearGradient>
  <g
     transform="translate(-384.571442 -500.298166)"
     id="g11">
    <rect
       fill-opacity=".666667"
       height="33.201344"
       ry="1.562416"
       width="44"
       x="386.57144"
       y="508.19766"
       id="rect7" />
    <rect
       fill="url(#a)"
       height="33.201344"
       ry="1.562416"
       width="44"
       x="386.57144"
       y="507.19733"
       id="rect9" />
  </g>
  <g
     transform="translate(-384.57143 -503.798)"
     id="g17">
    <path
       d="m404.32135 524.78065c-.0483-.046-.11008-.0689-.18525-.0689h-7.73589c-.0752 0-.13699.023-.18535.0689-.0483.046-.0724.10474-.0724.17635v.49076c0 .0715.0241.13034.0724.17627.0484.0459.11018.0689.18535.0689h7.73589c.0752 0 .13698-.0231.18525-.0689.0483-.0459.0724-.10474.0724-.17627v-.49076c.00009-.0716-.024-.13033-.0724-.17635z"
       id="path13"
       stroke-width=".096476"
       fill="#fff" />
    <path
       d="m391.94402 517.5274c-.0537-.051-.11552-.0767-.18535-.0767-.0698 0-.13155.0256-.18525.0767l-.40294.38339c-.0537.0511-.0805.10983-.0805.17636 0 .0666.0268.12525.0805.17636l3.16695 3.01318-3.16695 3.01329c-.0537.0511-.0805.10991-.0805.17626 0 .0666.0268.12525.0805.17635l.40294.38329c.0537.0512.11542.0766.18525.0766.0699 0 .13165-.0255.18535-.0766l3.75515-3.57283c.0537-.0511.0805-.11001.0805-.17645 0-.0665-.0268-.12525-.0805-.17636z"
       id="path15"
       stroke-width=".096476"
       fill="#fff" />
  </g>
</svg>
