<?xml version="1.0" encoding="UTF-8" standalone="no"?>
<svg
   xmlns:dc="http://purl.org/dc/elements/1.1/"
   xmlns:cc="http://creativecommons.org/ns#"
   xmlns:rdf="http://www.w3.org/1999/02/22-rdf-syntax-ns#"
   xmlns:svg="http://www.w3.org/2000/svg"
   xmlns="http://www.w3.org/2000/svg"
   xmlns:sodipodi="http://sodipodi.sourceforge.net/DTD/sodipodi-0.dtd"
   xmlns:inkscape="http://www.inkscape.org/namespaces/inkscape"
   height="48"
   viewBox="0 0 48 48"
   width="48"
   version="1.1"
   id="svg43"
   sodipodi:docname="application-x-desktop-gnome.svg"
   inkscape:version="0.92.4 (5da689c313, 2019-01-14)">
  <metadata
     id="metadata49">
    <rdf:RDF>
      <cc:Work
         rdf:about="">
        <dc:format>image/svg+xml</dc:format>
        <dc:type
           rdf:resource="http://purl.org/dc/dcmitype/StillImage" />
        <dc:title></dc:title>
      </cc:Work>
    </rdf:RDF>
  </metadata>
  <defs
     id="defs47" />
  <sodipodi:namedview
     pagecolor="#ffffff"
     bordercolor="#666666"
     borderopacity="1"
     objecttolerance="10"
     gridtolerance="10"
     guidetolerance="10"
     inkscape:pageopacity="0"
     inkscape:pageshadow="2"
     inkscape:window-width="1920"
     inkscape:window-height="879"
     id="namedview45"
     showgrid="false"
     inkscape:zoom="7.375"
     inkscape:cx="-0.48849782"
     inkscape:cy="26.848392"
     inkscape:window-x="0"
     inkscape:window-y="35"
     inkscape:window-maximized="1"
     inkscape:current-layer="svg43" />
  <linearGradient
     id="a"
     gradientTransform="matrix(1.1727168,0,0,0.93515618,120.4517,-9.5091483)"
     gradientUnits="userSpaceOnUse"
     x1="-74.929466"
     x2="-75.259552"
     y1="52.199436"
     y2="2.3564889">
    <stop
       offset="0"
       stop-color="#8798a9"
       id="stop2" />
    <stop
       offset="1"
       stop-color="#aeb6be"
       id="stop4" />
  </linearGradient>
  <g
     id="g995"
     transform="matrix(0.83333333,0,0,0.83333333,-2.6666666,10.666667)">
    <rect
       height="48"
       ry="2.2713633"
       width="48"
       x="8"
       y="-8"
       id="rect9"
       style="fill:url(#a);stroke-width:0.99556029" />
    <path
       id="path966"
       d="m 44.421789,14.611993 c -0.03953,-0.351422 -0.449289,-0.6155 -0.803604,-0.6155 -1.145546,0 -2.162073,-0.672614 -2.588386,-1.712835 C 40.594277,11.21823 40.875106,9.975695 41.728847,9.192575 41.997584,8.946914 42.030234,8.535682 41.804837,8.250023 41.21853,7.505507 40.552132,6.832986 39.824525,6.250135 39.539604,6.021496 39.121571,6.053308 38.874508,6.326875 38.129414,7.152038 36.791037,7.458719 35.756836,7.027208 34.68059,6.574489 34.001913,5.483945 34.068329,4.313313 34.090189,3.945613 33.821453,3.62591 33.45486,3.583215 32.52112,3.47522 31.579195,3.471872 30.642666,3.575815 c -0.362407,0.04 -0.631143,0.352166 -0.618958,0.715216 0.04074,1.159097 -0.64612,2.230572 -1.711669,2.667013 -1.021829,0.417372 -2.350811,0.113296 -3.094417,-0.704519 -0.24576,-0.26938 -0.657003,-0.302494 -0.94332,-0.07934 -0.749187,0.587781 -1.430561,1.26086 -2.022264,1.999237 -0.230784,0.287054 -0.196831,0.703124 0.0746,0.950086 0.87002,0.787864 1.150942,2.041189 0.698956,3.118896 -0.431522,1.027478 -1.498466,1.689673 -2.719917,1.689673 -0.396361,-0.01274 -0.678678,0.253288 -0.722025,0.61364 -0.10995,0.939111 -0.111253,1.895987 -0.0054,2.842726 0.03926,0.35291 0.461475,0.614663 0.819696,0.614663 1.088526,-0.02781 2.13361,0.646104 2.572015,1.712928 0.43701,1.065429 0.156088,2.307219 -0.698955,3.09099 -0.267434,0.24566 -0.301387,0.656242 -0.07599,0.941901 0.580819,0.739772 1.24731,1.412944 1.97752,2.000632 0.28641,0.230778 0.703142,0.198221 0.951413,-0.07534 0.747884,-0.82721 2.086169,-1.133332 3.116277,-0.700984 1.078944,0.451324 1.757621,1.541774 1.691205,2.713058 -0.02167,0.367886 0.248364,0.688147 0.613469,0.730192 0.47766,0.05572 0.958204,0.08353 1.440049,0.08353 0.457382,0 0.914856,-0.02512 1.372238,-0.076 0.3625,-0.04 0.63105,-0.352166 0.618864,-0.715867 -0.04195,-1.158447 0.64612,-2.229922 1.710274,-2.665619 1.028712,-0.420162 2.352115,-0.112644 3.095813,0.704333 0.247155,0.268822 0.655514,0.301285 0.943413,0.07888 0.747791,-0.586385 1.42777,-1.258906 2.022263,-1.999329 0.230691,-0.286403 0.198134,-0.703124 -0.0747,-0.949994 -0.87002,-0.787863 -1.152337,-2.041375 -0.70035,-3.118338 C 41.397683,18.744275 42.425,18.06357 43.52999,18.06357 l 0.1546,0.004 c 0.358408,0.02912 0.688165,-0.246963 0.731605,-0.612803 0.110137,-0.939947 0.111439,-1.895987 0.0055,-2.842725 z m -12.401947,5.583875 c -2.29928,0 -4.169548,-1.870221 -4.169548,-4.169442 0,-2.299127 1.870268,-4.169441 4.169548,-4.169441 2.299185,0 4.169454,1.870314 4.169454,4.169441 0,2.299221 -1.870269,4.169442 -4.169454,4.169442 z"
       inkscape:connector-curvature="0"
       style="clip-rule:evenodd;fill:#3d434a;fill-opacity:1;fill-rule:evenodd;stroke-width:0.12254559" />
  </g>
</svg>
